<svg width="25" height="19" viewBox="0 0 25 19" fill="none" xmlns="http://www.w3.org/2000/svg">
<rect x="1.11133" y="1.04053" width="22.5188" height="17.1391" rx="1.5" fill="white" stroke="#D5D6D8"/>
<mask id="mask0_860_5362" style="mask-type:alpha" maskUnits="userSpaceOnUse" x="1" y="1" width="23" height="17">
<rect x="2.11133" y="2.04053" width="20.5188" height="15.1391" rx="0.5" fill="#316BDB" stroke="#D5D6D8"/>
</mask>
<g mask="url(#mask0_860_5362)">
<path d="M23.1301 9.61008H1.61133V1.96526C1.61133 1.73071 1.77747 1.54053 1.98236 1.54053H22.7591C22.964 1.54053 23.1301 1.73071 23.1301 1.96526L23.1301 9.61008Z" fill="white"/>
<path d="M1.61133 9.61011H23.1301V17.2549C23.1301 17.4895 22.964 17.6797 22.7591 17.6797H1.98236C1.77747 17.6797 1.61133 17.4895 1.61133 17.2549V9.61011Z" fill="#00B140"/>
<path d="M17.9562 6.49524C17.9562 6.49524 18.2139 7.20208 18.236 7.23891L18.2655 7.17999L18.4422 6.25962L18.8987 5.40552L18.7661 5.42026L17.7279 5.92092C17.7279 5.92092 17.1094 6.59833 17.1021 6.62041C17.0947 6.6425 17.9562 6.49524 17.9562 6.49524Z" fill="#C8102E"/>
<path d="M18.3215 13.2545C18.2872 13.2496 17.7766 13.2741 17.7766 13.2741L17.6098 12.7146L17.5141 11.6568L17.6944 11.6089L17.919 11.7157L18 11.2923C18 11.2923 17.8049 11.0788 17.7681 11.064C17.7313 11.0493 17.2895 10.9499 17.2895 10.9499L16.6968 10.1658L17.4036 9.77191L17.9559 9.0135L18.0884 8.32874L17.9779 7.76177L17.7268 7.34131C17.7231 7.32931 17.7202 7.32002 17.7202 7.32002C17.7184 7.31779 17.7122 7.31356 17.7083 7.31027L17.6613 7.23163L17.6606 7.2775C17.5516 7.20946 17.3287 7.09112 17.2711 7.06228C17.1974 7.02545 16.8072 6.95919 16.7262 7.0181C16.6452 7.07702 16.2697 7.25372 16.2034 7.3789C16.1372 7.50407 16.093 7.95321 16.093 7.95321C16.093 7.95321 16.2034 8.20357 16.3433 8.26244C16.4833 8.32135 16.7557 8.38761 16.7998 8.37288C16.838 8.36016 17.2702 8.23245 17.3881 8.17873L17.4404 8.28453L17.4183 8.5864L17.1754 8.75575L16.7262 8.93245C16.7262 8.93245 16.0415 8.74101 16.012 8.74836C15.9826 8.75571 15.1358 8.49801 15.1358 8.49801L14.3406 8.31392L14.6057 8.18139L15.3273 8.12987C15.3273 8.12987 15.4672 7.31259 15.4893 7.29785C15.5114 7.28311 15.9826 6.90763 15.9826 6.90763L16.3728 6.81193L16.1372 5.81296L16.4906 4.72324L15.5678 4.98829L14.105 5.35153L13.1724 5.29262L12.3477 5.55767L11.8176 6.03874L11.5132 6.45105L11.4052 7.10882L11.3365 7.98261L11.0812 8.46368L10.792 8.69038C10.7596 8.60477 10.6076 8.27718 10.6076 8.27718L10.9757 8.18883L10.88 7.94586L10.6223 7.75443L10.7033 7.4599L10.9979 7.6219L11.0789 7.68081L11.1304 7.37894L10.8064 6.92245L10.858 6.69418L11.2482 6.90036L11.204 6.37022L10.858 6.15669L10.88 5.86216L11.258 5.97505L11.2187 5.69526L10.8064 5.39579L11.2089 4.74786L10.718 4.77244L10.6788 4.56132L10.5512 4.51221C10.5512 4.51221 9.86883 4.80184 9.81975 4.792C9.77068 4.7822 9.22584 4.70859 9.16199 4.72333C9.09817 4.73807 8.87236 4.79694 8.87236 4.79694L8.8085 5.04729L8.39129 4.97862L7.77279 4.9271L7.58625 5.15536L7.88078 5.27319C7.88078 5.27319 7.81211 5.79349 7.83171 5.83277C7.85135 5.872 8.02805 6.1273 8.02805 6.1273L7.62557 6.67704L8.03789 6.73595L8.60731 6.6476L8.58763 6.78507L9.34358 6.70651L9.17664 6.79486L8.96071 7.44279L8.33237 8.71905L8.1115 9.85295L7.75806 9.48481L7.52244 8.51288L7.169 7.55568C7.169 7.55568 7.09539 7.26115 7.05117 7.2538C7.007 7.24645 6.81556 7.20963 6.81556 7.20963L6.57259 7.40842L6.26337 7.36424L6.08667 7.6072L6.28546 7.91643C6.28546 7.91643 5.9541 8.04895 5.9541 8.08578C5.9541 8.12261 5.97619 8.33613 5.99828 8.34348C6.02036 8.35083 6.52103 8.33613 6.52103 8.33613L6.82291 8.87362L6.58729 9.49212L6.70512 9.72773L6.9113 9.75717L7.10274 9.53629L7.7654 11.5169C7.7654 11.5169 7.71388 11.7746 7.67705 11.7967C7.64023 11.8188 7.46353 12.0176 7.5077 12.0176C7.55188 12.0176 7.82432 12.0544 7.85375 12.0397C7.88319 12.025 8.26607 11.7305 8.26607 11.7305C8.26607 11.7305 8.86982 11.2666 8.90665 11.3034C8.94347 11.3402 9.51779 11.6936 9.51779 11.6936L9.25274 12.6067L8.6269 13.5197L8.23667 13.2841L7.95689 12.8865L7.75071 12.9527L7.6771 13.0779L7.70653 13.3429C7.70653 13.3429 7.49301 13.5123 7.49301 13.5491C7.49301 13.586 7.51509 13.851 7.51509 13.851C7.51509 13.851 7.65501 13.9173 7.66236 13.9541C7.66971 13.9909 7.74336 14.256 7.74336 14.256L7.89062 14.3075L8.17041 14.1381H8.63429L8.92143 14.1823L9.53257 13.9909L10.4235 14.035L10.3425 13.8657C10.3425 13.8657 9.98171 13.6816 9.85654 13.6448C9.73136 13.608 9.60618 13.5786 9.60618 13.5786L9.55466 13.3209L10.4309 12.2827L10.7548 12.2164L10.8653 12.4888C10.8653 12.4888 11.2285 12.4005 11.2285 12.371C11.2285 12.3416 11.2285 12.0274 11.2285 11.9979C11.2285 11.9685 11.1499 11.7231 11.1499 11.7231C11.1499 11.7231 11.1489 11.714 11.1473 11.7006L11.4248 11.6543L12.3869 11.1929L12.7256 11.6004L13.1478 11.8016L12.6225 12.744L12.171 13.0484L11.847 12.9012L11.3954 12.5673L11.2187 12.6754L11.2579 13.0092L10.9929 12.9895L10.8751 13.2252L11.0714 13.5098L11.0026 13.7357C11.0026 13.7357 11.0518 13.9418 11.1008 13.9418C11.1499 13.9418 11.4444 13.8338 11.4444 13.8338L12.3084 13.7651L12.9367 13.559L13.5945 13.6081C13.5945 13.6081 13.7221 13.1663 13.6927 13.1663C13.6632 13.1663 13.6534 13.1564 13.5748 13.1564C13.4963 13.1564 13.2214 13.1663 13.2214 13.1663L13.2115 13.068L13.4275 12.6753L14.262 11.9782L14.5074 12.0273L14.5958 12.1549L14.8412 11.9684L14.8314 11.6542L14.6154 11.4285L14.3994 11.1732L14.4682 10.7903L14.8412 10.967C14.8412 10.967 15.4303 11.3793 15.4793 11.399C15.5284 11.4186 16.6672 11.7131 16.6672 11.7131L16.9028 12.2727L16.785 13.1562L16.4218 13.0482L16.0782 12.6065C16.0782 12.6065 15.98 12.5573 15.9309 12.5672C15.8818 12.577 15.764 12.7734 15.764 12.7734L15.8819 13.0482L15.7248 13.0973L15.5775 13.1955L15.5481 13.4017L15.6855 13.5293C15.6855 13.5293 15.6855 13.7649 15.6855 13.7943C15.6855 13.8238 15.764 13.9318 15.7935 13.9416C15.823 13.9514 16.0488 13.9808 16.1027 13.976C16.1567 13.971 16.5592 13.8042 16.5592 13.8042C16.5592 13.8042 17.3151 13.8189 17.3348 13.814C17.3545 13.8091 18.0073 13.6667 18.0073 13.6667L18.3755 13.7257C18.3755 13.7257 18.6209 13.5391 18.6111 13.5145C18.6013 13.4901 18.3558 13.2594 18.3215 13.2545ZM16.9102 7.93839C16.7114 7.96048 16.6083 8.01939 16.5936 7.90895C16.5789 7.79852 16.5789 7.5776 16.601 7.57025C16.623 7.5629 16.8513 7.43033 16.8587 7.45242C16.866 7.47451 17.0943 7.58495 17.0943 7.58495L17.2333 7.86592C17.1599 7.9049 17.0468 7.92319 16.9102 7.93839Z" fill="#C8102E"/>
<path fill-rule="evenodd" clip-rule="evenodd" d="M6.79301 5.34766L8.52285 6.21258L8.32945 6.59938L6.59961 5.73446L6.79301 5.34766Z" fill="#C8102E"/>
<path fill-rule="evenodd" clip-rule="evenodd" d="M18.1909 6.34616L17.7585 7.42731L17.3569 7.2667L17.7894 6.18555L18.1909 6.34616Z" fill="#C8102E"/>
<path d="M6.87455 6.13451C6.87455 6.13451 6.95555 5.71481 6.97764 5.71481C6.99973 5.71481 7.3016 5.60437 7.3016 5.60437L6.40332 5.02271C6.40332 5.02271 6.55793 5.7369 6.57267 5.79581C6.58737 5.85468 6.87455 6.13451 6.87455 6.13451Z" fill="#C8102E"/>
</g>
</svg>

