<svg width="143" height="32" viewBox="0 0 143 32" fill="none" xmlns="http://www.w3.org/2000/svg">
<path d="M24.1569 32L14.0728 17.9272L9.41177 22.0504V32H0V0H9.41177V12.1905L22.5882 0H33.7031L20.4818 12.1457L34.9132 32H24.1569Z" fill="#2C303B"/>
<path d="M60.5063 32L58.0861 26.0392H43.341L40.9657 32H31.4195L45.3578 0H56.3831L70.3214 32H60.5063ZM50.736 7.43977L46.1197 18.9132H55.3522L50.736 7.43977Z" fill="#2C303B"/>
<path d="M95.1369 32L78.9128 12.549V32H69.9492V0H78.2854L94.5094 19.451V0H103.473V32H95.1369Z" fill="#2C303B"/>
<path d="M132.206 32L129.786 26.0392H115.041L112.666 32H103.119L117.058 0H128.083L142.021 32H132.206ZM122.436 7.43977L117.82 18.9132H127.052L122.436 7.43977Z" fill="#2C303B"/>
</svg>
