<svg width="24" height="24" viewBox="0 0 24 24" fill="none" xmlns="http://www.w3.org/2000/svg">
<path d="M12 0C5.3736 0 0 5.3736 0 12C0 18.6264 5.3736 24 12 24C18.6264 24 24 18.6264 24 12C24 5.3736 18.6264 0 12 0ZM8.5128 18.1408H5.5904V9.3488H8.5128V18.1408ZM7.052 8.1472H7.032C6.0512 8.1472 5.4168 7.472 5.4168 6.6288C5.4168 5.7656 6.0704 5.1088 7.0704 5.1088C8.0704 5.1088 8.6856 5.7656 8.7048 6.6288C8.7048 7.472 8.0704 8.1472 7.0512 8.1472H7.052ZM19.0512 18.1408H16.128V13.4368C16.128 12.2544 15.7048 11.4488 14.648 11.4488C13.84 11.4488 13.36 11.9928 13.148 12.5176C13.0704 12.7048 13.052 12.968 13.052 13.2304V18.1408H10.1296C10.1296 18.1408 10.168 10.1728 10.1296 9.3488H13.052V10.5928C13.44 9.9936 14.1352 9.1416 15.6856 9.1416C17.6088 9.1416 19.0504 10.3984 19.0504 13.0992V18.1408H19.0512Z" fill="#2C303B"/>
</svg>
