<svg width="24" height="24" viewBox="0 0 24 24" fill="none" xmlns="http://www.w3.org/2000/svg">
<path d="M11.999 0C5.37262 0 -0.000976562 5.3736 -0.000976562 12C-0.000976562 18.6264 5.37262 24 11.999 24C18.6254 24 23.999 18.6264 23.999 12C23.999 5.3736 18.6254 0 11.999 0ZM17.4781 9.35632C17.4834 9.47443 17.486 9.59308 17.486 9.71228C17.486 13.3519 14.7156 17.5488 9.64923 17.549H9.64941H9.64923C8.09375 17.549 6.6463 17.0931 5.42737 16.3118C5.64288 16.3372 5.86224 16.3499 6.08435 16.3499C7.37488 16.3499 8.5625 15.9097 9.50531 15.1708C8.29956 15.1485 7.28296 14.3522 6.93213 13.2578C7.10004 13.29 7.27271 13.3076 7.44977 13.3076C7.70117 13.3076 7.9447 13.2737 8.17615 13.2105C6.91583 12.9582 5.96643 11.8444 5.96643 10.5106C5.96643 10.4982 5.96643 10.487 5.9668 10.4755C6.33795 10.6818 6.76239 10.806 7.21429 10.8199C6.47473 10.3264 5.98859 9.48285 5.98859 8.52722C5.98859 8.02258 6.125 7.5498 6.36157 7.14276C7.71985 8.80939 9.74976 9.90546 12.0389 10.0206C11.9917 9.81885 11.9673 9.60864 11.9673 9.39258C11.9673 7.87207 13.2009 6.63849 14.722 6.63849C15.5143 6.63849 16.2299 6.97339 16.7325 7.50879C17.36 7.38501 17.9492 7.15576 18.4815 6.84027C18.2755 7.48315 17.839 8.02258 17.2703 8.36371C17.8275 8.29706 18.3585 8.14929 18.8519 7.92993C18.4833 8.48236 18.0159 8.96759 17.4781 9.35632Z" fill="#2C303B"/>
</svg>
