<svg width="64" height="56" viewBox="0 0 64 56" fill="none" xmlns="http://www.w3.org/2000/svg">
<path d="M11.2721 38.9225C15.1704 38.9225 18.3422 35.7507 18.3422 31.8523C18.3422 27.9545 15.1704 24.7832 11.2721 24.7832C7.37367 24.7832 4.2019 27.955 4.2019 31.8523C4.2019 35.7512 7.37367 38.9225 11.2721 38.9225ZM11.2721 26.9162C13.9944 26.9162 16.2087 29.1306 16.2087 31.8523C16.2087 34.5747 13.9943 36.789 11.2721 36.789C8.54983 36.789 6.33542 34.5746 6.33542 31.8523C6.33542 29.1305 8.54983 26.9162 11.2721 26.9162Z" fill="#6679DA"/>
<path d="M11.2722 40.8616C5.05677 40.8616 0 45.9187 0 52.1337C0 54.046 1.5561 55.602 3.46828 55.602H19.0763C20.9886 55.602 22.5437 54.0459 22.5437 52.1337C22.5437 45.9188 17.4871 40.8616 11.2715 40.8616H11.2722ZM19.0769 53.4685H3.46891C2.73278 53.4685 2.13402 52.8698 2.13402 52.1336C2.13402 47.0948 6.23381 42.995 11.2727 42.995C16.3115 42.995 20.4113 47.0948 20.4113 52.1336C20.4113 52.8697 19.8126 53.4685 19.0774 53.4685H19.0769Z" fill="#6679DA"/>
<path d="M32.0003 25.7323C35.8987 25.7323 39.0705 22.5605 39.0705 18.6632C39.0705 14.7648 35.8987 11.593 32.0003 11.593C28.1019 11.593 24.9302 14.7648 24.9302 18.6632C24.9302 22.561 28.1019 25.7323 32.0003 25.7323ZM32.0003 13.726C34.7227 13.726 36.937 15.9404 36.937 18.6627C36.937 21.384 34.7226 23.5988 32.0003 23.5988C29.2781 23.5988 27.0637 21.3844 27.0637 18.6627C27.0637 15.9403 29.2781 13.726 32.0003 13.726Z" fill="#6679DA"/>
<path d="M43.2731 38.9453C43.2731 32.7299 38.2164 27.6727 32.0009 27.6727C25.7854 27.6727 20.7288 32.7293 20.7288 38.9453C20.7288 40.8576 22.2849 42.4136 24.1961 42.4136H39.8042C41.7174 42.4131 43.2725 40.8575 43.2725 38.9453H43.2731ZM39.8057 40.2802H24.1964C23.4603 40.2802 22.8625 39.6815 22.8625 38.9453C22.8625 33.9065 26.9623 29.8057 32.0012 29.8057C37.04 29.8057 41.1398 33.906 41.1398 38.9453C41.1398 39.6815 40.5411 40.2802 39.806 40.2802H39.8057Z" fill="#6679DA"/>
<path d="M52.7284 38.9225C56.6267 38.9225 59.7985 35.7507 59.7985 31.8523C59.7985 27.9545 56.6267 24.7832 52.7284 24.7832C48.83 24.7832 45.6582 27.955 45.6582 31.8523C45.6582 35.7512 48.83 38.9225 52.7284 38.9225ZM52.7284 26.9162C55.4507 26.9162 57.665 29.1306 57.665 31.8523C57.665 34.5747 55.4506 36.789 52.7284 36.789C50.0061 36.789 47.7917 34.5746 47.7917 31.8523C47.7917 29.1305 50.0061 26.9162 52.7284 26.9162Z" fill="#6679DA"/>
<path d="M52.7285 40.8616C46.5131 40.8616 41.4563 45.9177 41.4563 52.1337C41.4563 54.046 43.0124 55.602 44.9237 55.602H60.5317C62.444 55.602 64 54.0459 64 52.1337C64 45.9188 58.9433 40.8616 52.7278 40.8616H52.7285ZM60.5322 53.4685H44.9242C44.1881 53.4685 43.5903 52.8698 43.5903 52.1336C43.5903 47.0948 47.6901 42.995 52.729 42.995C57.7678 42.995 61.8676 47.0948 61.8676 52.1336C61.8676 52.8697 61.2689 53.4685 60.5327 53.4685H60.5322Z" fill="#6679DA"/>
<path d="M32.0003 7.65947C32.5896 7.65947 33.0668 7.18179 33.0668 6.59298V1.06649C33.0668 0.477688 32.5896 0 32.0003 0C31.411 0 30.9338 0.477688 30.9338 1.06649V6.59298C30.9338 7.18129 31.411 7.65947 32.0003 7.65947Z" fill="#6679DA"/>
<path d="M48.4476 14.4724C48.7209 14.4724 48.9938 14.3687 49.2021 14.1604L53.1099 10.2526C53.5265 9.8359 53.5265 9.16077 53.1099 8.74409C52.6932 8.3274 52.0181 8.32742 51.6014 8.74409L47.6936 12.6519C47.2769 13.0685 47.2769 13.7437 47.6936 14.1604C47.9014 14.3682 48.1743 14.4724 48.4476 14.4724H48.4476Z" fill="#6679DA"/>
<path d="M14.7987 14.1599C15.007 14.3683 15.2803 14.4719 15.5531 14.4719C15.8265 14.4719 16.0993 14.3683 16.3076 14.1599C16.7243 13.7432 16.7243 13.0681 16.3076 12.6514L12.3998 8.74366C11.9832 8.32698 11.308 8.32698 10.8914 8.74366C10.4747 9.16033 10.4747 9.83545 10.8914 10.2521L14.7987 14.1599Z" fill="#6679DA"/>
<path d="M22.113 8.77063C22.2832 9.18086 22.6805 9.42938 23.0987 9.42938C23.2346 9.42938 23.373 9.40358 23.5069 9.34852C24.0511 9.12332 24.309 8.49929 24.0843 7.95458L21.9692 2.8488C21.744 2.30414 21.1195 2.04521 20.5753 2.2714C20.0311 2.4966 19.7732 3.12063 19.9979 3.66534L22.113 8.77063Z" fill="#6679DA"/>
<path d="M40.4932 9.3484C40.6271 9.40396 40.765 9.42926 40.9014 9.42926C41.3196 9.42926 41.7169 9.18124 41.8871 8.77051L44.0022 3.66473C44.2274 3.12007 43.9694 2.49655 43.4248 2.27079C42.8791 2.0446 42.2566 2.30353 42.0308 2.84819L39.9157 7.95397C39.6905 8.49863 39.9495 9.12215 40.4931 9.34829L40.4932 9.3484Z" fill="#6679DA"/>
</svg>
