<svg width="64" height="39" viewBox="0 0 64 39" fill="none" xmlns="http://www.w3.org/2000/svg">
<path d="M63.9681 18.6034L57.956 2.07457C57.8887 1.8162 57.7171 1.59668 57.4831 1.46839C57.2487 1.34011 56.9709 1.31482 56.717 1.39657L45.6432 5.74594C43.766 4.69484 36.6557 0.773189 34.4262 0.402349C34.0576 0.340918 33.6619 0.309751 33.2513 0.309751C31.3131 0.309751 29.453 0.996331 28.9593 1.19237C27.8143 1.32698 21.7565 2.11519 17.6781 4.15412C14.125 2.32293 11.2997 0.215717 11.2708 0.194556C11.0558 0.0337541 10.7839 -0.0326429 10.521 0.0152298C10.2567 0.0613032 10.0237 0.214885 9.87686 0.438013L0.159974 15.2057C-0.126858 15.6416 -0.018 16.2261 0.406599 16.5301L12.6673 25.2871C12.2436 26.2731 12.222 27.2642 12.6163 28.1608C13.2938 29.7025 14.9837 30.5738 15.8794 30.9406C16.5664 33.7139 18.3245 34.1468 19.352 34.1468C19.6967 34.1468 20.0192 34.0989 20.3001 34.0329C21.2812 36.2047 22.6332 36.6925 23.6495 36.6916H23.6499C24.1725 36.6916 24.6387 36.5597 25.01 36.4016C25.6153 37.0792 26.6922 37.979 28.2587 38.1745C28.4226 38.1953 28.5771 38.2043 28.7216 38.2043C29.6702 38.2043 30.2565 37.8028 30.5808 37.4654C31.023 37.0055 31.2096 36.4378 31.2873 36.005L33.4509 37.5223L33.5092 37.5597C33.6993 37.6745 35.0612 38.46 36.5098 38.46C36.9439 38.46 37.3861 38.39 37.8057 38.2088C38.3121 37.9911 38.939 37.5439 39.3469 36.6225C40.1726 36.6645 41.4337 36.5777 42.4979 35.8383C43.306 35.2777 43.8566 34.4616 44.1389 33.4081C44.9605 33.3368 46.195 33.0716 47.1644 32.1863C47.8853 31.5278 48.3347 30.6601 48.5055 29.5967C49.3705 29.5836 50.5914 29.3916 51.5219 28.5524C52.4109 27.7515 52.8283 26.5748 52.7763 25.0621L63.4644 19.7176C63.8741 19.5125 64.0846 19.0472 63.9681 18.6028L63.9681 18.6034ZM14.3933 27.3767C14.2054 26.9476 14.2352 26.4991 14.4872 25.9665C15.0938 24.6824 15.8193 23.9149 16.4277 23.9149C16.7931 23.9149 17.2353 24.1832 17.7073 24.6765C16.9638 25.6011 16.0121 27.0646 15.7569 28.7102C15.1963 28.3777 14.6335 27.9269 14.3932 27.3768L14.3933 27.3767ZM17.6744 30.0462L17.6739 30.0404C17.4111 28.5949 18.3072 27.0791 19.0535 26.1069L19.7193 25.4782C20.1439 25.0775 21.0562 24.4415 21.6977 24.4415C22.2537 24.4415 22.5491 25.1782 22.7086 25.9334C21.8801 26.9186 19.9013 29.548 19.8782 32.1353C19.7196 32.1741 19.5403 32.2039 19.3524 32.2039C19.0312 32.2044 18.0551 32.2044 17.6743 30.0462L17.6744 30.0462ZM23.6495 34.7503C22.7777 34.7507 22.1959 33.6558 21.8453 32.667L21.8517 32.6656C21.5007 30.7364 23.4435 28.0371 24.3513 27.0014C24.5036 26.9332 24.813 26.8189 25.1757 26.8189C25.7597 26.8189 26.2688 27.1441 26.7002 27.7729C26.2833 27.9861 25.9007 28.2959 25.5633 28.7002C24.4331 30.0549 23.9146 32.3875 24.2032 34.6291C24.0347 34.6951 23.845 34.7502 23.6494 34.7502L23.6495 34.7503ZM29.4641 35.4219C29.4641 35.5746 29.3824 35.9473 29.2089 36.1239C29.1746 36.1582 29.0549 36.263 28.7369 36.263C28.6678 36.263 28.5856 36.258 28.507 36.2485C27.1926 36.0841 26.3936 35.0623 26.1799 34.7521C25.8546 32.9657 26.2219 30.9438 27.0566 29.9442C27.3764 29.5603 27.7238 29.3737 28.1194 29.3733C28.2495 29.3792 29.2622 29.4781 29.7772 31.209L29.4371 35.3069L29.4642 35.3701L29.4641 35.4219ZM50.2263 27.1053C49.6694 27.6103 48.7629 27.6807 48.1864 27.6518L40.7832 20.9369C40.387 20.5783 39.7718 20.6067 39.4109 21.0042C39.05 21.4013 39.0807 22.0165 39.4782 22.3764L46.621 28.856C46.5717 29.6777 46.3256 30.32 45.8626 30.7464C45.2474 31.3129 44.3859 31.4524 43.8693 31.4827L36.9144 24.8396C36.526 24.4697 35.9121 24.4837 35.5408 24.8712C35.1704 25.2597 35.1849 25.8744 35.5724 26.2448L42.3045 32.6752C42.1564 33.3889 41.865 33.9106 41.398 34.2386C40.94 34.5593 40.3866 34.6613 39.9146 34.6839C39.8893 34.6528 39.8762 34.6157 39.8473 34.5882L33.7914 28.843C33.403 28.4744 32.7878 28.4893 32.4178 28.8791C32.0488 29.2685 32.065 29.8828 32.4539 30.2518L37.7433 35.2698L37.7252 35.3533C37.5342 36.212 37.1638 36.3724 37.0414 36.4252C36.2839 36.7554 34.9725 36.1637 34.5349 35.9116L31.4931 33.7792L31.7424 31.0374L31.6991 30.8716C31.1245 28.6999 29.816 27.8023 28.7969 27.5291C27.6902 25.2363 26.0771 24.8771 25.1769 24.8771C24.9199 24.8771 24.6778 24.9042 24.4583 24.9462C23.8133 22.8468 22.4961 22.5003 21.698 22.5003C20.7462 22.5003 19.8265 22.9868 19.1951 23.4214C18.3039 22.4597 17.3761 21.9733 16.4293 21.9733C15.4035 21.9733 14.4626 22.5379 13.6514 23.6039L2.29668 15.4937L10.9444 2.34949C12.1396 3.18242 14.4902 4.73584 17.2501 6.11479C17.5342 6.25707 17.8703 6.2512 18.1494 6.09852C20.2552 4.94986 23.1769 4.1887 25.509 3.72085C24.9145 4.26921 24.237 4.93004 23.46 5.7404C20.2864 9.0531 21.6691 11.0619 21.871 11.3216C22.6511 12.2268 23.7198 12.7057 24.9611 12.7047C27.6839 12.7047 30.6914 10.3943 31.5591 9.67649L33.9102 9.41541C35.5101 14.9379 41.7363 17.3084 43.0724 17.7579L50.6803 25.3653C50.7241 25.4092 50.7806 25.4322 50.8307 25.4652C50.8063 26.2037 50.6085 26.758 50.2264 27.1058L50.2263 27.1053ZM51.5606 23.4976L44.282 16.2198C44.1682 16.1059 44.0282 16.0224 43.8741 15.9763C43.8023 15.9542 36.656 13.7494 35.6112 8.17732C35.5236 7.71388 35.1189 7.38458 34.6568 7.38458C34.6211 7.38458 34.5854 7.38639 34.5489 7.39045L31.0509 7.77892C30.8522 7.80105 30.6643 7.88462 30.5143 8.01651C29.6497 8.77989 26.9662 10.7619 24.9615 10.7619C24.3043 10.7619 23.8052 10.5559 23.3978 10.1142C23.3296 9.94252 23.0635 8.96143 24.8631 7.08373C28.1461 3.6576 29.5373 3.05329 29.5342 3.05329C29.5554 3.04606 29.5762 3.03793 29.597 3.0289C29.615 3.02122 31.4336 2.25107 33.2516 2.25107C33.556 2.25107 33.8433 2.27321 34.1071 2.31702C35.693 2.58127 41.5262 5.64868 45.0599 7.64569C45.2961 7.7803 45.5794 7.8083 45.8368 7.72474L56.3378 3.56143L61.8892 18.3337L51.5606 23.4976Z" fill="#FF865D"/>
</svg>
