<svg width="65" height="64" viewBox="0 0 65 64" fill="none" xmlns="http://www.w3.org/2000/svg">
<path d="M0.767354 36.5815C1.12953 36.5977 37.3489 38.4152 62.6347 63.7016C62.7909 63.8578 62.9957 63.9359 63.2005 63.9359C63.4053 63.9359 63.6101 63.8578 63.7664 63.7016C64.0794 63.3885 64.0794 62.8829 63.7664 62.5704C60.3121 59.1161 56.6569 56.0961 52.9176 53.4487C56.3234 52.2439 59.8362 51.1808 63.3931 50.3008C63.8217 50.1942 64.0834 49.7606 63.9774 49.3321C63.8708 48.9024 63.4366 48.6407 63.0086 48.7478C59.0232 49.7344 55.0844 50.9381 51.2943 52.3248C49.2781 50.9638 47.244 49.7104 45.2061 48.5537C51.0421 46.3539 57.138 44.6234 63.3533 43.4186C63.7869 43.3344 64.0704 42.9147 63.9861 42.4811C63.9019 42.0475 63.4867 41.763 63.0486 41.8478C56.2942 43.1575 49.6742 45.0715 43.3714 47.5375C41.0483 46.2847 38.7297 45.1541 36.4417 44.1373C47.1414 39.7116 56.8975 37.7255 63.3089 36.8416C63.7464 36.7808 64.0528 36.3779 63.9919 35.9398C63.9328 35.5029 63.5377 35.1948 63.0902 35.2568C56.2989 36.1926 45.8158 38.3422 34.4001 43.2585C31.7338 42.1402 29.1211 41.1698 26.6032 40.3311C45.6018 31.4728 63.0547 30.6323 63.2333 30.6256C63.6747 30.6072 64.0173 30.2339 63.9989 29.793C63.9805 29.3516 63.6039 29.0218 63.1663 29.0274C62.9794 29.0352 44.2734 29.9247 24.3819 39.6173C11.1179 35.4967 1.02473 34.9923 0.833296 34.9844C0.401381 34.9733 0.0191232 35.3086 0.000708905 35.7501C-0.0177069 36.1898 0.324925 36.5626 0.766341 36.581L0.767354 36.5815Z" fill="#FF865D"/>
<path d="M51.2937 63.9392C51.5264 63.9392 51.7569 63.8382 51.9143 63.644C52.1933 63.3008 52.1414 62.7969 51.7982 62.5184C33.401 47.5498 12.0181 42.747 0.909485 41.2141C0.462498 41.1516 0.066854 41.4607 0.00769664 41.8971C-0.0531293 42.3346 0.253241 42.7386 0.690728 42.7989C11.6339 44.3078 32.6937 49.0366 50.7895 63.759C50.939 63.8806 51.1176 63.9392 51.2945 63.9392L51.2937 63.9392Z" fill="#FF865D"/>
<path d="M0.649419 49.3773C10.0356 51.1965 24.0352 55.1776 37.4252 63.8102C37.5597 63.8967 37.7093 63.938 37.8583 63.938C38.1205 63.938 38.3784 63.8086 38.5318 63.5714C38.7712 63.2003 38.6641 62.7048 38.2924 62.4659C24.6875 53.6942 10.4781 49.6523 0.952307 47.8059C0.520392 47.725 0.0996189 48.0057 0.0148043 48.4393C-0.0694588 48.8734 0.214575 49.2925 0.648177 49.3773L0.649419 49.3773Z" fill="#FF865D"/>
<path d="M0.61059 56.2593C8.12176 58.117 15.2921 60.6946 21.9207 63.9194C22.0334 63.9736 22.1528 64.0004 22.27 64.0004C22.5669 64.0004 22.8526 63.8346 22.9899 63.5506C23.1824 63.1533 23.0178 62.6745 22.6204 62.4808C15.8911 59.2074 8.61483 56.5918 0.994664 54.7074C0.566648 54.6008 0.132489 54.8625 0.0259174 55.2916C-0.0812258 55.7191 0.181046 56.1527 0.610176 56.2593L0.61059 56.2593Z" fill="#FF865D"/>
<path d="M38.6541 13.8434C38.6541 9.86508 35.4176 6.62793 31.4381 6.62793C27.4598 6.62793 24.2227 9.86451 24.2227 13.8434C24.2227 17.8217 27.4592 21.0588 31.4381 21.0588C35.4174 21.0577 38.6541 17.8211 38.6541 13.8434ZM31.4393 19.4578C28.3432 19.4578 25.8242 16.9394 25.8242 13.8428C25.8242 10.7462 28.3427 8.22779 31.4393 8.22779C34.5358 8.22779 37.0553 10.7462 37.0553 13.8428C37.0547 16.9394 34.5351 19.4578 31.4393 19.4578Z" fill="#FF865D"/>
<path d="M31.4409 4.33819C31.8834 4.33819 32.2411 3.97993 32.2411 3.53795V0.800231C32.2411 0.35883 31.8834 0 31.4409 0C30.9983 0 30.6406 0.358258 30.6406 0.800231V3.53795C30.6406 3.97936 30.9983 4.33819 31.4409 4.33819Z" fill="#FF865D"/>
<path d="M26.518 4.75362C26.6508 5.05216 26.9427 5.22906 27.2502 5.22906C27.359 5.22906 27.4684 5.20674 27.5744 5.15931C27.9784 4.97907 28.1592 4.50752 27.9806 4.10351L26.8668 1.60293C26.6866 1.19947 26.2156 1.01978 25.811 1.19724C25.407 1.37748 25.2262 1.84903 25.4047 2.25304L26.518 4.75362Z" fill="#FF865D"/>
<path d="M23.2482 7.54148C23.4 7.67932 23.5919 7.74684 23.7834 7.74684C24.0015 7.74684 24.2203 7.65811 24.3777 7.48177C24.6729 7.15364 24.6467 6.64807 24.3185 6.35231L22.2839 4.5203C21.9575 4.2251 21.4497 4.24966 21.1545 4.57945C20.8593 4.90758 20.8855 5.41316 21.2136 5.70891L23.2482 7.54148Z" fill="#FF865D"/>
<path d="M18.7878 10.5742L21.3916 11.4208C21.4742 11.447 21.5562 11.4598 21.6388 11.4598C21.9765 11.4598 22.2895 11.2444 22.3995 10.9068C22.5362 10.4866 22.3057 10.0357 21.8849 9.899L19.2811 9.05245C18.8609 8.91741 18.41 9.1462 18.2733 9.56585C18.1377 9.98605 18.3681 10.437 18.7878 10.5742V10.5742Z" fill="#FF865D"/>
<path d="M18.4695 16.0076C18.4968 16.0076 18.5253 16.0059 18.5538 16.0037L21.2765 15.718C21.7157 15.6716 22.0343 15.2782 21.9885 14.8385C21.9422 14.3999 21.5544 14.0807 21.1091 14.1264L18.3864 14.4122C17.9472 14.4585 17.6285 14.8519 17.6743 15.2916C17.7184 15.7023 18.0644 16.0076 18.4695 16.0076L18.4695 16.0076Z" fill="#FF865D"/>
<path d="M23.2082 18.5955C22.9867 18.2121 22.4962 18.0821 22.1156 18.3025L19.7444 19.6714C19.3611 19.8924 19.2299 20.3818 19.4515 20.764C19.6005 21.0207 19.8683 21.1641 20.1451 21.1641C20.2813 21.1641 20.4186 21.1295 20.5441 21.057L22.9153 19.6881C23.2981 19.4666 23.4292 18.9777 23.2082 18.5955H23.2082Z" fill="#FF865D"/>
<path d="M23.7731 25.196C24.0209 25.196 24.2642 25.0816 24.421 24.8662L26.0305 22.6507C26.2905 22.293 26.2113 21.793 25.8536 21.533C25.4959 21.2729 24.9953 21.3522 24.7369 21.7099L23.1275 23.9253C22.8674 24.283 22.9467 24.783 23.3044 25.0431C23.4461 25.1469 23.6102 25.196 23.7731 25.196Z" fill="#FF865D"/>
<path d="M28.5143 23.7578L27.9451 26.4352C27.8541 26.8671 28.1293 27.2918 28.5617 27.3839C28.6175 27.3961 28.6739 27.4017 28.7292 27.4017C29.0986 27.4017 29.4306 27.1439 29.5115 26.7683L30.0813 24.0898C30.1722 23.6578 29.8971 23.2332 29.4647 23.1411C29.0305 23.0479 28.6075 23.3247 28.5143 23.7577L28.5143 23.7578Z" fill="#FF865D"/>
<path d="M33.4175 23.1417C32.9856 23.2338 32.7093 23.6585 32.8008 24.0904L33.3706 26.7689C33.4515 27.1451 33.7835 27.4023 34.153 27.4023C34.2082 27.4023 34.264 27.3967 34.3204 27.3845C34.7523 27.2924 35.0285 26.8677 34.937 26.4358L34.3673 23.7572C34.2735 23.3248 33.8472 23.0474 33.4175 23.1417H33.4175Z" fill="#FF865D"/>
<path d="M38.4603 24.8646C38.6166 25.08 38.8604 25.1944 39.1082 25.1944C39.2712 25.1944 39.4352 25.1448 39.5781 25.0415C39.9347 24.7815 40.015 24.2815 39.755 23.9238L38.1456 21.7083C37.8866 21.3518 37.3866 21.2725 37.0289 21.5314C36.6723 21.7915 36.592 22.2915 36.852 22.6492L38.4603 24.8646Z" fill="#FF865D"/>
<path d="M42.3359 21.0571C42.4615 21.1297 42.5993 21.1643 42.7349 21.1643C43.0117 21.1643 43.2807 21.0209 43.4286 20.7642C43.6495 20.3808 43.5184 19.8919 43.1356 19.6715L40.7644 18.3027C40.3822 18.0817 39.8922 18.2128 39.6718 18.5956C39.4508 18.9779 39.582 19.4678 39.9648 19.6883L42.3359 21.0571Z" fill="#FF865D"/>
<path d="M41.7726 14.124C41.3373 14.0811 40.94 14.3958 40.8931 14.8361C40.8468 15.2753 41.166 15.6698 41.6052 15.7156L44.3279 16.0013C44.3558 16.0035 44.3837 16.0052 44.4122 16.0052C44.8168 16.0052 45.1633 15.6994 45.2068 15.2881C45.2531 14.8489 44.9339 14.4544 44.4948 14.4086L41.7726 14.124Z" fill="#FF865D"/>
<path d="M40.4809 10.9058C40.5914 11.2434 40.9039 11.4588 41.2415 11.4588C41.3241 11.4588 41.4061 11.4459 41.4887 11.4197L44.0925 10.5732C44.5127 10.4364 44.7432 9.98499 44.6071 9.56535C44.4703 9.14515 44.0183 8.91579 43.5992 9.05195L40.9954 9.89849C40.5741 10.0341 40.3441 10.4856 40.4809 10.9058V10.9058Z" fill="#FF865D"/>
<path d="M39.0984 7.7477C39.2887 7.7477 39.4818 7.67962 39.6336 7.54234L41.6681 5.71034C41.9963 5.41458 42.0225 4.90899 41.7273 4.58088C41.4321 4.25108 40.9243 4.22541 40.5978 4.52173L38.5633 6.35373C38.2351 6.64949 38.2089 7.15508 38.5041 7.48319C38.662 7.65898 38.8802 7.74771 39.0984 7.74771L39.0984 7.7477Z" fill="#FF865D"/>
<path d="M35.3075 5.15954C35.4129 5.20698 35.5234 5.2293 35.6317 5.2293C35.9391 5.2293 36.231 5.0524 36.3638 4.75385L37.4777 2.25327C37.6568 1.84926 37.4754 1.3766 37.0714 1.19747C36.668 1.0189 36.1953 1.1997 36.0156 1.60316L34.9018 4.10374C34.7215 4.50775 34.9034 4.98041 35.3074 5.15954L35.3075 5.15954Z" fill="#FF865D"/>
</svg>
