<svg width="64" height="64" viewBox="0 0 64 64" fill="none" xmlns="http://www.w3.org/2000/svg">
<path d="M5.99121 63.9996C7.9524 63.9996 9.79881 63.236 11.1824 61.8769C12.5654 63.2359 14.4123 63.9996 16.3735 63.9996C18.3353 63.9996 20.1823 63.236 21.5647 61.878C22.9471 63.2359 24.7936 63.9996 26.7553 63.9996C28.7164 63.9996 30.5629 63.236 31.9464 61.8769C33.3289 63.2359 35.1754 63.9996 37.1376 63.9996C39.0988 63.9996 40.9452 63.236 42.3287 61.8769C43.7112 63.2359 45.5577 63.9996 47.5193 63.9996C49.4805 63.9996 51.3269 63.236 52.7105 61.8769C54.094 63.2359 55.9404 63.9996 57.9016 63.9996C60.1752 63.9996 62.2957 62.9725 63.7183 61.1823C63.9929 60.837 63.935 60.3345 63.5896 60.0599C63.2443 59.7865 62.7419 59.845 62.4673 60.1886C61.35 61.5956 59.6856 62.4026 57.9015 62.4026C56.1175 62.4026 54.4531 61.5955 53.3358 60.1886C53.0333 59.8082 52.3878 59.8082 52.0848 60.1886C50.9675 61.5956 49.3037 62.4026 47.519 62.4026C45.7338 62.4026 44.0701 61.5955 42.9533 60.1886C42.8018 59.9981 42.5717 59.8867 42.3278 59.8867C42.0844 59.8867 41.8538 59.9981 41.7023 60.1886C40.5855 61.5956 38.9212 62.4026 37.1371 62.4026C35.3519 62.4026 33.6881 61.5955 32.5714 60.1886C32.4198 59.9987 32.1898 59.8867 31.9459 59.8867C31.7024 59.8867 31.4718 59.9981 31.3203 60.1886C30.203 61.5956 28.5387 62.4026 26.7546 62.4026C24.9694 62.4026 23.3056 61.5955 22.1888 60.1886C21.8864 59.8082 21.2408 59.8082 20.9378 60.1886C19.8216 61.5956 18.1573 62.4026 16.3727 62.4026C14.5886 62.4026 12.9242 61.5955 11.8069 60.1886C11.5045 59.8082 10.8589 59.8082 10.5559 60.1886C9.43858 61.5956 7.77424 62.4026 5.99015 62.4026C4.20606 62.4026 2.54174 61.5955 1.4244 60.1886C1.15091 59.8449 0.646282 59.7865 0.302054 60.0599C-0.0432864 60.3345 -0.101206 60.8364 0.173389 61.1823C1.59596 62.9725 3.71648 63.9996 5.99009 63.9996H5.99121Z" fill="#78BB96"/>
<path d="M63.0888 52.9407H46.1561V34.3098C46.5867 34.644 47.0663 34.9191 47.5954 35.1068C48.8893 35.5652 50.274 35.4934 51.496 34.9041C53.6437 33.8692 54.7344 31.5126 54.2648 29.2779C55.1677 29.2562 56.0511 28.9916 56.8359 28.4987C57.9855 27.7768 58.7848 26.65 59.0861 25.3266C59.3886 24.0032 59.158 22.6408 58.435 21.4916C57.9342 20.694 57.238 20.0651 56.4159 19.6535C56.9612 18.9338 57.3049 18.0788 57.4085 17.1581C57.5605 15.8091 57.1779 14.4817 56.3318 13.4213C55.6166 12.5239 54.6352 11.9068 53.5424 11.6467C53.6655 11.2067 53.7296 10.75 53.7296 10.2905C53.7296 8.15601 52.38 6.28622 50.4249 5.57883C50.4477 5.39001 50.4583 5.20119 50.4583 5.01349C50.4583 2.24908 48.2092 0 45.4448 0C42.6804 0 40.4314 2.24908 40.4314 5.01349C40.4314 5.19339 40.4414 5.37554 40.4625 5.55767C38.4696 6.24389 37.0938 8.12259 37.0938 10.2904C37.0938 10.7599 37.1607 11.2267 37.291 11.6768C36.1258 11.9101 35.0613 12.5462 34.3106 13.4864C32.8245 15.3506 32.864 17.9502 34.2577 19.7565C32.2424 20.7931 31.1 23.0996 31.6276 25.4078C31.9295 26.7312 32.7288 27.8581 33.8778 28.5799C34.6765 29.0812 35.5772 29.3463 36.4956 29.3602C36.3163 30.2447 36.377 31.1649 36.6833 32.0388C37.1317 33.3199 38.0519 34.3503 39.2745 34.938C39.9663 35.2716 40.706 35.4392 41.4501 35.4392C42.0216 35.4392 42.5959 35.3401 43.1501 35.1407C43.6659 34.9552 44.1354 34.684 44.5576 34.3542V52.9395L17.5652 52.9406V45.8429C21.4982 45.5889 25.015 43.4694 27.0843 40.0635C29.2927 36.4292 29.4409 32.0049 27.4708 28.213L17.4644 10.0797C17.182 9.57117 16.3476 9.57117 16.0652 10.0797L6.04995 28.2315C4.08933 32.0057 4.23748 36.4293 6.44597 40.0642C8.51581 43.4714 12.0338 45.5908 15.9677 45.8441V52.9419L0.804656 52.9413C0.363509 52.9413 0.00592041 53.2983 0.00592041 53.7401C0.00592041 54.1812 0.362953 54.5388 0.804656 54.5388H63.0882C63.5294 54.5388 63.887 54.1818 63.887 53.7401C63.8864 53.2983 63.5294 52.9413 63.0877 52.9413L63.0888 52.9407ZM42.6128 33.6382C41.7411 33.9501 40.8036 33.9016 39.9698 33.4995C39.131 33.0962 38.4999 32.39 38.1925 31.5111C37.885 30.6332 37.9385 29.6869 38.3412 28.8503C38.3484 28.8381 38.3768 28.7846 38.3835 28.7723C38.5239 28.4916 38.4865 28.1546 38.2894 27.9112C38.1351 27.7218 37.9067 27.6166 37.6694 27.6166C37.6015 27.6166 37.5335 27.6249 37.4661 27.6433C37.4567 27.6455 37.3692 27.6712 37.3592 27.6745C36.4529 27.8828 35.5183 27.723 34.7297 27.2278C33.9415 26.7326 33.3929 25.9601 33.1857 25.0521C32.759 23.1829 33.9287 21.3153 35.7941 20.8819C35.8142 20.8786 35.8726 20.8697 35.8777 20.8686C36.1879 20.8095 36.4346 20.5723 36.5059 20.2642C36.5767 19.9562 36.4597 19.6348 36.2063 19.4454C36.1985 19.4393 36.1211 19.3847 36.1127 19.3786C34.6111 18.1816 34.3627 15.9842 35.5607 14.482C36.257 13.6092 37.3036 13.1375 38.4219 13.1759C38.7088 13.1954 38.9839 13.0394 39.1349 12.7916C39.2853 12.5426 39.2886 12.2323 39.1444 11.9811C38.8486 11.4659 38.6926 10.8811 38.6926 10.2896C38.6926 8.62469 39.884 7.21105 41.5249 6.92815C41.7472 6.88972 41.9427 6.75882 42.0635 6.56889C42.1844 6.37785 42.2189 6.14557 42.1588 5.92779C42.073 5.62145 42.0301 5.31343 42.0301 5.0132C42.0301 3.12944 43.5624 1.59716 45.4461 1.59716C47.3299 1.59716 48.8622 3.12944 48.8622 5.0132C48.8622 5.31676 48.8187 5.62701 48.7318 5.93559C48.6717 6.15059 48.7046 6.38174 48.8221 6.57167C48.9396 6.76216 49.1323 6.89362 49.3524 6.93484C50.9632 7.23896 52.1329 8.64978 52.1329 10.2896C52.1329 10.8594 51.9892 11.4247 51.7173 11.9232C51.5831 12.1689 51.5881 12.4657 51.729 12.7075C51.87 12.9492 52.1267 13.0996 52.4069 13.1035C53.4557 13.1185 54.431 13.597 55.0838 14.4158C55.6641 15.1432 55.9259 16.0533 55.8223 16.978C55.7176 17.9026 55.2603 18.732 54.534 19.3101C54.5229 19.3173 54.4755 19.3513 54.4644 19.3602C54.2143 19.5512 54.0995 19.8715 54.1725 20.1784C54.2449 20.4847 54.4906 20.7204 54.8002 20.7788C54.8097 20.7805 54.8977 20.795 54.9072 20.7961C55.8151 21.0033 56.5876 21.552 57.0828 22.3401C57.578 23.1277 57.7373 24.0617 57.5295 24.9696C57.3223 25.8775 56.7737 26.65 55.9856 27.1452C55.198 27.6404 54.2628 27.7986 53.3593 27.5919C53.3454 27.5875 53.2886 27.5719 53.2735 27.568C52.9672 27.4973 52.6453 27.6053 52.4525 27.856C52.2593 28.1055 52.232 28.4447 52.3807 28.7221C52.3846 28.7282 52.4275 28.8045 52.4308 28.8112C53.2646 30.543 52.5344 32.6299 50.8033 33.4632C49.9656 33.867 49.0159 33.9138 48.1286 33.6002C47.2591 33.2922 46.5634 32.6734 46.1557 31.8619V29.1588L50.4541 24.8616C50.766 24.5497 50.766 24.0445 50.4541 23.7325C50.1422 23.4206 49.637 23.4206 49.3251 23.7325L46.1557 26.9008V21.6088C46.1557 21.1677 45.7987 20.8101 45.3569 20.8101C44.9158 20.8101 44.5582 21.1671 44.5582 21.6088V26.9002L41.39 23.732C41.0781 23.4201 40.5729 23.4201 40.261 23.732C39.949 24.0439 39.949 24.5491 40.261 24.861L44.5582 29.1583V31.8998C44.1488 32.7147 43.4626 33.3319 42.6126 33.6382L42.6128 33.6382ZM7.81067 39.2337C5.89454 36.0795 5.76592 32.2412 7.45808 28.9839L16.765 12.1168L26.0623 28.9653C27.764 32.2405 27.6352 36.0788 25.7192 39.233C23.9435 42.1561 20.9336 43.9669 17.5647 44.2193V40.171C20.4934 39.8474 22.7781 37.3698 22.7781 34.3682C22.7781 33.9271 22.4211 33.5695 21.9794 33.5695C21.5383 33.5695 21.1807 33.9265 21.1807 34.3682C21.1807 36.487 19.6066 38.2322 17.5641 38.5463L17.5653 25.8162C17.5653 25.3751 17.2082 25.0175 16.7665 25.0175C16.3254 25.0175 15.9678 25.3745 15.9678 25.8162V35.8967C14.0457 35.5814 12.5713 33.9293 12.5713 31.9309C12.5713 31.4898 12.2142 31.1322 11.7725 31.1322C11.3314 31.1322 10.9738 31.4892 10.9738 31.9309C10.9738 34.8128 13.1606 37.1923 15.9678 37.5188V44.2205C12.5985 43.9682 9.58682 42.1574 7.81057 39.2332L7.81067 39.2337Z" fill="#78BB96"/>
</svg>
