<svg width="64" height="57" viewBox="0 0 64 57" fill="none" xmlns="http://www.w3.org/2000/svg">
<path d="M45.6344 0.000327972C42.4346 0.000327972 37.5113 1.45242 31.9983 8.19704C26.46 1.45242 21.5615 0.000327972 18.3622 0.000327972C8.24564 0.000327972 0 8.22183 0 18.3625C0 27.3468 5.46461 36.7735 15.8027 45.6598C23.507 52.2814 31.0884 56.2193 31.4089 56.3919C31.5814 56.4903 31.7782 56.5397 31.975 56.5397C32.1717 56.5397 32.3443 56.4903 32.5163 56.4166C32.8115 56.2688 39.7281 52.8476 47.0887 46.8662C56.91 38.842 62.6698 30.0547 63.7538 21.415C63.9263 20.4059 64 19.3963 64 18.3872C64 8.22124 55.7538 0 45.6378 0L45.6344 0.000327972ZM61.3145 20.9972V21.0466C59.099 38.942 35.912 51.8397 31.9983 53.8822C27.8878 51.6421 2.4606 36.8981 2.4606 18.3632C2.4606 9.60035 9.59883 2.46158 18.3622 2.46158C23.7773 2.46158 28.6265 7.77837 31.0139 10.9293C31.2354 11.2244 31.6047 11.4217 31.9983 11.4217C32.3923 11.4217 32.7369 11.2492 32.9826 10.9293C35.3948 7.75424 40.2192 2.46158 45.6344 2.46158C54.3972 2.46158 61.5359 9.59982 61.5359 18.3632C61.537 19.2244 61.4633 20.1109 61.3155 20.9969L61.3145 20.9972ZM20.799 6.69642C20.8238 7.09047 20.6265 7.90277 19.6421 8.02535C13.2421 8.81294 8.68865 14.6711 9.50093 21.0713C9.62404 21.9819 9.82081 22.9174 10.1165 23.828C10.3132 24.4678 9.96865 25.157 9.30417 25.379C9.18106 25.4285 9.05795 25.4285 8.93484 25.4285C8.41768 25.4285 7.92577 25.0839 7.75321 24.5667C7.43334 23.5082 7.18712 22.4255 7.06401 21.3669C6.15332 14.1056 10.9778 7.41031 17.968 5.81079C18.4357 5.56457 19.0513 5.56457 19.519 5.53985C20.2824 5.53985 20.7496 6.13067 20.799 6.69675L20.799 6.69642Z" fill="#6679DA"/>
</svg>
