<svg width="237" height="91" viewBox="0 0 237 91" fill="none" xmlns="http://www.w3.org/2000/svg">
<g filter="url(#filter0_d_904_7236)">
<rect x="20" y="18.2598" width="196.359" height="50.5126" rx="8" fill="white"/>
</g>
<path d="M36.534 36.1451C36.1641 36.1451 35.8368 36.0693 35.5522 35.9175C35.2724 35.761 35.0518 35.5333 34.8906 35.2345C34.7341 34.9357 34.6558 34.5657 34.6558 34.1246V32.9863C34.6558 32.3271 34.8313 31.8267 35.1823 31.4852C35.5332 31.1389 36.0052 30.9658 36.598 30.9658C37.1862 30.9658 37.6344 31.1271 37.9427 31.4496C38.251 31.7721 38.4051 32.2037 38.4051 32.7444V32.78H37.8146V32.7302C37.8146 32.4931 37.7719 32.282 37.6866 32.097C37.6012 31.912 37.4684 31.7674 37.2881 31.663C37.1079 31.5539 36.8779 31.4994 36.598 31.4994C36.1759 31.4994 35.8463 31.6298 35.6091 31.8907C35.372 32.1468 35.2534 32.5073 35.2534 32.9721V34.1389C35.2534 34.6037 35.372 34.9665 35.6091 35.2274C35.8463 35.4835 36.1783 35.6116 36.6052 35.6116C37.0225 35.6116 37.3285 35.493 37.5229 35.2558C37.7221 35.0187 37.8217 34.7033 37.8217 34.3096V34.1887H36.3135V33.6764H38.4051V36.0455H37.8644V35.5048H37.7648C37.7126 35.6092 37.6391 35.7112 37.5443 35.8108C37.4494 35.9104 37.3213 35.991 37.1601 36.0527C36.9988 36.1143 36.7901 36.1451 36.534 36.1451Z" fill="#808389"/>
<path d="M39.5161 36.0455V32.5666H40.0781V36.0455H39.5161ZM39.8007 32.0259C39.6773 32.0259 39.573 31.9856 39.4876 31.9049C39.407 31.8243 39.3667 31.7223 39.3667 31.599C39.3667 31.4709 39.407 31.3666 39.4876 31.286C39.573 31.2053 39.6773 31.165 39.8007 31.165C39.924 31.165 40.026 31.2053 40.1066 31.286C40.1872 31.3666 40.2275 31.4709 40.2275 31.599C40.2275 31.7223 40.1872 31.8243 40.1066 31.9049C40.026 31.9856 39.924 32.0259 39.8007 32.0259Z" fill="#808389"/>
<path d="M42.1421 36.0455L40.8971 32.5666H41.4947L42.5406 35.6258H42.6402L43.686 32.5666H44.2836L43.0386 36.0455H42.1421Z" fill="#808389"/>
<path d="M46.5498 36.1451C46.1988 36.1451 45.8905 36.0716 45.6249 35.9246C45.3593 35.7728 45.153 35.5618 45.0059 35.2914C44.8589 35.0211 44.7854 34.708 44.7854 34.3523V34.2669C44.7854 33.9065 44.8589 33.5911 45.0059 33.3207C45.153 33.0504 45.3569 32.8417 45.6178 32.6946C45.8786 32.5429 46.1775 32.467 46.5142 32.467C46.8415 32.467 47.1308 32.5381 47.3822 32.6804C47.6335 32.8179 47.8304 33.0172 47.9727 33.278C48.115 33.5389 48.1861 33.8448 48.1861 34.1958V34.4519H45.3474C45.3617 34.8266 45.4826 35.1207 45.7103 35.3341C45.9379 35.5428 46.2225 35.6471 46.564 35.6471C46.8628 35.6471 47.0928 35.5784 47.2541 35.4408C47.4154 35.3033 47.5387 35.1396 47.6241 34.9499L48.1078 35.1847C48.0367 35.3317 47.9371 35.4788 47.809 35.6258C47.6857 35.7728 47.5221 35.8961 47.3181 35.9957C47.1189 36.0953 46.8628 36.1451 46.5498 36.1451ZM45.3545 33.9895H47.6169C47.598 33.6669 47.4865 33.4156 47.2826 33.2353C47.0834 33.0551 46.8272 32.965 46.5142 32.965C46.1964 32.965 45.9356 33.0551 45.7316 33.2353C45.5277 33.4156 45.402 33.6669 45.3545 33.9895Z" fill="#808389"/>
<path d="M49.1664 36.0455V32.5666H49.7143V33.1571H49.8139C49.8898 32.9911 50.0178 32.8417 50.198 32.7089C50.383 32.5713 50.6534 32.5025 51.0091 32.5025C51.27 32.5025 51.5024 32.5571 51.7063 32.6662C51.915 32.7753 52.081 32.9365 52.2043 33.15C52.3276 33.3634 52.3893 33.6266 52.3893 33.9397V36.0455H51.8273V33.9823C51.8273 33.6361 51.7395 33.3847 51.564 33.2282C51.3933 33.0717 51.1609 32.9934 50.8668 32.9934C50.5301 32.9934 50.255 33.1025 50.0415 33.3207C49.8328 33.5389 49.7285 33.8638 49.7285 34.2954V36.0455H49.1664Z" fill="#808389"/>
<path d="M56.6375 36.0455C56.4383 36.0455 56.2841 35.991 56.175 35.8819C56.0707 35.7728 56.0185 35.6234 56.0185 35.4337V33.0575H54.9727V32.5666H56.0185V31.3287H56.5805V32.5666H57.7189V33.0575H56.5805V35.3483C56.5805 35.4906 56.6493 35.5618 56.7869 35.5618H57.5623V36.0455H56.6375Z" fill="#808389"/>
<path d="M58.6292 36.0455V31.0654H59.1913V33.1215H59.2909C59.3383 33.0172 59.4094 32.9199 59.5043 32.8298C59.6039 32.7349 59.7296 32.6567 59.8814 32.595C60.0379 32.5334 60.2347 32.5025 60.4719 32.5025C60.7327 32.5025 60.9651 32.5595 61.1691 32.6733C61.3778 32.7824 61.5438 32.9436 61.6671 33.1571C61.7904 33.3658 61.8521 33.6266 61.8521 33.9397V36.0455H61.29V33.9823C61.29 33.6361 61.2023 33.3847 61.0268 33.2282C60.8561 33.0717 60.6236 32.9934 60.3296 32.9934C59.9928 32.9934 59.7177 33.1025 59.5043 33.3207C59.2956 33.5389 59.1913 33.8638 59.1913 34.2954V36.0455H58.6292Z" fill="#808389"/>
<path d="M64.0596 36.1451C63.8177 36.1451 63.5971 36.1025 63.3979 36.0171C63.1987 35.9317 63.0422 35.8084 62.9284 35.6471C62.8145 35.4859 62.7576 35.289 62.7576 35.0566C62.7576 34.8195 62.8145 34.625 62.9284 34.4732C63.0422 34.3167 63.1987 34.2005 63.3979 34.1246C63.5971 34.044 63.82 34.0037 64.0667 34.0037H65.2406V33.7476C65.2406 33.5009 65.167 33.3065 65.02 33.1642C64.8777 33.0219 64.6643 32.9508 64.3797 32.9508C64.0999 32.9508 63.8817 33.0195 63.7252 33.1571C63.5687 33.2899 63.4619 33.4701 63.405 33.6978L62.8786 33.527C62.9355 33.3326 63.0256 33.1571 63.1489 33.0006C63.2722 32.8393 63.4359 32.7112 63.6398 32.6164C63.8485 32.5168 64.0975 32.467 64.3868 32.467C64.8327 32.467 65.1789 32.5832 65.4255 32.8156C65.6722 33.0432 65.7955 33.3658 65.7955 33.7831V35.3554C65.7955 35.4977 65.8619 35.5689 65.9947 35.5689H66.3148V36.0455H65.8239C65.6674 36.0455 65.5417 36.0029 65.4469 35.9175C65.352 35.8274 65.3046 35.7088 65.3046 35.5618V35.5262H65.2192C65.167 35.6163 65.0959 35.7112 65.0058 35.8108C64.9204 35.9056 64.8018 35.9839 64.6501 36.0455C64.4983 36.1119 64.3014 36.1451 64.0596 36.1451ZM64.1236 35.6614C64.4556 35.6614 64.7236 35.5641 64.9275 35.3697C65.1362 35.1705 65.2406 34.893 65.2406 34.5373V34.459H64.088C63.8651 34.459 63.6801 34.5088 63.5331 34.6084C63.3908 34.7033 63.3197 34.8479 63.3197 35.0424C63.3197 35.2369 63.3932 35.3886 63.5402 35.4977C63.692 35.6068 63.8864 35.6614 64.1236 35.6614Z" fill="#808389"/>
<path d="M68.1359 36.0455C67.9367 36.0455 67.7826 35.991 67.6735 35.8819C67.5691 35.7728 67.517 35.6234 67.517 35.4337V33.0575H66.4711V32.5666H67.517V31.3287H68.079V32.5666H69.2173V33.0575H68.079V35.3483C68.079 35.4906 68.1478 35.5618 68.2853 35.5618H69.0608V36.0455H68.1359Z" fill="#808389"/>
<path d="M72.3747 37.4684V36.9704H74.3667C74.5043 36.9704 74.5731 36.8993 74.5731 36.757V35.4906H74.4734C74.426 35.5902 74.3525 35.6898 74.2529 35.7894C74.158 35.8843 74.0323 35.9625 73.8758 36.0242C73.7193 36.0811 73.5225 36.1096 73.2853 36.1096C73.034 36.1096 72.8016 36.055 72.5881 35.9459C72.3794 35.8368 72.2134 35.6756 72.0901 35.4622C71.9715 35.2487 71.9122 34.9879 71.9122 34.6796V32.5666H72.4743V34.6369C72.4743 34.9784 72.5597 35.2274 72.7304 35.3839C72.9059 35.5404 73.1407 35.6187 73.4347 35.6187C73.7667 35.6187 74.0395 35.5096 74.2529 35.2914C74.4663 35.0732 74.5731 34.7483 74.5731 34.3167V32.5666H75.1351V36.8566C75.1351 37.0463 75.0805 37.1957 74.9715 37.3048C74.8671 37.4139 74.713 37.4684 74.509 37.4684H72.3747Z" fill="#808389"/>
<path d="M77.919 36.1451C77.568 36.1451 77.2574 36.0716 76.987 35.9246C76.7214 35.7776 76.5127 35.5712 76.3609 35.3056C76.2139 35.0353 76.1404 34.7175 76.1404 34.3523V34.2598C76.1404 33.8993 76.2139 33.5839 76.3609 33.3136C76.5127 33.0432 76.7214 32.8346 76.987 32.6875C77.2574 32.5405 77.568 32.467 77.919 32.467C78.27 32.467 78.5783 32.5405 78.8439 32.6875C79.1142 32.8346 79.3229 33.0432 79.47 33.3136C79.6217 33.5839 79.6976 33.8993 79.6976 34.2598V34.3523C79.6976 34.7175 79.6217 35.0353 79.47 35.3056C79.3229 35.5712 79.1142 35.7776 78.8439 35.9246C78.5783 36.0716 78.27 36.1451 77.919 36.1451ZM77.919 35.64C78.289 35.64 78.583 35.5238 78.8012 35.2914C79.0241 35.0543 79.1356 34.7365 79.1356 34.3381V34.274C79.1356 33.8756 79.0241 33.5602 78.8012 33.3278C78.583 33.0907 78.289 32.9721 77.919 32.9721C77.5538 32.9721 77.2597 33.0907 77.0368 33.3278C76.8139 33.5602 76.7024 33.8756 76.7024 34.274V34.3381C76.7024 34.7365 76.8139 35.0543 77.0368 35.2914C77.2597 35.5238 77.5538 35.64 77.919 35.64Z" fill="#808389"/>
<path d="M82.0394 36.1096C81.7881 36.1096 81.5557 36.055 81.3422 35.9459C81.1335 35.8368 80.9675 35.6756 80.8442 35.4622C80.7256 35.244 80.6664 34.9807 80.6664 34.6725V32.5666H81.2284V34.6298C81.2284 34.976 81.3138 35.2274 81.4845 35.3839C81.66 35.5404 81.8948 35.6187 82.1889 35.6187C82.5209 35.6187 82.7936 35.5096 83.007 35.2914C83.2204 35.0732 83.3272 34.7483 83.3272 34.3167V32.5666H83.8892V36.0455H83.3414V35.455H83.2418C83.1659 35.621 83.0355 35.7728 82.8505 35.9104C82.6655 36.0432 82.3952 36.1096 82.0394 36.1096Z" fill="#808389"/>
<path d="M87.9597 36.1451C87.7178 36.1451 87.4972 36.1025 87.298 36.0171C87.0988 35.9317 86.9423 35.8084 86.8285 35.6471C86.7146 35.4859 86.6577 35.289 86.6577 35.0566C86.6577 34.8195 86.7146 34.625 86.8285 34.4732C86.9423 34.3167 87.0988 34.2005 87.298 34.1246C87.4972 34.044 87.7201 34.0037 87.9668 34.0037H89.1407V33.7476C89.1407 33.5009 89.0672 33.3065 88.9201 33.1642C88.7778 33.0219 88.5644 32.9508 88.2798 32.9508C88 32.9508 87.7818 33.0195 87.6253 33.1571C87.4688 33.2899 87.3621 33.4701 87.3051 33.6978L86.7787 33.527C86.8356 33.3326 86.9257 33.1571 87.049 33.0006C87.1723 32.8393 87.336 32.7112 87.5399 32.6164C87.7486 32.5168 87.9976 32.467 88.2869 32.467C88.7328 32.467 89.079 32.5832 89.3256 32.8156C89.5723 33.0432 89.6956 33.3658 89.6956 33.7831V35.3554C89.6956 35.4977 89.762 35.5689 89.8948 35.5689H90.215V36.0455H89.7241C89.5675 36.0455 89.4418 36.0029 89.347 35.9175C89.2521 35.8274 89.2047 35.7088 89.2047 35.5618V35.5262H89.1193C89.0672 35.6163 88.996 35.7112 88.9059 35.8108C88.8205 35.9056 88.7019 35.9839 88.5502 36.0455C88.3984 36.1119 88.2016 36.1451 87.9597 36.1451ZM88.0237 35.6614C88.3557 35.6614 88.6237 35.5641 88.8276 35.3697C89.0363 35.1705 89.1407 34.893 89.1407 34.5373V34.459H87.9881C87.7652 34.459 87.5802 34.5088 87.4332 34.6084C87.2909 34.7033 87.2198 34.8479 87.2198 35.0424C87.2198 35.2369 87.2933 35.3886 87.4403 35.4977C87.5921 35.6068 87.7865 35.6614 88.0237 35.6614Z" fill="#808389"/>
<path d="M90.9847 36.0455V32.5666H91.5325V32.9934H91.6321C91.6938 32.8417 91.7886 32.7302 91.9167 32.6591C92.0448 32.5879 92.2131 32.5523 92.4218 32.5523H92.8345V33.0646H92.3862C92.1349 33.0646 91.9309 33.1357 91.7744 33.278C91.6226 33.4156 91.5467 33.6314 91.5467 33.9254V36.0455H90.9847Z" fill="#808389"/>
<path d="M95.1351 36.1451C94.7841 36.1451 94.4758 36.0716 94.2102 35.9246C93.9446 35.7728 93.7383 35.5618 93.5913 35.2914C93.4442 35.0211 93.3707 34.708 93.3707 34.3523V34.2669C93.3707 33.9065 93.4442 33.5911 93.5913 33.3207C93.7383 33.0504 93.9422 32.8417 94.2031 32.6946C94.464 32.5429 94.7628 32.467 95.0995 32.467C95.4268 32.467 95.7161 32.5381 95.9675 32.6804C96.2189 32.8179 96.4157 33.0172 96.558 33.278C96.7003 33.5389 96.7714 33.8448 96.7714 34.1958V34.4519H93.9328C93.947 34.8266 94.0679 35.1207 94.2956 35.3341C94.5233 35.5428 94.8078 35.6471 95.1493 35.6471C95.4481 35.6471 95.6782 35.5784 95.8394 35.4408C96.0007 35.3033 96.124 35.1396 96.2094 34.9499L96.6932 35.1847C96.622 35.3317 96.5224 35.4788 96.3944 35.6258C96.271 35.7728 96.1074 35.8961 95.9035 35.9957C95.7043 36.0953 95.4481 36.1451 95.1351 36.1451ZM93.9399 33.9895H96.2023C96.1833 33.6669 96.0718 33.4156 95.8679 33.2353C95.6687 33.0551 95.4126 32.965 95.0995 32.965C94.7817 32.965 94.5209 33.0551 94.3169 33.2353C94.113 33.4156 93.9873 33.6669 93.9399 33.9895Z" fill="#808389"/>
<path d="M100.646 36.1451C100.404 36.1451 100.184 36.1025 99.9845 36.0171C99.7853 35.9317 99.6288 35.8084 99.515 35.6471C99.4012 35.4859 99.3442 35.289 99.3442 35.0566C99.3442 34.8195 99.4012 34.625 99.515 34.4732C99.6288 34.3167 99.7853 34.2005 99.9845 34.1246C100.184 34.044 100.407 34.0037 100.653 34.0037H101.827V33.7476C101.827 33.5009 101.754 33.3065 101.607 33.1642C101.464 33.0219 101.251 32.9508 100.966 32.9508C100.687 32.9508 100.468 33.0195 100.312 33.1571C100.155 33.2899 100.049 33.4701 99.9917 33.6978L99.4652 33.527C99.5221 33.3326 99.6122 33.1571 99.7355 33.0006C99.8589 32.8393 100.022 32.7112 100.226 32.6164C100.435 32.5168 100.684 32.467 100.973 32.467C101.419 32.467 101.766 32.5832 102.012 32.8156C102.259 33.0432 102.382 33.3658 102.382 33.7831V35.3554C102.382 35.4977 102.449 35.5689 102.581 35.5689H102.901V36.0455H102.411C102.254 36.0455 102.128 36.0029 102.034 35.9175C101.939 35.8274 101.891 35.7088 101.891 35.5618V35.5262H101.806C101.754 35.6163 101.683 35.7112 101.592 35.8108C101.507 35.9056 101.388 35.9839 101.237 36.0455C101.085 36.1119 100.888 36.1451 100.646 36.1451ZM100.71 35.6614C101.042 35.6614 101.31 35.5641 101.514 35.3697C101.723 35.1705 101.827 34.893 101.827 34.5373V34.459H100.675C100.452 34.459 100.267 34.5088 100.12 34.6084C99.9774 34.7033 99.9063 34.8479 99.9063 35.0424C99.9063 35.2369 99.9798 35.3886 100.127 35.4977C100.279 35.6068 100.473 35.6614 100.71 35.6614Z" fill="#808389"/>
<path d="M107.277 36.1451C106.907 36.1451 106.585 36.0787 106.31 35.9459C106.034 35.8131 105.821 35.6163 105.669 35.3554C105.517 35.0898 105.442 34.7649 105.442 34.3808V31.0654H106.032V34.3879C106.032 34.7958 106.141 35.1017 106.359 35.3056C106.577 35.5096 106.883 35.6116 107.277 35.6116C107.671 35.6116 107.977 35.5096 108.195 35.3056C108.413 35.1017 108.522 34.7958 108.522 34.3879V31.0654H109.12V34.3808C109.12 34.7649 109.044 35.0898 108.892 35.3554C108.74 35.6163 108.524 35.8131 108.245 35.9459C107.97 36.0787 107.647 36.1451 107.277 36.1451Z" fill="#808389"/>
<path d="M110.215 36.0455V31.0654H110.813V33.2353H110.913L113.019 31.0654H113.815L111.389 33.527L113.901 36.0455H113.083L110.913 33.8329H110.813V36.0455H110.215Z" fill="#808389"/>
<path d="M118.334 36.1451C117.974 36.1451 117.692 36.0764 117.488 35.9388C117.289 35.8013 117.144 35.6448 117.054 35.4693H116.954V36.0455H116.406V31.0654H116.968V33.1144H117.068C117.125 33.0053 117.206 32.9033 117.31 32.8085C117.414 32.7089 117.549 32.6282 117.715 32.5666C117.886 32.5002 118.092 32.467 118.334 32.467C118.638 32.467 118.913 32.5405 119.16 32.6875C119.411 32.8298 119.61 33.0361 119.757 33.3065C119.904 33.5721 119.978 33.8899 119.978 34.2598V34.3523C119.978 34.7223 119.902 35.0424 119.75 35.3128C119.603 35.5831 119.404 35.7894 119.153 35.9317C118.906 36.074 118.633 36.1451 118.334 36.1451ZM118.185 35.6471C118.545 35.6471 118.837 35.5333 119.06 35.3056C119.288 35.0732 119.402 34.7507 119.402 34.3381V34.274C119.402 33.8614 119.288 33.5413 119.06 33.3136C118.837 33.0812 118.545 32.965 118.185 32.965C117.829 32.965 117.535 33.0812 117.303 33.3136C117.075 33.5413 116.961 33.8614 116.961 34.274V34.3381C116.961 34.7507 117.075 35.0732 117.303 35.3056C117.535 35.5333 117.829 35.6471 118.185 35.6471Z" fill="#808389"/>
<path d="M122.052 36.1451C121.81 36.1451 121.59 36.1025 121.39 36.0171C121.191 35.9317 121.035 35.8084 120.921 35.6471C120.807 35.4859 120.75 35.289 120.75 35.0566C120.75 34.8195 120.807 34.625 120.921 34.4732C121.035 34.3167 121.191 34.2005 121.39 34.1246C121.59 34.044 121.813 34.0037 122.059 34.0037H123.233V33.7476C123.233 33.5009 123.16 33.3065 123.013 33.1642C122.87 33.0219 122.657 32.9508 122.372 32.9508C122.092 32.9508 121.874 33.0195 121.718 33.1571C121.561 33.2899 121.454 33.4701 121.398 33.6978L120.871 33.527C120.928 33.3326 121.018 33.1571 121.141 33.0006C121.265 32.8393 121.428 32.7112 121.632 32.6164C121.841 32.5168 122.09 32.467 122.379 32.467C122.825 32.467 123.171 32.5832 123.418 32.8156C123.665 33.0432 123.788 33.3658 123.788 33.7831V35.3554C123.788 35.4977 123.854 35.5689 123.987 35.5689H124.307V36.0455H123.816C123.66 36.0455 123.534 36.0029 123.439 35.9175C123.345 35.8274 123.297 35.7088 123.297 35.5618V35.5262H123.212C123.16 35.6163 123.088 35.7112 122.998 35.8108C122.913 35.9056 122.794 35.9839 122.643 36.0455C122.491 36.1119 122.294 36.1451 122.052 36.1451ZM122.116 35.6614C122.448 35.6614 122.716 35.5641 122.92 35.3697C123.129 35.1705 123.233 34.893 123.233 34.5373V34.459H122.081C121.858 34.459 121.673 34.5088 121.526 34.6084C121.383 34.7033 121.312 34.8479 121.312 35.0424C121.312 35.2369 121.386 35.3886 121.533 35.4977C121.684 35.6068 121.879 35.6614 122.116 35.6614Z" fill="#808389"/>
<path d="M126.451 36.1451C126.019 36.1451 125.654 36.0455 125.355 35.8463C125.061 35.6471 124.883 35.3317 124.822 34.9001L125.355 34.7792C125.393 35.0068 125.464 35.1871 125.569 35.3199C125.673 35.4479 125.801 35.5404 125.953 35.5973C126.109 35.6495 126.275 35.6756 126.451 35.6756C126.712 35.6756 126.918 35.6234 127.07 35.5191C127.222 35.4147 127.297 35.2748 127.297 35.0993C127.297 34.9191 127.224 34.7934 127.077 34.7223C126.935 34.6464 126.738 34.5847 126.486 34.5373L126.195 34.4875C125.972 34.4495 125.768 34.3902 125.583 34.3096C125.398 34.229 125.251 34.1199 125.142 33.9823C125.033 33.8448 124.978 33.6717 124.978 33.463C124.978 33.15 125.099 32.9057 125.341 32.7302C125.583 32.5547 125.903 32.467 126.301 32.467C126.695 32.467 127.013 32.5571 127.255 32.7373C127.501 32.9128 127.66 33.1618 127.731 33.4843L127.205 33.6195C127.162 33.3681 127.06 33.1926 126.899 33.093C126.738 32.9887 126.539 32.9365 126.301 32.9365C126.064 32.9365 125.877 32.9816 125.739 33.0717C125.602 33.1571 125.533 33.2851 125.533 33.4559C125.533 33.6219 125.597 33.7452 125.725 33.8258C125.858 33.9017 126.033 33.9586 126.252 33.9966L126.543 34.0464C126.79 34.0891 127.011 34.1484 127.205 34.2242C127.404 34.2954 127.561 34.3997 127.675 34.5373C127.793 34.6748 127.852 34.8551 127.852 35.078C127.852 35.4195 127.724 35.6827 127.468 35.8677C127.217 36.0527 126.878 36.1451 126.451 36.1451Z" fill="#808389"/>
<path d="M130.395 36.1451C130.044 36.1451 129.735 36.0716 129.47 35.9246C129.204 35.7728 128.998 35.5618 128.851 35.2914C128.704 35.0211 128.63 34.708 128.63 34.3523V34.2669C128.63 33.9065 128.704 33.5911 128.851 33.3207C128.998 33.0504 129.202 32.8417 129.463 32.6946C129.724 32.5429 130.022 32.467 130.359 32.467C130.686 32.467 130.976 32.5381 131.227 32.6804C131.478 32.8179 131.675 33.0172 131.818 33.278C131.96 33.5389 132.031 33.8448 132.031 34.1958V34.4519H129.192C129.207 34.8266 129.328 35.1207 129.555 35.3341C129.783 35.5428 130.067 35.6471 130.409 35.6471C130.708 35.6471 130.938 35.5784 131.099 35.4408C131.26 35.3033 131.384 35.1396 131.469 34.9499L131.953 35.1847C131.882 35.3317 131.782 35.4788 131.654 35.6258C131.531 35.7728 131.367 35.8961 131.163 35.9957C130.964 36.0953 130.708 36.1451 130.395 36.1451ZM129.199 33.9895H131.462C131.443 33.6669 131.331 33.4156 131.128 33.2353C130.928 33.0551 130.672 32.965 130.359 32.965C130.041 32.965 129.78 33.0551 129.577 33.2353C129.373 33.4156 129.247 33.6669 129.199 33.9895Z" fill="#808389"/>
<path d="M134.484 36.1451C134.185 36.1451 133.91 36.074 133.659 35.9317C133.407 35.7894 133.208 35.5831 133.061 35.3128C132.914 35.0424 132.841 34.7223 132.841 34.3523V34.2598C132.841 33.8899 132.914 33.5721 133.061 33.3065C133.208 33.0361 133.405 32.8298 133.652 32.6875C133.903 32.5405 134.181 32.467 134.484 32.467C134.726 32.467 134.93 32.5002 135.096 32.5666C135.267 32.6282 135.404 32.7089 135.509 32.8085C135.613 32.9033 135.694 33.0053 135.75 33.1144H135.85V31.0654H136.412V36.0455H135.864V35.4693H135.765C135.67 35.6448 135.523 35.8013 135.324 35.9388C135.124 36.0764 134.845 36.1451 134.484 36.1451ZM134.633 35.6471C134.994 35.6471 135.286 35.5333 135.509 35.3056C135.736 35.0732 135.85 34.7507 135.85 34.3381V34.274C135.85 33.8614 135.736 33.5413 135.509 33.3136C135.286 33.0812 134.994 32.965 134.633 32.965C134.278 32.965 133.984 33.0812 133.751 33.3136C133.524 33.5413 133.41 33.8614 133.41 34.274V34.3381C133.41 34.7507 133.524 35.0732 133.751 35.3056C133.984 35.5333 134.278 35.6471 134.633 35.6471Z" fill="#808389"/>
<path d="M141.018 36.1451C140.681 36.1451 140.378 36.074 140.107 35.9317C139.842 35.7847 139.631 35.576 139.474 35.3056C139.322 35.0353 139.246 34.7151 139.246 34.3452V34.2669C139.246 33.8922 139.322 33.5721 139.474 33.3065C139.631 33.0361 139.842 32.8298 140.107 32.6875C140.378 32.5405 140.681 32.467 141.018 32.467C141.35 32.467 141.632 32.5286 141.865 32.6519C142.102 32.7753 142.287 32.9389 142.419 33.1428C142.557 33.3468 142.645 33.565 142.683 33.7974L142.135 33.9112C142.111 33.7405 142.054 33.5839 141.964 33.4417C141.879 33.2994 141.758 33.1855 141.601 33.1002C141.445 33.0148 141.253 32.9721 141.025 32.9721C140.793 32.9721 140.584 33.0243 140.399 33.1286C140.219 33.233 140.074 33.3824 139.965 33.5768C139.861 33.7713 139.808 34.0037 139.808 34.274V34.3381C139.808 34.6084 139.861 34.8408 139.965 35.0353C140.074 35.2297 140.219 35.3792 140.399 35.4835C140.584 35.5878 140.793 35.64 141.025 35.64C141.371 35.64 141.635 35.5499 141.815 35.3697C142 35.1894 142.114 34.9665 142.156 34.7009L142.711 34.8219C142.659 35.0495 142.564 35.2653 142.427 35.4693C142.289 35.6732 142.102 35.8368 141.865 35.9602C141.632 36.0835 141.35 36.1451 141.018 36.1451Z" fill="#808389"/>
<path d="M145.277 36.1451C144.926 36.1451 144.615 36.0716 144.345 35.9246C144.079 35.7776 143.871 35.5712 143.719 35.3056C143.572 35.0353 143.498 34.7175 143.498 34.3523V34.2598C143.498 33.8993 143.572 33.5839 143.719 33.3136C143.871 33.0432 144.079 32.8346 144.345 32.6875C144.615 32.5405 144.926 32.467 145.277 32.467C145.628 32.467 145.936 32.5405 146.202 32.6875C146.472 32.8346 146.681 33.0432 146.828 33.3136C146.98 33.5839 147.056 33.8993 147.056 34.2598V34.3523C147.056 34.7175 146.98 35.0353 146.828 35.3056C146.681 35.5712 146.472 35.7776 146.202 35.9246C145.936 36.0716 145.628 36.1451 145.277 36.1451ZM145.277 35.64C145.647 35.64 145.941 35.5238 146.159 35.2914C146.382 35.0543 146.494 34.7365 146.494 34.3381V34.274C146.494 33.8756 146.382 33.5602 146.159 33.3278C145.941 33.0907 145.647 32.9721 145.277 32.9721C144.912 32.9721 144.618 33.0907 144.395 33.3278C144.172 33.5602 144.06 33.8756 144.06 34.274V34.3381C144.06 34.7365 144.172 35.0543 144.395 35.2914C144.618 35.5238 144.912 35.64 145.277 35.64Z" fill="#808389"/>
<path d="M148.067 36.0455V32.5666H148.615V33.0006H148.714C148.781 32.8772 148.89 32.7634 149.042 32.6591C149.194 32.5547 149.407 32.5025 149.682 32.5025C149.952 32.5025 150.171 32.5618 150.337 32.6804C150.507 32.799 150.631 32.9436 150.707 33.1144H150.806C150.887 32.9436 151.008 32.799 151.169 32.6804C151.335 32.5618 151.565 32.5025 151.859 32.5025C152.091 32.5025 152.295 32.55 152.471 32.6448C152.646 32.7397 152.784 32.8772 152.884 33.0575C152.988 33.233 153.04 33.444 153.04 33.6907V36.0455H152.478V33.7405C152.478 33.5081 152.409 33.3254 152.272 33.1926C152.139 33.0551 151.952 32.9863 151.71 32.9863C151.454 32.9863 151.242 33.0693 151.076 33.2353C150.915 33.4013 150.835 33.6409 150.835 33.9539V36.0455H150.273V33.7405C150.273 33.5081 150.204 33.3254 150.066 33.1926C149.933 33.0551 149.746 32.9863 149.504 32.9863C149.248 32.9863 149.037 33.0693 148.871 33.2353C148.71 33.4013 148.629 33.6409 148.629 33.9539V36.0455H148.067Z" fill="#808389"/>
<path d="M154.188 37.4684V32.5666H154.736V33.1428H154.835C154.926 32.9674 155.07 32.8108 155.269 32.6733C155.473 32.5357 155.756 32.467 156.116 32.467C156.415 32.467 156.688 32.5405 156.934 32.6875C157.186 32.8298 157.385 33.0338 157.532 33.2994C157.684 33.565 157.759 33.8851 157.759 34.2598V34.3523C157.759 34.7223 157.686 35.0424 157.539 35.3128C157.392 35.5831 157.193 35.7894 156.941 35.9317C156.695 36.074 156.42 36.1451 156.116 36.1451C155.874 36.1451 155.668 36.1119 155.497 36.0455C155.331 35.9839 155.196 35.9033 155.092 35.8036C154.987 35.704 154.907 35.6021 154.85 35.4977H154.75V37.4684H154.188ZM155.967 35.6471C156.327 35.6471 156.619 35.5333 156.842 35.3056C157.069 35.0732 157.183 34.7507 157.183 34.3381V34.274C157.183 33.8614 157.069 33.5413 156.842 33.3136C156.619 33.0812 156.327 32.965 155.967 32.965C155.611 32.965 155.317 33.0812 155.084 33.3136C154.857 33.5413 154.743 33.8614 154.743 34.274V34.3381C154.743 34.7507 154.857 35.0732 155.084 35.3056C155.317 35.5333 155.611 35.6471 155.967 35.6471Z" fill="#808389"/>
<path d="M159.834 36.1451C159.592 36.1451 159.371 36.1025 159.172 36.0171C158.973 35.9317 158.816 35.8084 158.703 35.6471C158.589 35.4859 158.532 35.289 158.532 35.0566C158.532 34.8195 158.589 34.625 158.703 34.4732C158.816 34.3167 158.973 34.2005 159.172 34.1246C159.371 34.044 159.594 34.0037 159.841 34.0037H161.015V33.7476C161.015 33.5009 160.941 33.3065 160.794 33.1642C160.652 33.0219 160.438 32.9508 160.154 32.9508C159.874 32.9508 159.656 33.0195 159.499 33.1571C159.343 33.2899 159.236 33.4701 159.179 33.6978L158.653 33.527C158.71 33.3326 158.8 33.1571 158.923 33.0006C159.046 32.8393 159.21 32.7112 159.414 32.6164C159.623 32.5168 159.872 32.467 160.161 32.467C160.607 32.467 160.953 32.5832 161.2 32.8156C161.446 33.0432 161.57 33.3658 161.57 33.7831V35.3554C161.57 35.4977 161.636 35.5689 161.769 35.5689H162.089V36.0455H161.598C161.442 36.0455 161.316 36.0029 161.221 35.9175C161.126 35.8274 161.079 35.7088 161.079 35.5618V35.5262H160.993C160.941 35.6163 160.87 35.7112 160.78 35.8108C160.695 35.9056 160.576 35.9839 160.424 36.0455C160.272 36.1119 160.076 36.1451 159.834 36.1451ZM159.898 35.6614C160.23 35.6614 160.498 35.5641 160.702 35.3697C160.91 35.1705 161.015 34.893 161.015 34.5373V34.459H159.862C159.639 34.459 159.454 34.5088 159.307 34.6084C159.165 34.7033 159.094 34.8479 159.094 35.0424C159.094 35.2369 159.167 35.3886 159.314 35.4977C159.466 35.6068 159.661 35.6614 159.898 35.6614Z" fill="#808389"/>
<path d="M162.859 36.0455V32.5666H163.407V33.1571H163.506C163.582 32.9911 163.71 32.8417 163.89 32.7089C164.075 32.5713 164.346 32.5025 164.701 32.5025C164.962 32.5025 165.195 32.5571 165.399 32.6662C165.607 32.7753 165.773 32.9365 165.897 33.15C166.02 33.3634 166.082 33.6266 166.082 33.9397V36.0455H165.52V33.9823C165.52 33.6361 165.432 33.3847 165.256 33.2282C165.086 33.0717 164.853 32.9934 164.559 32.9934C164.222 32.9934 163.947 33.1025 163.734 33.3207C163.525 33.5389 163.421 33.8638 163.421 34.2954V36.0455H162.859Z" fill="#808389"/>
<path d="M167.586 37.4684V36.9704H169.578C169.716 36.9704 169.784 36.8993 169.784 36.757V35.4906H169.685C169.637 35.5902 169.564 35.6898 169.464 35.7894C169.369 35.8843 169.244 35.9625 169.087 36.0242C168.931 36.0811 168.734 36.1096 168.497 36.1096C168.245 36.1096 168.013 36.055 167.799 35.9459C167.591 35.8368 167.425 35.6756 167.301 35.4622C167.183 35.2487 167.124 34.9879 167.124 34.6796V32.5666H167.686V34.6369C167.686 34.9784 167.771 35.2274 167.942 35.3839C168.117 35.5404 168.352 35.6187 168.646 35.6187C168.978 35.6187 169.251 35.5096 169.464 35.2914C169.678 35.0732 169.784 34.7483 169.784 34.3167V32.5666H170.346V36.8566C170.346 37.0463 170.292 37.1957 170.183 37.3048C170.079 37.4139 169.924 37.4684 169.72 37.4684H167.586Z" fill="#808389"/>
<path d="M171.466 36.9348V36.5791H171.672C171.843 36.5791 171.928 36.4938 171.928 36.323V36.0953H171.828C171.691 36.0953 171.575 36.0527 171.48 35.9673C171.39 35.8819 171.345 35.7752 171.345 35.6471C171.345 35.5096 171.39 35.3981 171.48 35.3128C171.575 35.2274 171.691 35.1847 171.828 35.1847C171.966 35.1847 172.08 35.2297 172.17 35.3199C172.26 35.41 172.305 35.5238 172.305 35.6614V36.323C172.305 36.7309 172.101 36.9348 171.693 36.9348H171.466Z" fill="#808389"/>
<path d="M176.372 36.1451C176.073 36.1451 175.798 36.074 175.547 35.9317C175.295 35.7894 175.096 35.5831 174.949 35.3128C174.802 35.0424 174.728 34.7223 174.728 34.3523V34.2598C174.728 33.8899 174.802 33.5721 174.949 33.3065C175.096 33.0361 175.293 32.8298 175.539 32.6875C175.791 32.5405 176.068 32.467 176.372 32.467C176.614 32.467 176.818 32.5002 176.984 32.5666C177.154 32.6282 177.292 32.7089 177.396 32.8085C177.501 32.9033 177.581 33.0053 177.638 33.1144H177.738V31.0654H178.3V36.0455H177.752V35.4693H177.652C177.558 35.6448 177.411 35.8013 177.211 35.9388C177.012 36.0764 176.732 36.1451 176.372 36.1451ZM176.521 35.6471C176.882 35.6471 177.173 35.5333 177.396 35.3056C177.624 35.0732 177.738 34.7507 177.738 34.3381V34.274C177.738 33.8614 177.624 33.5413 177.396 33.3136C177.173 33.0812 176.882 32.965 176.521 32.965C176.165 32.965 175.871 33.0812 175.639 33.3136C175.411 33.5413 175.298 33.8614 175.298 34.274V34.3381C175.298 34.7507 175.411 35.0732 175.639 35.3056C175.871 35.5333 176.165 35.6471 176.521 35.6471Z" fill="#808389"/>
<path d="M181.086 36.1451C180.735 36.1451 180.424 36.0716 180.154 35.9246C179.888 35.7776 179.679 35.5712 179.527 35.3056C179.38 35.0353 179.307 34.7175 179.307 34.3523V34.2598C179.307 33.8993 179.38 33.5839 179.527 33.3136C179.679 33.0432 179.888 32.8346 180.154 32.6875C180.424 32.5405 180.735 32.467 181.086 32.467C181.436 32.467 181.745 32.5405 182.01 32.6875C182.281 32.8346 182.489 33.0432 182.636 33.3136C182.788 33.5839 182.864 33.8993 182.864 34.2598V34.3523C182.864 34.7175 182.788 35.0353 182.636 35.3056C182.489 35.5712 182.281 35.7776 182.01 35.9246C181.745 36.0716 181.436 36.1451 181.086 36.1451ZM181.086 35.64C181.455 35.64 181.75 35.5238 181.968 35.2914C182.191 35.0543 182.302 34.7365 182.302 34.3381V34.274C182.302 33.8756 182.191 33.5602 181.968 33.3278C181.75 33.0907 181.455 32.9721 181.086 32.9721C180.72 32.9721 180.426 33.0907 180.203 33.3278C179.98 33.5602 179.869 33.8756 179.869 34.274V34.3381C179.869 34.7365 179.98 35.0543 180.203 35.2914C180.426 35.5238 180.72 35.64 181.086 35.64Z" fill="#808389"/>
<path d="M186.123 37.4684V36.9704H188.115C188.252 36.9704 188.321 36.8993 188.321 36.757V35.4906H188.221C188.174 35.5902 188.1 35.6898 188.001 35.7894C187.906 35.8843 187.78 35.9625 187.624 36.0242C187.467 36.0811 187.27 36.1096 187.033 36.1096C186.782 36.1096 186.549 36.055 186.336 35.9459C186.127 35.8368 185.961 35.6756 185.838 35.4622C185.719 35.2487 185.66 34.9879 185.66 34.6796V32.5666H186.222V34.6369C186.222 34.9784 186.308 35.2274 186.478 35.3839C186.654 35.5404 186.889 35.6187 187.183 35.6187C187.515 35.6187 187.787 35.5096 188.001 35.2914C188.214 35.0732 188.321 34.7483 188.321 34.3167V32.5666H188.883V36.8566C188.883 37.0463 188.828 37.1957 188.719 37.3048C188.615 37.4139 188.461 37.4684 188.257 37.4684H186.123Z" fill="#808389"/>
<path d="M191.667 36.1451C191.316 36.1451 191.005 36.0716 190.735 35.9246C190.469 35.7776 190.261 35.5712 190.109 35.3056C189.962 35.0353 189.888 34.7175 189.888 34.3523V34.2598C189.888 33.8993 189.962 33.5839 190.109 33.3136C190.261 33.0432 190.469 32.8346 190.735 32.6875C191.005 32.5405 191.316 32.467 191.667 32.467C192.018 32.467 192.326 32.5405 192.592 32.6875C192.862 32.8346 193.071 33.0432 193.218 33.3136C193.37 33.5839 193.445 33.8993 193.445 34.2598V34.3523C193.445 34.7175 193.37 35.0353 193.218 35.3056C193.071 35.5712 192.862 35.7776 192.592 35.9246C192.326 36.0716 192.018 36.1451 191.667 36.1451ZM191.667 35.64C192.037 35.64 192.331 35.5238 192.549 35.2914C192.772 35.0543 192.883 34.7365 192.883 34.3381V34.274C192.883 33.8756 192.772 33.5602 192.549 33.3278C192.331 33.0907 192.037 32.9721 191.667 32.9721C191.302 32.9721 191.008 33.0907 190.785 33.3278C190.562 33.5602 190.45 33.8756 190.45 34.274V34.3381C190.45 34.7365 190.562 35.0543 190.785 35.2914C191.008 35.5238 191.302 35.64 191.667 35.64Z" fill="#808389"/>
<path d="M195.787 36.1096C195.536 36.1096 195.304 36.055 195.09 35.9459C194.881 35.8368 194.715 35.6756 194.592 35.4622C194.474 35.244 194.414 34.9807 194.414 34.6725V32.5666H194.976V34.6298C194.976 34.976 195.062 35.2274 195.232 35.3839C195.408 35.5404 195.643 35.6187 195.937 35.6187C196.269 35.6187 196.541 35.5096 196.755 35.2914C196.968 35.0732 197.075 34.7483 197.075 34.3167V32.5666H197.637V36.0455H197.089V35.455H196.99C196.914 35.621 196.783 35.7728 196.598 35.9104C196.413 36.0432 196.143 36.1096 195.787 36.1096Z" fill="#808389"/>
<path d="M35.8866 46.1054C35.6447 46.1054 35.4242 46.0627 35.225 45.9773C35.0258 45.8919 34.8692 45.7686 34.7554 45.6074C34.6416 45.4461 34.5847 45.2493 34.5847 45.0169C34.5847 44.7797 34.6416 44.5853 34.7554 44.4335C34.8692 44.277 35.0258 44.1608 35.225 44.0849C35.4242 44.0042 35.6471 43.9639 35.8937 43.9639H37.0676V43.7078C37.0676 43.4612 36.9941 43.2667 36.8471 43.1244C36.7048 42.9821 36.4913 42.911 36.2068 42.911C35.9269 42.911 35.7087 42.9798 35.5522 43.1173C35.3957 43.2501 35.289 43.4303 35.2321 43.658L34.7056 43.4873C34.7625 43.2928 34.8526 43.1173 34.976 42.9608C35.0993 42.7995 35.2629 42.6715 35.4668 42.5766C35.6755 42.477 35.9245 42.4272 36.2139 42.4272C36.6597 42.4272 37.0059 42.5434 37.2526 42.7758C37.4992 43.0035 37.6225 43.326 37.6225 43.7434V45.3157C37.6225 45.458 37.6889 45.5291 37.8217 45.5291H38.1419V46.0058H37.651C37.4945 46.0058 37.3688 45.9631 37.2739 45.8777C37.1791 45.7876 37.1316 45.669 37.1316 45.522V45.4864H37.0463C36.9941 45.5765 36.9229 45.6714 36.8328 45.771C36.7474 45.8659 36.6289 45.9441 36.4771 46.0058C36.3253 46.0722 36.1285 46.1054 35.8866 46.1054ZM35.9506 45.6216C36.2826 45.6216 36.5506 45.5244 36.7546 45.3299C36.9633 45.1307 37.0676 44.8532 37.0676 44.4975V44.4193H35.9151C35.6921 44.4193 35.5072 44.4691 35.3601 44.5687C35.2178 44.6635 35.1467 44.8082 35.1467 45.0026C35.1467 45.1971 35.2202 45.3489 35.3672 45.458C35.519 45.567 35.7135 45.6216 35.9506 45.6216Z" fill="#808389"/>
<path d="M38.6436 44.2841V44.1845C38.6436 43.8193 38.7171 43.5062 38.8642 43.2454C39.0112 42.9845 39.2104 42.7829 39.4618 42.6406C39.7132 42.4983 39.9882 42.4272 40.2871 42.4272C40.6523 42.4272 40.9321 42.4983 41.1266 42.6406C41.3258 42.7782 41.4728 42.9323 41.5677 43.1031H41.6673V42.5268H42.2008V46.8168C42.2008 47.0065 42.1487 47.1559 42.0443 47.265C41.94 47.3741 41.7882 47.4287 41.589 47.4287H39.227V46.9307H41.4396C41.5819 46.9307 41.653 46.8595 41.653 46.7172V45.3939H41.5534C41.4965 45.4983 41.4159 45.6003 41.3115 45.6999C41.2072 45.7995 41.072 45.8825 40.906 45.9489C40.74 46.0105 40.5337 46.0413 40.2871 46.0413C39.9882 46.0413 39.7132 45.9702 39.4618 45.8279C39.2104 45.6856 39.0112 45.484 38.8642 45.2232C38.7171 44.9576 38.6436 44.6445 38.6436 44.2841ZM40.4365 45.5433C40.7969 45.5433 41.0886 45.4295 41.3115 45.2018C41.5392 44.9742 41.653 44.6611 41.653 44.2627V44.2058C41.653 43.8027 41.5392 43.4896 41.3115 43.2667C41.0886 43.039 40.7969 42.9252 40.4365 42.9252C40.0807 42.9252 39.7867 43.039 39.5543 43.2667C39.3266 43.4896 39.2128 43.8027 39.2128 44.2058V44.2627C39.2128 44.6611 39.3266 44.9742 39.5543 45.2018C39.7867 45.4295 40.0807 45.5433 40.4365 45.5433Z" fill="#808389"/>
<path d="M43.379 46.0058V42.5268H43.9268V42.9537H44.0264C44.0881 42.8019 44.1829 42.6904 44.311 42.6193C44.4391 42.5482 44.6074 42.5126 44.8161 42.5126H45.2288V43.0248H44.7806C44.5292 43.0248 44.3252 43.096 44.1687 43.2383C44.0169 43.3758 43.9411 43.5916 43.9411 43.8857V46.0058H43.379Z" fill="#808389"/>
<path d="M47.5294 46.1054C47.1784 46.1054 46.8701 46.0319 46.6045 45.8848C46.3389 45.7331 46.1326 45.522 45.9856 45.2516C45.8385 44.9813 45.765 44.6683 45.765 44.3125V44.2272C45.765 43.8667 45.8385 43.5513 45.9856 43.2809C46.1326 43.0106 46.3365 42.8019 46.5974 42.6549C46.8583 42.5031 47.1571 42.4272 47.4938 42.4272C47.8211 42.4272 48.1104 42.4983 48.3618 42.6406C48.6132 42.7782 48.81 42.9774 48.9523 43.2383C49.0946 43.4991 49.1657 43.805 49.1657 44.156V44.4121H46.3271C46.3413 44.7868 46.4622 45.0809 46.6899 45.2943C46.9176 45.503 47.2021 45.6074 47.5436 45.6074C47.8424 45.6074 48.0725 45.5386 48.2337 45.401C48.395 45.2635 48.5183 45.0999 48.6037 44.9101L49.0875 45.1449C49.0163 45.292 48.9167 45.439 48.7887 45.586C48.6653 45.7331 48.5017 45.8564 48.2978 45.956C48.0986 46.0556 47.8424 46.1054 47.5294 46.1054ZM46.3342 43.9497H48.5966C48.5776 43.6272 48.4661 43.3758 48.2622 43.1956C48.063 43.0153 47.8069 42.9252 47.4938 42.9252C47.1761 42.9252 46.9152 43.0153 46.7112 43.1956C46.5073 43.3758 46.3816 43.6272 46.3342 43.9497Z" fill="#808389"/>
<path d="M51.7397 46.1054C51.3887 46.1054 51.0804 46.0319 50.8148 45.8848C50.5492 45.7331 50.3429 45.522 50.1959 45.2516C50.0488 44.9813 49.9753 44.6683 49.9753 44.3125V44.2272C49.9753 43.8667 50.0488 43.5513 50.1959 43.2809C50.3429 43.0106 50.5469 42.8019 50.8077 42.6549C51.0686 42.5031 51.3674 42.4272 51.7041 42.4272C52.0314 42.4272 52.3207 42.4983 52.5721 42.6406C52.8235 42.7782 53.0203 42.9774 53.1626 43.2383C53.3049 43.4991 53.376 43.805 53.376 44.156V44.4121H50.5374C50.5516 44.7868 50.6725 45.0809 50.9002 45.2943C51.1279 45.503 51.4124 45.6074 51.7539 45.6074C52.0527 45.6074 52.2828 45.5386 52.444 45.401C52.6053 45.2635 52.7286 45.0999 52.814 44.9101L53.2978 45.1449C53.2266 45.292 53.127 45.439 52.999 45.586C52.8757 45.7331 52.712 45.8564 52.5081 45.956C52.3089 46.0556 52.0527 46.1054 51.7397 46.1054ZM50.5445 43.9497H52.8069C52.7879 43.6272 52.6765 43.3758 52.4725 43.1956C52.2733 43.0153 52.0172 42.9252 51.7041 42.9252C51.3864 42.9252 51.1255 43.0153 50.9216 43.1956C50.7176 43.3758 50.5919 43.6272 50.5445 43.9497Z" fill="#808389"/>
<path d="M57.4642 46.0058C57.265 46.0058 57.1109 45.9512 57.0018 45.8421C56.8974 45.7331 56.8453 45.5836 56.8453 45.3939V43.0177H55.7995V42.5268H56.8453V41.2889H57.4073V42.5268H58.5456V43.0177H57.4073V45.3086C57.4073 45.4508 57.4761 45.522 57.6136 45.522H58.3891V46.0058H57.4642Z" fill="#808389"/>
<path d="M59.456 46.0058V41.0257H60.018V43.0817H60.1176C60.1651 42.9774 60.2362 42.8802 60.3311 42.79C60.4307 42.6952 60.5564 42.6169 60.7081 42.5553C60.8647 42.4936 61.0615 42.4628 61.2986 42.4628C61.5595 42.4628 61.7919 42.5197 61.9959 42.6335C62.2046 42.7426 62.3706 42.9039 62.4939 43.1173C62.6172 43.326 62.6789 43.5869 62.6789 43.8999V46.0058H62.1168V43.9426C62.1168 43.5963 62.0291 43.345 61.8536 43.1885C61.6828 43.0319 61.4504 42.9537 61.1564 42.9537C60.8196 42.9537 60.5445 43.0628 60.3311 43.2809C60.1224 43.4991 60.018 43.824 60.018 44.2556V46.0058H59.456Z" fill="#808389"/>
<path d="M64.8863 46.1054C64.6444 46.1054 64.4239 46.0627 64.2247 45.9773C64.0255 45.8919 63.869 45.7686 63.7551 45.6074C63.6413 45.4461 63.5844 45.2493 63.5844 45.0169C63.5844 44.7797 63.6413 44.5853 63.7551 44.4335C63.869 44.277 64.0255 44.1608 64.2247 44.0849C64.4239 44.0042 64.6468 43.9639 64.8934 43.9639H66.0673V43.7078C66.0673 43.4612 65.9938 43.2667 65.8468 43.1244C65.7045 42.9821 65.4911 42.911 65.2065 42.911C64.9266 42.911 64.7085 42.9798 64.552 43.1173C64.3954 43.2501 64.2887 43.4303 64.2318 43.658L63.7053 43.4873C63.7622 43.2928 63.8524 43.1173 63.9757 42.9608C64.099 42.7995 64.2626 42.6715 64.4666 42.5766C64.6753 42.477 64.9243 42.4272 65.2136 42.4272C65.6594 42.4272 66.0057 42.5434 66.2523 42.7758C66.4989 43.0035 66.6223 43.326 66.6223 43.7434V45.3157C66.6223 45.458 66.6887 45.5291 66.8215 45.5291H67.1416V46.0058H66.6507C66.4942 46.0058 66.3685 45.9631 66.2736 45.8777C66.1788 45.7876 66.1314 45.669 66.1314 45.522V45.4864H66.046C65.9938 45.5765 65.9227 45.6714 65.8326 45.771C65.7472 45.8659 65.6286 45.9441 65.4768 46.0058C65.3251 46.0722 65.1282 46.1054 64.8863 46.1054ZM64.9504 45.6216C65.2824 45.6216 65.5503 45.5244 65.7543 45.3299C65.963 45.1307 66.0673 44.8532 66.0673 44.4975V44.4193H64.9148C64.6919 44.4193 64.5069 44.4691 64.3599 44.5687C64.2176 44.6635 64.1464 44.8082 64.1464 45.0026C64.1464 45.1971 64.2199 45.3489 64.367 45.458C64.5188 45.567 64.7132 45.6216 64.9504 45.6216Z" fill="#808389"/>
<path d="M68.9627 46.0058C68.7635 46.0058 68.6093 45.9512 68.5003 45.8421C68.3959 45.7331 68.3437 45.5836 68.3437 45.3939V43.0177H67.2979V42.5268H68.3437V41.2889H68.9058V42.5268H70.0441V43.0177H68.9058V45.3086C68.9058 45.4508 68.9745 45.522 69.1121 45.522H69.8876V46.0058H68.9627Z" fill="#808389"/>
<path d="M73.8489 46.1054C73.607 46.1054 73.3864 46.0627 73.1872 45.9773C72.988 45.8919 72.8315 45.7686 72.7177 45.6074C72.6038 45.4461 72.5469 45.2493 72.5469 45.0169C72.5469 44.7797 72.6038 44.5853 72.7177 44.4335C72.8315 44.277 72.988 44.1608 73.1872 44.0849C73.3864 44.0042 73.6094 43.9639 73.856 43.9639H75.0299V43.7078C75.0299 43.4612 74.9564 43.2667 74.8093 43.1244C74.667 42.9821 74.4536 42.911 74.169 42.911C73.8892 42.911 73.671 42.9798 73.5145 43.1173C73.358 43.2501 73.2513 43.4303 73.1943 43.658L72.6679 43.4873C72.7248 43.2928 72.8149 43.1173 72.9382 42.9608C73.0615 42.7995 73.2252 42.6715 73.4291 42.5766C73.6378 42.477 73.8868 42.4272 74.1761 42.4272C74.622 42.4272 74.9682 42.5434 75.2149 42.7758C75.4615 43.0035 75.5848 43.326 75.5848 43.7434V45.3157C75.5848 45.458 75.6512 45.5291 75.784 45.5291H76.1042V46.0058H75.6133C75.4567 46.0058 75.3311 45.9631 75.2362 45.8777C75.1413 45.7876 75.0939 45.669 75.0939 45.522V45.4864H75.0085C74.9564 45.5765 74.8852 45.6714 74.7951 45.771C74.7097 45.8659 74.5911 45.9441 74.4394 46.0058C74.2876 46.0722 74.0908 46.1054 73.8489 46.1054ZM73.9129 45.6216C74.2449 45.6216 74.5129 45.5244 74.7168 45.3299C74.9255 45.1307 75.0299 44.8532 75.0299 44.4975V44.4193H73.8773C73.6544 44.4193 73.4694 44.4691 73.3224 44.5687C73.1801 44.6635 73.109 44.8082 73.109 45.0026C73.109 45.1971 73.1825 45.3489 73.3295 45.458C73.4813 45.567 73.6758 45.6216 73.9129 45.6216Z" fill="#808389"/>
<path d="M78.7012 46.0058V41.0257H79.2632V46.0058H78.7012Z" fill="#808389"/>
<path d="M81.5122 46.1054C81.2703 46.1054 81.0498 46.0627 80.8506 45.9773C80.6513 45.8919 80.4948 45.7686 80.381 45.6074C80.2672 45.4461 80.2103 45.2493 80.2103 45.0169C80.2103 44.7797 80.2672 44.5853 80.381 44.4335C80.4948 44.277 80.6513 44.1608 80.8506 44.0849C81.0498 44.0042 81.2727 43.9639 81.5193 43.9639H82.6932V43.7078C82.6932 43.4612 82.6197 43.2667 82.4726 43.1244C82.3304 42.9821 82.1169 42.911 81.8323 42.911C81.5525 42.911 81.3343 42.9798 81.1778 43.1173C81.0213 43.2501 80.9146 43.4303 80.8577 43.658L80.3312 43.4873C80.3881 43.2928 80.4782 43.1173 80.6016 42.9608C80.7249 42.7995 80.8885 42.6715 81.0924 42.5766C81.3011 42.477 81.5501 42.4272 81.8395 42.4272C82.2853 42.4272 82.6315 42.5434 82.8782 42.7758C83.1248 43.0035 83.2481 43.326 83.2481 43.7434V45.3157C83.2481 45.458 83.3145 45.5291 83.4473 45.5291H83.7675V46.0058H83.2766C83.1201 46.0058 82.9944 45.9631 82.8995 45.8777C82.8047 45.7876 82.7572 45.669 82.7572 45.522V45.4864H82.6719C82.6197 45.5765 82.5485 45.6714 82.4584 45.771C82.373 45.8659 82.2545 45.9441 82.1027 46.0058C81.9509 46.0722 81.7541 46.1054 81.5122 46.1054ZM81.5762 45.6216C81.9082 45.6216 82.1762 45.5244 82.3802 45.3299C82.5889 45.1307 82.6932 44.8532 82.6932 44.4975V44.4193H81.5407C81.3177 44.4193 81.1328 44.4691 80.9857 44.5687C80.8434 44.6635 80.7723 44.8082 80.7723 45.0026C80.7723 45.1971 80.8458 45.3489 80.9928 45.458C81.1446 45.567 81.3391 45.6216 81.5762 45.6216Z" fill="#808389"/>
<path d="M84.5372 46.0058V42.5268H85.085V42.9537H85.1846C85.2463 42.8019 85.3412 42.6904 85.4692 42.6193C85.5973 42.5482 85.7657 42.5126 85.9743 42.5126H86.387V43.0248H85.9388C85.6874 43.0248 85.4835 43.096 85.3269 43.2383C85.1752 43.3758 85.0993 43.5916 85.0993 43.8857V46.0058H84.5372Z" fill="#808389"/>
<path d="M86.9232 44.2841V44.1845C86.9232 43.8193 86.9968 43.5062 87.1438 43.2454C87.2908 42.9845 87.49 42.7829 87.7414 42.6406C87.9928 42.4983 88.2679 42.4272 88.5667 42.4272C88.9319 42.4272 89.2117 42.4983 89.4062 42.6406C89.6054 42.7782 89.7524 42.9323 89.8473 43.1031H89.9469V42.5268H90.4805V46.8168C90.4805 47.0065 90.4283 47.1559 90.3239 47.265C90.2196 47.3741 90.0678 47.4287 89.8686 47.4287H87.5066V46.9307H89.7192C89.8615 46.9307 89.9327 46.8595 89.9327 46.7172V45.3939H89.833C89.7761 45.4983 89.6955 45.6003 89.5912 45.6999C89.4868 45.7995 89.3516 45.8825 89.1856 45.9489C89.0196 46.0105 88.8133 46.0413 88.5667 46.0413C88.2679 46.0413 87.9928 45.9702 87.7414 45.8279C87.49 45.6856 87.2908 45.484 87.1438 45.2232C86.9968 44.9576 86.9232 44.6445 86.9232 44.2841ZM88.7161 45.5433C89.0765 45.5433 89.3682 45.4295 89.5912 45.2018C89.8188 44.9742 89.9327 44.6611 89.9327 44.2627V44.2058C89.9327 43.8027 89.8188 43.4896 89.5912 43.2667C89.3682 43.039 89.0765 42.9252 88.7161 42.9252C88.3604 42.9252 88.0663 43.039 87.8339 43.2667C87.6062 43.4896 87.4924 43.8027 87.4924 44.2058V44.2627C87.4924 44.6611 87.6062 44.9742 87.8339 45.2018C88.0663 45.4295 88.3604 45.5433 88.7161 45.5433Z" fill="#808389"/>
<path d="M93.2523 46.1054C92.9013 46.1054 92.593 46.0319 92.3274 45.8848C92.0618 45.7331 91.8555 45.522 91.7084 45.2516C91.5614 44.9813 91.4879 44.6683 91.4879 44.3125V44.2272C91.4879 43.8667 91.5614 43.5513 91.7084 43.2809C91.8555 43.0106 92.0594 42.8019 92.3203 42.6549C92.5811 42.5031 92.8799 42.4272 93.2167 42.4272C93.544 42.4272 93.8333 42.4983 94.0847 42.6406C94.336 42.7782 94.5329 42.9774 94.6752 43.2383C94.8174 43.4991 94.8886 43.805 94.8886 44.156V44.4121H92.0499C92.0642 44.7868 92.1851 45.0809 92.4128 45.2943C92.6404 45.503 92.925 45.6074 93.2665 45.6074C93.5653 45.6074 93.7953 45.5386 93.9566 45.401C94.1179 45.2635 94.2412 45.0999 94.3265 44.9101L94.8103 45.1449C94.7392 45.292 94.6396 45.439 94.5115 45.586C94.3882 45.7331 94.2246 45.8564 94.0206 45.956C93.8214 46.0556 93.5653 46.1054 93.2523 46.1054ZM92.057 43.9497H94.3194C94.3005 43.6272 94.189 43.3758 93.9851 43.1956C93.7859 43.0153 93.5297 42.9252 93.2167 42.9252C92.8989 42.9252 92.6381 43.0153 92.4341 43.1956C92.2302 43.3758 92.1045 43.6272 92.057 43.9497Z" fill="#808389"/>
<path d="M97.6962 47.4287V42.5268H98.244V43.1031H98.3436C98.4337 42.9276 98.5784 42.7711 98.7776 42.6335C98.9815 42.496 99.2637 42.4272 99.6242 42.4272C99.923 42.4272 100.196 42.5007 100.442 42.6478C100.694 42.79 100.893 42.994 101.04 43.2596C101.192 43.5252 101.268 43.8454 101.268 44.22V44.3125C101.268 44.6825 101.194 45.0026 101.047 45.273C100.9 45.5433 100.701 45.7497 100.449 45.8919C100.203 46.0342 99.9278 46.1054 99.6242 46.1054C99.3823 46.1054 99.176 46.0722 99.0052 46.0058C98.8392 45.9441 98.7041 45.8635 98.5997 45.7639C98.4954 45.6643 98.4147 45.5623 98.3578 45.458H98.2582V47.4287H97.6962ZM99.4748 45.6074C99.8353 45.6074 100.127 45.4935 100.35 45.2659C100.578 45.0335 100.691 44.7109 100.691 44.2983V44.2343C100.691 43.8216 100.578 43.5015 100.35 43.2738C100.127 43.0414 99.8353 42.9252 99.4748 42.9252C99.1191 42.9252 98.825 43.0414 98.5926 43.2738C98.3649 43.5015 98.2511 43.8216 98.2511 44.2343V44.2983C98.2511 44.7109 98.3649 45.0335 98.5926 45.2659C98.825 45.4935 99.1191 45.6074 99.4748 45.6074Z" fill="#808389"/>
<path d="M103.342 46.1054C103.1 46.1054 102.879 46.0627 102.68 45.9773C102.481 45.8919 102.325 45.7686 102.211 45.6074C102.097 45.4461 102.04 45.2493 102.04 45.0169C102.04 44.7797 102.097 44.5853 102.211 44.4335C102.325 44.277 102.481 44.1608 102.68 44.0849C102.879 44.0042 103.102 43.9639 103.349 43.9639H104.523V43.7078C104.523 43.4612 104.449 43.2667 104.302 43.1244C104.16 42.9821 103.947 42.911 103.662 42.911C103.382 42.911 103.164 42.9798 103.008 43.1173C102.851 43.2501 102.744 43.4303 102.687 43.658L102.161 43.4873C102.218 43.2928 102.308 43.1173 102.431 42.9608C102.555 42.7995 102.718 42.6715 102.922 42.5766C103.131 42.477 103.38 42.4272 103.669 42.4272C104.115 42.4272 104.461 42.5434 104.708 42.7758C104.955 43.0035 105.078 43.326 105.078 43.7434V45.3157C105.078 45.458 105.144 45.5291 105.277 45.5291H105.597V46.0058H105.106C104.95 46.0058 104.824 45.9631 104.729 45.8777C104.634 45.7876 104.587 45.669 104.587 45.522V45.4864H104.502C104.449 45.5765 104.378 45.6714 104.288 45.771C104.203 45.8659 104.084 45.9441 103.932 46.0058C103.781 46.0722 103.584 46.1054 103.342 46.1054ZM103.406 45.6216C103.738 45.6216 104.006 45.5244 104.21 45.3299C104.419 45.1307 104.523 44.8532 104.523 44.4975V44.4193H103.37C103.147 44.4193 102.962 44.4691 102.815 44.5687C102.673 44.6635 102.602 44.8082 102.602 45.0026C102.602 45.1971 102.676 45.3489 102.823 45.458C102.974 45.567 103.169 45.6216 103.406 45.6216Z" fill="#808389"/>
<path d="M106.367 46.0058V42.5268H106.915V42.9537H107.014C107.076 42.8019 107.171 42.6904 107.299 42.6193C107.427 42.5482 107.595 42.5126 107.804 42.5126H108.217V43.0248H107.768C107.517 43.0248 107.313 43.096 107.157 43.2383C107.005 43.3758 106.929 43.5916 106.929 43.8857V46.0058H106.367Z" fill="#808389"/>
<path d="M110.329 46.0058C110.13 46.0058 109.976 45.9512 109.867 45.8421C109.763 45.7331 109.71 45.5836 109.71 45.3939V43.0177H108.665V42.5268H109.71V41.2889H110.272V42.5268H111.411V43.0177H110.272V45.3086C110.272 45.4508 110.341 45.522 110.479 45.522H111.254V46.0058H110.329Z" fill="#808389"/>
<path d="M115.756 46.1054C115.405 46.1054 115.095 46.0319 114.824 45.8848C114.559 45.7378 114.35 45.5315 114.198 45.2659C114.051 44.9955 113.978 44.6777 113.978 44.3125V44.22C113.978 43.8596 114.051 43.5442 114.198 43.2738C114.35 43.0035 114.559 42.7948 114.824 42.6478C115.095 42.5007 115.405 42.4272 115.756 42.4272C116.107 42.4272 116.415 42.5007 116.681 42.6478C116.951 42.7948 117.16 43.0035 117.307 43.2738C117.459 43.5442 117.535 43.8596 117.535 44.22V44.3125C117.535 44.6777 117.459 44.9955 117.307 45.2659C117.16 45.5315 116.951 45.7378 116.681 45.8848C116.415 46.0319 116.107 46.1054 115.756 46.1054ZM115.756 45.6003C116.126 45.6003 116.42 45.484 116.638 45.2516C116.861 45.0145 116.973 44.6967 116.973 44.2983V44.2343C116.973 43.8359 116.861 43.5205 116.638 43.2881C116.42 43.0509 116.126 42.9323 115.756 42.9323C115.391 42.9323 115.097 43.0509 114.874 43.2881C114.651 43.5205 114.54 43.8359 114.54 44.2343V44.2983C114.54 44.6967 114.651 45.0145 114.874 45.2516C115.097 45.484 115.391 45.6003 115.756 45.6003Z" fill="#808389"/>
<path d="M119.09 46.0058V43.0177H118.023V42.5268H119.09V41.6375C119.09 41.4478 119.142 41.2984 119.247 41.1893C119.356 41.0802 119.51 41.0257 119.709 41.0257H120.584V41.5094H119.866C119.723 41.5094 119.652 41.5806 119.652 41.7229V42.5268H120.748V43.0177H119.652V46.0058H119.09Z" fill="#808389"/>
<path d="M123.802 47.4287V46.9307H125.794C125.931 46.9307 126 46.8595 126 46.7172V45.4508H125.9C125.853 45.5505 125.779 45.6501 125.68 45.7497C125.585 45.8445 125.459 45.9228 125.303 45.9844C125.146 46.0413 124.949 46.0698 124.712 46.0698C124.461 46.0698 124.228 46.0153 124.015 45.9062C123.806 45.7971 123.64 45.6358 123.517 45.4224C123.398 45.209 123.339 44.9481 123.339 44.6398V42.5268H123.901V44.5971C123.901 44.9386 123.987 45.1876 124.157 45.3441C124.333 45.5006 124.568 45.5789 124.862 45.5789C125.194 45.5789 125.466 45.4698 125.68 45.2516C125.893 45.0335 126 44.7086 126 44.277V42.5268H126.562V46.8168C126.562 47.0065 126.507 47.1559 126.398 47.265C126.294 47.3741 126.14 47.4287 125.936 47.4287H123.802Z" fill="#808389"/>
<path d="M129.346 46.1054C128.995 46.1054 128.684 46.0319 128.414 45.8848C128.148 45.7378 127.94 45.5315 127.788 45.2659C127.641 44.9955 127.567 44.6777 127.567 44.3125V44.22C127.567 43.8596 127.641 43.5442 127.788 43.2738C127.94 43.0035 128.148 42.7948 128.414 42.6478C128.684 42.5007 128.995 42.4272 129.346 42.4272C129.697 42.4272 130.005 42.5007 130.271 42.6478C130.541 42.7948 130.75 43.0035 130.897 43.2738C131.049 43.5442 131.125 43.8596 131.125 44.22V44.3125C131.125 44.6777 131.049 44.9955 130.897 45.2659C130.75 45.5315 130.541 45.7378 130.271 45.8848C130.005 46.0319 129.697 46.1054 129.346 46.1054ZM129.346 45.6003C129.716 45.6003 130.01 45.484 130.228 45.2516C130.451 45.0145 130.563 44.6967 130.563 44.2983V44.2343C130.563 43.8359 130.451 43.5205 130.228 43.2881C130.01 43.0509 129.716 42.9323 129.346 42.9323C128.981 42.9323 128.687 43.0509 128.464 43.2881C128.241 43.5205 128.129 43.8359 128.129 44.2343V44.2983C128.129 44.6967 128.241 45.0145 128.464 45.2516C128.687 45.484 128.981 45.6003 129.346 45.6003Z" fill="#808389"/>
<path d="M133.466 46.0698C133.215 46.0698 132.983 46.0153 132.769 45.9062C132.56 45.7971 132.394 45.6358 132.271 45.4224C132.153 45.2042 132.093 44.941 132.093 44.6327V42.5268H132.655V44.59C132.655 44.9362 132.741 45.1876 132.911 45.3441C133.087 45.5006 133.322 45.5789 133.616 45.5789C133.948 45.5789 134.221 45.4698 134.434 45.2516C134.647 45.0335 134.754 44.7086 134.754 44.277V42.5268H135.316V46.0058H134.768V45.4153H134.669C134.593 45.5813 134.462 45.7331 134.277 45.8706C134.092 46.0034 133.822 46.0698 133.466 46.0698Z" fill="#808389"/>
<path d="M136.492 46.0058V42.5268H137.04V42.9537H137.14C137.201 42.8019 137.296 42.6904 137.424 42.6193C137.552 42.5482 137.721 42.5126 137.929 42.5126H138.342V43.0248H137.894C137.642 43.0248 137.438 43.096 137.282 43.2383C137.13 43.3758 137.054 43.5916 137.054 43.8857V46.0058H136.492Z" fill="#808389"/>
<path d="M142.602 46.1054C142.265 46.1054 141.962 46.0342 141.691 45.8919C141.426 45.7449 141.215 45.5362 141.058 45.2659C140.906 44.9955 140.83 44.6754 140.83 44.3054V44.2272C140.83 43.8525 140.906 43.5323 141.058 43.2667C141.215 42.9964 141.426 42.79 141.691 42.6478C141.962 42.5007 142.265 42.4272 142.602 42.4272C142.934 42.4272 143.216 42.4889 143.449 42.6122C143.686 42.7355 143.871 42.8991 144.004 43.1031C144.141 43.307 144.229 43.5252 144.267 43.7576L143.719 43.8714C143.695 43.7007 143.638 43.5442 143.548 43.4019C143.463 43.2596 143.342 43.1458 143.185 43.0604C143.029 42.975 142.837 42.9323 142.609 42.9323C142.377 42.9323 142.168 42.9845 141.983 43.0888C141.803 43.1932 141.658 43.3426 141.549 43.5371C141.445 43.7315 141.393 43.9639 141.393 44.2343V44.2983C141.393 44.5687 141.445 44.8011 141.549 44.9955C141.658 45.19 141.803 45.3394 141.983 45.4437C142.168 45.5481 142.377 45.6003 142.609 45.6003C142.955 45.6003 143.219 45.5101 143.399 45.3299C143.584 45.1497 143.698 44.9267 143.74 44.6611L144.295 44.7821C144.243 45.0098 144.148 45.2256 144.011 45.4295C143.873 45.6335 143.686 45.7971 143.449 45.9204C143.216 46.0437 142.934 46.1054 142.602 46.1054Z" fill="#808389"/>
<path d="M146.32 46.1054C146.079 46.1054 145.858 46.0627 145.659 45.9773C145.46 45.8919 145.303 45.7686 145.189 45.6074C145.075 45.4461 145.018 45.2493 145.018 45.0169C145.018 44.7797 145.075 44.5853 145.189 44.4335C145.303 44.277 145.46 44.1608 145.659 44.0849C145.858 44.0042 146.081 43.9639 146.328 43.9639H147.501V43.7078C147.501 43.4612 147.428 43.2667 147.281 43.1244C147.139 42.9821 146.925 42.911 146.641 42.911C146.361 42.911 146.143 42.9798 145.986 43.1173C145.83 43.2501 145.723 43.4303 145.666 43.658L145.139 43.4873C145.196 43.2928 145.286 43.1173 145.41 42.9608C145.533 42.7995 145.697 42.6715 145.901 42.5766C146.109 42.477 146.358 42.4272 146.648 42.4272C147.094 42.4272 147.44 42.5434 147.686 42.7758C147.933 43.0035 148.056 43.326 148.056 43.7434V45.3157C148.056 45.458 148.123 45.5291 148.256 45.5291H148.576V46.0058H148.085C147.928 46.0058 147.803 45.9631 147.708 45.8777C147.613 45.7876 147.565 45.669 147.565 45.522V45.4864H147.48C147.428 45.5765 147.357 45.6714 147.267 45.771C147.181 45.8659 147.063 45.9441 146.911 46.0058C146.759 46.0722 146.562 46.1054 146.32 46.1054ZM146.384 45.6216C146.716 45.6216 146.984 45.5244 147.188 45.3299C147.397 45.1307 147.501 44.8532 147.501 44.4975V44.4193H146.349C146.126 44.4193 145.941 44.4691 145.794 44.5687C145.652 44.6635 145.581 44.8082 145.581 45.0026C145.581 45.1971 145.654 45.3489 145.801 45.458C145.953 45.567 146.147 45.6216 146.384 45.6216Z" fill="#808389"/>
<path d="M149.345 46.0058V42.5268H149.893V42.9537H149.993C150.055 42.8019 150.149 42.6904 150.277 42.6193C150.406 42.5482 150.574 42.5126 150.783 42.5126H151.195V43.0248H150.747C150.496 43.0248 150.292 43.096 150.135 43.2383C149.983 43.3758 149.907 43.5916 149.907 43.8857V46.0058H149.345Z" fill="#808389"/>
<path d="M153.955 46.1054C153.595 46.1054 153.313 46.0366 153.109 45.8991C152.909 45.7615 152.765 45.605 152.675 45.4295H152.575V46.0058H152.027V41.0257H152.589V43.0746H152.689C152.746 42.9655 152.826 42.8636 152.931 42.7687C153.035 42.6691 153.17 42.5885 153.336 42.5268C153.507 42.4604 153.713 42.4272 153.955 42.4272C154.259 42.4272 154.534 42.5007 154.781 42.6478C155.032 42.79 155.231 42.9964 155.378 43.2667C155.525 43.5323 155.599 43.8501 155.599 44.22V44.3125C155.599 44.6825 155.523 45.0026 155.371 45.273C155.224 45.5433 155.025 45.7497 154.773 45.8919C154.527 46.0342 154.254 46.1054 153.955 46.1054ZM153.806 45.6074C154.166 45.6074 154.458 45.4935 154.681 45.2659C154.909 45.0335 155.022 44.7109 155.022 44.2983V44.2343C155.022 43.8216 154.909 43.5015 154.681 43.2738C154.458 43.0414 154.166 42.9252 153.806 42.9252C153.45 42.9252 153.156 43.0414 152.924 43.2738C152.696 43.5015 152.582 43.8216 152.582 44.2343V44.2983C152.582 44.7109 152.696 45.0335 152.924 45.2659C153.156 45.4935 153.45 45.6074 153.806 45.6074Z" fill="#808389"/>
<path d="M158.214 46.1054C157.863 46.1054 157.552 46.0319 157.282 45.8848C157.016 45.7378 156.807 45.5315 156.656 45.2659C156.509 44.9955 156.435 44.6777 156.435 44.3125V44.22C156.435 43.8596 156.509 43.5442 156.656 43.2738C156.807 43.0035 157.016 42.7948 157.282 42.6478C157.552 42.5007 157.863 42.4272 158.214 42.4272C158.565 42.4272 158.873 42.5007 159.139 42.6478C159.409 42.7948 159.618 43.0035 159.765 43.2738C159.916 43.5442 159.992 43.8596 159.992 44.22V44.3125C159.992 44.6777 159.916 44.9955 159.765 45.2659C159.618 45.5315 159.409 45.7378 159.139 45.8848C158.873 46.0319 158.565 46.1054 158.214 46.1054ZM158.214 45.6003C158.584 45.6003 158.878 45.484 159.096 45.2516C159.319 45.0145 159.43 44.6967 159.43 44.2983V44.2343C159.43 43.8359 159.319 43.5205 159.096 43.2881C158.878 43.0509 158.584 42.9323 158.214 42.9323C157.848 42.9323 157.554 43.0509 157.331 43.2881C157.109 43.5205 156.997 43.8359 156.997 44.2343V44.2983C156.997 44.6967 157.109 45.0145 157.331 45.2516C157.554 45.484 157.848 45.6003 158.214 45.6003Z" fill="#808389"/>
<path d="M161.004 46.0058V42.5268H161.552V43.1173H161.651C161.727 42.9513 161.855 42.8019 162.035 42.6691C162.22 42.5316 162.491 42.4628 162.846 42.4628C163.107 42.4628 163.34 42.5173 163.544 42.6264C163.752 42.7355 163.918 42.8968 164.042 43.1102C164.165 43.3236 164.227 43.5869 164.227 43.8999V46.0058H163.665V43.9426C163.665 43.5963 163.577 43.345 163.401 43.1885C163.231 43.0319 162.998 42.9537 162.704 42.9537C162.367 42.9537 162.092 43.0628 161.879 43.2809C161.67 43.4991 161.566 43.824 161.566 44.2556V46.0058H161.004Z" fill="#808389"/>
<path d="M168.802 46.1054C168.451 46.1054 168.14 46.0319 167.87 45.8848C167.604 45.7378 167.396 45.5315 167.244 45.2659C167.097 44.9955 167.023 44.6777 167.023 44.3125V44.22C167.023 43.8596 167.097 43.5442 167.244 43.2738C167.396 43.0035 167.604 42.7948 167.87 42.6478C168.14 42.5007 168.451 42.4272 168.802 42.4272C169.153 42.4272 169.461 42.5007 169.727 42.6478C169.997 42.7948 170.206 43.0035 170.353 43.2738C170.505 43.5442 170.581 43.8596 170.581 44.22V44.3125C170.581 44.6777 170.505 44.9955 170.353 45.2659C170.206 45.5315 169.997 45.7378 169.727 45.8848C169.461 46.0319 169.153 46.1054 168.802 46.1054ZM168.802 45.6003C169.172 45.6003 169.466 45.484 169.684 45.2516C169.907 45.0145 170.019 44.6967 170.019 44.2983V44.2343C170.019 43.8359 169.907 43.5205 169.684 43.2881C169.466 43.0509 169.172 42.9323 168.802 42.9323C168.437 42.9323 168.143 43.0509 167.92 43.2881C167.697 43.5205 167.585 43.8359 167.585 44.2343V44.2983C167.585 44.6967 167.697 45.0145 167.92 45.2516C168.143 45.484 168.437 45.6003 168.802 45.6003Z" fill="#808389"/>
<path d="M172.136 46.0058V43.0177H171.069V42.5268H172.136V41.6375C172.136 41.4478 172.188 41.2984 172.293 41.1893C172.402 41.0802 172.556 41.0257 172.755 41.0257H173.63V41.5094H172.912C172.769 41.5094 172.698 41.5806 172.698 41.7229V42.5268H173.573V43.0177H172.698V46.0058H172.136ZM174.427 46.0058V43.0177H173.573V42.5268H174.427V41.6375C174.427 41.4478 174.479 41.2984 174.583 41.1893C174.693 41.0802 174.847 41.0257 175.046 41.0257H175.921V41.5094H175.195C175.058 41.5094 174.989 41.5806 174.989 41.7229V42.5268H176.085V43.0177H174.989V46.0058H174.427Z" fill="#808389"/>
<path d="M178.225 46.1054C177.794 46.1054 177.428 46.0058 177.13 45.8066C176.835 45.6074 176.658 45.292 176.596 44.8603L177.13 44.7394C177.167 44.9671 177.239 45.1473 177.343 45.2801C177.447 45.4082 177.575 45.5007 177.727 45.5576C177.884 45.6097 178.05 45.6358 178.225 45.6358C178.486 45.6358 178.692 45.5837 178.844 45.4793C178.996 45.375 179.072 45.235 179.072 45.0596C179.072 44.8793 178.998 44.7536 178.851 44.6825C178.709 44.6066 178.512 44.5449 178.261 44.4975L177.969 44.4477C177.746 44.4098 177.542 44.3505 177.357 44.2698C177.172 44.1892 177.025 44.0801 176.916 43.9426C176.807 43.805 176.752 43.6319 176.752 43.4232C176.752 43.1102 176.873 42.8659 177.115 42.6904C177.357 42.5149 177.677 42.4272 178.076 42.4272C178.469 42.4272 178.787 42.5173 179.029 42.6976C179.276 42.873 179.435 43.1221 179.506 43.4446L178.979 43.5797C178.937 43.3284 178.835 43.1529 178.673 43.0533C178.512 42.9489 178.313 42.8968 178.076 42.8968C177.839 42.8968 177.651 42.9418 177.514 43.0319C177.376 43.1173 177.307 43.2454 177.307 43.4161C177.307 43.5821 177.371 43.7054 177.499 43.7861C177.632 43.862 177.808 43.9189 178.026 43.9568L178.318 44.0066C178.564 44.0493 178.785 44.1086 178.979 44.1845C179.179 44.2556 179.335 44.36 179.449 44.4975C179.567 44.6351 179.627 44.8153 179.627 45.0382C179.627 45.3797 179.499 45.6429 179.243 45.8279C178.991 46.0129 178.652 46.1054 178.225 46.1054Z" fill="#808389"/>
<path d="M182.169 46.1054C181.818 46.1054 181.51 46.0319 181.244 45.8848C180.979 45.7331 180.772 45.522 180.625 45.2516C180.478 44.9813 180.405 44.6683 180.405 44.3125V44.2272C180.405 43.8667 180.478 43.5513 180.625 43.2809C180.772 43.0106 180.976 42.8019 181.237 42.6549C181.498 42.5031 181.797 42.4272 182.133 42.4272C182.461 42.4272 182.75 42.4983 183.001 42.6406C183.253 42.7782 183.45 42.9774 183.592 43.2383C183.734 43.4991 183.805 43.805 183.805 44.156V44.4121H180.967C180.981 44.7868 181.102 45.0809 181.33 45.2943C181.557 45.503 181.842 45.6074 182.183 45.6074C182.482 45.6074 182.712 45.5386 182.873 45.401C183.035 45.2635 183.158 45.0999 183.243 44.9101L183.727 45.1449C183.656 45.292 183.556 45.439 183.428 45.586C183.305 45.7331 183.141 45.8564 182.937 45.956C182.738 46.0556 182.482 46.1054 182.169 46.1054ZM180.974 43.9497H183.236C183.217 43.6272 183.106 43.3758 182.902 43.1956C182.703 43.0153 182.447 42.9252 182.133 42.9252C181.816 42.9252 181.555 43.0153 181.351 43.1956C181.147 43.3758 181.021 43.6272 180.974 43.9497Z" fill="#808389"/>
<path d="M186.066 46.0058C185.867 46.0058 185.713 45.9512 185.604 45.8421C185.5 45.7331 185.447 45.5836 185.447 45.3939V43.0177H184.402V42.5268H185.447V41.2889H186.009V42.5268H186.92V43.0177H186.009V45.3086C186.009 45.4508 186.078 45.522 186.216 45.522H186.991V46.0058H186.066ZM188.357 46.0058C188.158 46.0058 188.004 45.9512 187.895 45.8421C187.786 45.7331 187.731 45.5836 187.731 45.3939V43.0177H186.92V42.5268H187.731V41.2889H188.293V42.5268H189.439V43.0177H188.293V45.3086C188.293 45.4508 188.364 45.522 188.507 45.522H189.282V46.0058H188.357Z" fill="#808389"/>
<path d="M190.351 46.0058V42.5268H190.913V46.0058H190.351ZM190.635 41.9861C190.512 41.9861 190.408 41.9458 190.322 41.8652C190.242 41.7845 190.201 41.6826 190.201 41.5592C190.201 41.4312 190.242 41.3268 190.322 41.2462C190.408 41.1656 190.512 41.1253 190.635 41.1253C190.759 41.1253 190.861 41.1656 190.941 41.2462C191.022 41.3268 191.062 41.4312 191.062 41.5592C191.062 41.6826 191.022 41.7845 190.941 41.8652C190.861 41.9458 190.759 41.9861 190.635 41.9861Z" fill="#808389"/>
<path d="M192.095 46.0058V42.5268H192.643V43.1173H192.742C192.818 42.9513 192.946 42.8019 193.126 42.6691C193.311 42.5316 193.582 42.4628 193.937 42.4628C194.198 42.4628 194.431 42.5173 194.635 42.6264C194.843 42.7355 195.009 42.8968 195.133 43.1102C195.256 43.3236 195.318 43.5869 195.318 43.8999V46.0058H194.756V43.9426C194.756 43.5963 194.668 43.345 194.492 43.1885C194.322 43.0319 194.089 42.9537 193.795 42.9537C193.458 42.9537 193.183 43.0628 192.97 43.2809C192.761 43.4991 192.657 43.824 192.657 44.2556V46.0058H192.095Z" fill="#808389"/>
<path d="M196.287 44.2841V44.1845C196.287 43.8193 196.361 43.5062 196.508 43.2454C196.655 42.9845 196.854 42.7829 197.105 42.6406C197.357 42.4983 197.632 42.4272 197.931 42.4272C198.296 42.4272 198.576 42.4983 198.77 42.6406C198.969 42.7782 199.116 42.9323 199.211 43.1031H199.311V42.5268H199.844V46.8168C199.844 47.0065 199.792 47.1559 199.688 47.265C199.583 47.3741 199.432 47.4287 199.232 47.4287H196.87V46.9307H199.083C199.225 46.9307 199.297 46.8595 199.297 46.7172V45.3939H199.197C199.14 45.4983 199.059 45.6003 198.955 45.6999C198.851 45.7995 198.716 45.8825 198.549 45.9489C198.383 46.0105 198.177 46.0413 197.931 46.0413C197.632 46.0413 197.357 45.9702 197.105 45.8279C196.854 45.6856 196.655 45.484 196.508 45.2232C196.361 44.9576 196.287 44.6445 196.287 44.2841ZM198.08 45.5433C198.44 45.5433 198.732 45.4295 198.955 45.2018C199.183 44.9742 199.297 44.6611 199.297 44.2627V44.2058C199.297 43.8027 199.183 43.4896 198.955 43.2667C198.732 43.039 198.44 42.9252 198.08 42.9252C197.724 42.9252 197.43 43.039 197.198 43.2667C196.97 43.4896 196.856 43.8027 196.856 44.2058V44.2627C196.856 44.6611 196.97 44.9742 197.198 45.2018C197.43 45.4295 197.724 45.5433 198.08 45.5433Z" fill="#808389"/>
<path d="M36.221 56.0656C35.7894 56.0656 35.4242 55.966 35.1254 55.7668C34.8313 55.5676 34.6534 55.2522 34.5918 54.8206L35.1254 54.6996C35.1633 54.9273 35.2344 55.1075 35.3388 55.2403C35.4431 55.3684 35.5712 55.4609 35.723 55.5178C35.8795 55.57 36.0455 55.5961 36.221 55.5961C36.4818 55.5961 36.6882 55.5439 36.8399 55.4395C36.9917 55.3352 37.0676 55.1953 37.0676 55.0198C37.0676 54.8396 36.9941 54.7139 36.8471 54.6427C36.7048 54.5668 36.5079 54.5052 36.2566 54.4577L35.9649 54.4079C35.7419 54.37 35.538 54.3107 35.353 54.2301C35.168 54.1495 35.021 54.0404 34.9119 53.9028C34.8028 53.7653 34.7483 53.5922 34.7483 53.3835C34.7483 53.0704 34.8692 52.8262 35.1111 52.6507C35.353 52.4752 35.6732 52.3874 36.0716 52.3874C36.4652 52.3874 36.783 52.4776 37.0249 52.6578C37.2715 52.8333 37.4304 53.0823 37.5016 53.4048L36.9751 53.54C36.9324 53.2886 36.8305 53.1131 36.6692 53.0135C36.5079 52.9092 36.3087 52.857 36.0716 52.857C35.8344 52.857 35.6471 52.9021 35.5095 52.9922C35.372 53.0775 35.3032 53.2056 35.3032 53.3763C35.3032 53.5424 35.3672 53.6657 35.4953 53.7463C35.6281 53.8222 35.8036 53.8791 36.0218 53.917L36.3135 53.9668C36.5601 54.0095 36.7807 54.0688 36.9751 54.1447C37.1743 54.2159 37.3308 54.3202 37.4447 54.4577C37.5632 54.5953 37.6225 54.7755 37.6225 54.9984C37.6225 55.3399 37.4945 55.6032 37.2383 55.7881C36.987 55.9731 36.6478 56.0656 36.221 56.0656Z" fill="#808389"/>
<path d="M39.7754 55.966C39.5762 55.966 39.422 55.9115 39.3129 55.8024C39.2086 55.6933 39.1564 55.5439 39.1564 55.3542V52.9779H38.1106V52.487H39.1564V51.2491H39.7185V52.487H40.8568V52.9779H39.7185V55.2688C39.7185 55.4111 39.7872 55.4822 39.9248 55.4822H40.7003V55.966H39.7754Z" fill="#808389"/>
<path d="M41.7671 55.966V52.487H42.315V52.9139H42.4146C42.4762 52.7621 42.5711 52.6507 42.6991 52.5795C42.8272 52.5084 42.9956 52.4728 43.2043 52.4728H43.6169V52.9851H43.1687C42.9173 52.9851 42.7134 53.0562 42.5568 53.1985C42.4051 53.336 42.3292 53.5518 42.3292 53.8459V55.966H41.7671Z" fill="#808389"/>
<path d="M45.398 56.0656C45.1561 56.0656 44.9356 56.0229 44.7364 55.9375C44.5372 55.8522 44.3806 55.7289 44.2668 55.5676C44.153 55.4063 44.0961 55.2095 44.0961 54.9771C44.0961 54.74 44.153 54.5455 44.2668 54.3937C44.3806 54.2372 44.5372 54.121 44.7364 54.0451C44.9356 53.9645 45.1585 53.9242 45.4051 53.9242H46.579V53.668C46.579 53.4214 46.5055 53.2269 46.3585 53.0847C46.2162 52.9424 46.0027 52.8712 45.7182 52.8712C45.4383 52.8712 45.2202 52.94 45.0636 53.0775C44.9071 53.2103 44.8004 53.3906 44.7435 53.6182L44.217 53.4475C44.2739 53.253 44.364 53.0775 44.4874 52.921C44.6107 52.7598 44.7743 52.6317 44.9783 52.5368C45.187 52.4372 45.436 52.3874 45.7253 52.3874C46.1711 52.3874 46.5174 52.5036 46.764 52.736C47.0106 52.9637 47.1339 53.2862 47.1339 53.7036V55.2759C47.1339 55.4182 47.2003 55.4893 47.3331 55.4893H47.6533V55.966H47.1624C47.0059 55.966 46.8802 55.9233 46.7853 55.8379C46.6905 55.7478 46.643 55.6293 46.643 55.4822V55.4467H46.5577C46.5055 55.5368 46.4344 55.6316 46.3442 55.7312C46.2589 55.8261 46.1403 55.9044 45.9885 55.966C45.8367 56.0324 45.6399 56.0656 45.398 56.0656ZM45.462 55.5818C45.7941 55.5818 46.062 55.4846 46.266 55.2901C46.4747 55.0909 46.579 54.8135 46.579 54.4577V54.3795H45.4265C45.2036 54.3795 45.0186 54.4293 44.8715 54.5289C44.7293 54.6237 44.6581 54.7684 44.6581 54.9629C44.6581 55.1573 44.7316 55.3091 44.8787 55.4182C45.0304 55.5273 45.2249 55.5818 45.462 55.5818Z" fill="#808389"/>
<path d="M49.4744 55.966C49.2752 55.966 49.121 55.9115 49.0119 55.8024C48.9076 55.6933 48.8554 55.5439 48.8554 55.3542V52.9779H47.8096V52.487H48.8554V51.2491H49.4175V52.487H50.5558V52.9779H49.4175V55.2688C49.4175 55.4111 49.4862 55.4822 49.6238 55.4822H50.3993V55.966H49.4744Z" fill="#808389"/>
<path d="M52.9347 56.0656C52.5837 56.0656 52.2754 55.9921 52.0098 55.8451C51.7442 55.6933 51.5379 55.4822 51.3909 55.2119C51.2439 54.9415 51.1703 54.6285 51.1703 54.2728V54.1874C51.1703 53.8269 51.2439 53.5115 51.3909 53.2412C51.5379 52.9708 51.7419 52.7621 52.0027 52.6151C52.2636 52.4633 52.5624 52.3874 52.8991 52.3874C53.2264 52.3874 53.5157 52.4586 53.7671 52.6009C54.0185 52.7384 54.2153 52.9376 54.3576 53.1985C54.4999 53.4594 54.571 53.7653 54.571 54.1163V54.3724H51.7324C51.7466 54.7471 51.8675 55.0411 52.0952 55.2546C52.3229 55.4633 52.6075 55.5676 52.9489 55.5676C53.2478 55.5676 53.4778 55.4988 53.639 55.3613C53.8003 55.2237 53.9236 55.0601 54.009 54.8704L54.4928 55.1052C54.4216 55.2522 54.322 55.3992 54.194 55.5463C54.0707 55.6933 53.907 55.8166 53.7031 55.9162C53.5039 56.0158 53.2478 56.0656 52.9347 56.0656ZM51.7395 53.9099H54.0019C53.9829 53.5874 53.8715 53.336 53.6675 53.1558C53.4683 52.9756 53.2122 52.8854 52.8991 52.8854C52.5814 52.8854 52.3205 52.9756 52.1166 53.1558C51.9126 53.336 51.7869 53.5874 51.7395 53.9099Z" fill="#808389"/>
<path d="M55.3806 54.2443V54.1447C55.3806 53.7795 55.4542 53.4665 55.6012 53.2056C55.7482 52.9447 55.9474 52.7432 56.1988 52.6009C56.4502 52.4586 56.7253 52.3874 57.0241 52.3874C57.3893 52.3874 57.6691 52.4586 57.8636 52.6009C58.0628 52.7384 58.2098 52.8926 58.3047 53.0633H58.4043V52.487H58.9379V56.7771C58.9379 56.9668 58.8857 57.1162 58.7814 57.2253C58.677 57.3344 58.5252 57.3889 58.326 57.3889H55.964V56.8909H58.1766C58.3189 56.8909 58.3901 56.8197 58.3901 56.6775V55.3542H58.2905C58.2335 55.4585 58.1529 55.5605 58.0486 55.6601C57.9442 55.7597 57.809 55.8427 57.643 55.9091C57.477 55.9708 57.2707 56.0016 57.0241 56.0016C56.7253 56.0016 56.4502 55.9304 56.1988 55.7881C55.9474 55.6459 55.7482 55.4443 55.6012 55.1834C55.4542 54.9178 55.3806 54.6048 55.3806 54.2443ZM57.1735 55.5036C57.534 55.5036 57.8256 55.3897 58.0486 55.1621C58.2762 54.9344 58.3901 54.6214 58.3901 54.223V54.1661C58.3901 53.7629 58.2762 53.4499 58.0486 53.2269C57.8256 52.9993 57.534 52.8854 57.1735 52.8854C56.8178 52.8854 56.5237 52.9993 56.2913 53.2269C56.0636 53.4499 55.9498 53.7629 55.9498 54.1661V54.223C55.9498 54.6214 56.0636 54.9344 56.2913 55.1621C56.5237 55.3897 56.8178 55.5036 57.1735 55.5036Z" fill="#808389"/>
<path d="M60.5358 57.3889V56.8909H62.5278C62.6654 56.8909 62.7342 56.8197 62.7342 56.6775V55.4111H62.6346C62.5871 55.5107 62.5136 55.6103 62.414 55.7099C62.3191 55.8047 62.1935 55.883 62.0369 55.9447C61.8804 56.0016 61.6836 56.03 61.4464 56.03C61.1951 56.03 60.9627 55.9755 60.7492 55.8664C60.5405 55.7573 60.3745 55.5961 60.2512 55.3826C60.1326 55.1692 60.0734 54.9083 60.0734 54.6V52.487H60.6354V54.5573C60.6354 54.8988 60.7208 55.1478 60.8915 55.3044C61.067 55.4609 61.3018 55.5391 61.5958 55.5391C61.9279 55.5391 62.2006 55.4301 62.414 55.2119C62.6274 54.9937 62.7342 54.6688 62.7342 54.2372V52.487H63.2962V56.7771C63.2962 56.9668 63.2417 57.1162 63.1326 57.2253C63.0282 57.3344 62.8741 57.3889 62.6701 57.3889H60.5358Z" fill="#808389"/>
<path d="M63.8818 57.3889L65.9734 50.9859H66.5354L64.4438 57.3889H63.8818Z" fill="#808389"/>
<path d="M67.1054 57.3889V52.487H67.6532V53.0633H67.7528C67.843 52.8878 67.9876 52.7313 68.1868 52.5938C68.3908 52.4562 68.673 52.3874 69.0334 52.3874C69.3323 52.3874 69.605 52.461 69.8516 52.608C70.103 52.7503 70.3022 52.9542 70.4492 53.2198C70.601 53.4854 70.6769 53.8056 70.6769 54.1803V54.2728C70.6769 54.6427 70.6034 54.9629 70.4563 55.2332C70.3093 55.5036 70.1101 55.7099 69.8587 55.8522C69.6121 55.9945 69.337 56.0656 69.0334 56.0656C68.7916 56.0656 68.5852 56.0324 68.4145 55.966C68.2485 55.9044 68.1133 55.8237 68.009 55.7241C67.9046 55.6245 67.824 55.5225 67.7671 55.4182H67.6675V57.3889H67.1054ZM68.884 55.5676C69.2445 55.5676 69.5362 55.4538 69.7591 55.2261C69.9868 54.9937 70.1006 54.6712 70.1006 54.2585V54.1945C70.1006 53.7819 69.9868 53.4617 69.7591 53.2341C69.5362 53.0017 69.2445 52.8854 68.884 52.8854C68.5283 52.8854 68.2343 53.0017 68.0019 53.2341C67.7742 53.4617 67.6604 53.7819 67.6604 54.1945V54.2585C67.6604 54.6712 67.7742 54.9937 68.0019 55.2261C68.2343 55.4538 68.5283 55.5676 68.884 55.5676Z" fill="#808389"/>
<path d="M71.684 55.966V52.487H72.2318V52.9139H72.3314C72.393 52.7621 72.4879 52.6507 72.616 52.5795C72.744 52.5084 72.9124 52.4728 73.1211 52.4728H73.5337V52.9851H73.0855C72.8341 52.9851 72.6302 53.0562 72.4737 53.1985C72.3219 53.336 72.246 53.5518 72.246 53.8459V55.966H71.684Z" fill="#808389"/>
<path d="M75.8486 56.0656C75.4976 56.0656 75.1869 55.9921 74.9166 55.8451C74.651 55.698 74.4423 55.4917 74.2905 55.2261C74.1435 54.9558 74.07 54.638 74.07 54.2728V54.1803C74.07 53.8198 74.1435 53.5044 74.2905 53.2341C74.4423 52.9637 74.651 52.755 74.9166 52.608C75.1869 52.461 75.4976 52.3874 75.8486 52.3874C76.1996 52.3874 76.5079 52.461 76.7735 52.608C77.0438 52.755 77.2525 52.9637 77.3995 53.2341C77.5513 53.5044 77.6272 53.8198 77.6272 54.1803V54.2728C77.6272 54.638 77.5513 54.9558 77.3995 55.2261C77.2525 55.4917 77.0438 55.698 76.7735 55.8451C76.5079 55.9921 76.1996 56.0656 75.8486 56.0656ZM75.8486 55.5605C76.2185 55.5605 76.5126 55.4443 76.7308 55.2119C76.9537 54.9747 77.0652 54.6569 77.0652 54.2585V54.1945C77.0652 53.7961 76.9537 53.4807 76.7308 53.2483C76.5126 53.0111 76.2185 52.8926 75.8486 52.8926C75.4834 52.8926 75.1893 53.0111 74.9664 53.2483C74.7435 53.4807 74.632 53.7961 74.632 54.1945V54.2585C74.632 54.6569 74.7435 54.9747 74.9664 55.2119C75.1893 55.4443 75.4834 55.5605 75.8486 55.5605Z" fill="#808389"/>
<path d="M77.9556 57.3889V56.8909H78.4394C78.5817 56.8909 78.6529 56.8197 78.6529 56.6775V52.487H79.2149V56.7771C79.2149 56.9668 79.1604 57.1162 79.0513 57.2253C78.9469 57.3344 78.7951 57.3889 78.5959 57.3889H77.9556ZM78.9374 51.9463C78.8141 51.9463 78.7098 51.906 78.6244 51.8254C78.5438 51.7448 78.5034 51.6428 78.5034 51.5195C78.5034 51.3914 78.5438 51.2871 78.6244 51.2064C78.7098 51.1258 78.8141 51.0855 78.9374 51.0855C79.0607 51.0855 79.1627 51.1258 79.2434 51.2064C79.324 51.2871 79.3643 51.3914 79.3643 51.5195C79.3643 51.6428 79.324 51.7448 79.2434 51.8254C79.1627 51.906 79.0607 51.9463 78.9374 51.9463Z" fill="#808389"/>
<path d="M81.99 56.0656C81.6391 56.0656 81.3308 55.9921 81.0652 55.8451C80.7995 55.6933 80.5932 55.4822 80.4462 55.2119C80.2992 54.9415 80.2256 54.6285 80.2256 54.2728V54.1874C80.2256 53.8269 80.2992 53.5115 80.4462 53.2412C80.5932 52.9708 80.7972 52.7621 81.058 52.6151C81.3189 52.4633 81.6177 52.3874 81.9545 52.3874C82.2817 52.3874 82.571 52.4586 82.8224 52.6009C83.0738 52.7384 83.2706 52.9376 83.4129 53.1985C83.5552 53.4594 83.6264 53.7653 83.6264 54.1163V54.3724H80.7877C80.8019 54.7471 80.9229 55.0411 81.1505 55.2546C81.3782 55.4633 81.6628 55.5676 82.0043 55.5676C82.3031 55.5676 82.5331 55.4988 82.6944 55.3613C82.8556 55.2237 82.9789 55.0601 83.0643 54.8704L83.5481 55.1052C83.477 55.2522 83.3774 55.3992 83.2493 55.5463C83.126 55.6933 82.9623 55.8166 82.7584 55.9162C82.5592 56.0158 82.3031 56.0656 81.99 56.0656ZM80.7948 53.9099H83.0572C83.0382 53.5874 82.9268 53.336 82.7228 53.1558C82.5236 52.9756 82.2675 52.8854 81.9545 52.8854C81.6367 52.8854 81.3758 52.9756 81.1719 53.1558C80.9679 53.336 80.8422 53.5874 80.7948 53.9099Z" fill="#808389"/>
<path d="M86.2075 56.0656C85.8707 56.0656 85.5672 55.9945 85.2968 55.8522C85.0312 55.7051 84.8201 55.4965 84.6636 55.2261C84.5118 54.9558 84.436 54.6356 84.436 54.2657V54.1874C84.436 53.8127 84.5118 53.4926 84.6636 53.2269C84.8201 52.9566 85.0312 52.7503 85.2968 52.608C85.5672 52.461 85.8707 52.3874 86.2075 52.3874C86.5395 52.3874 86.8217 52.4491 87.0541 52.5724C87.2912 52.6957 87.4762 52.8594 87.609 53.0633C87.7466 53.2673 87.8343 53.4854 87.8722 53.7178L87.3244 53.8317C87.3007 53.6609 87.2438 53.5044 87.1537 53.3621C87.0683 53.2198 86.9474 53.106 86.7908 53.0206C86.6343 52.9353 86.4422 52.8926 86.2146 52.8926C85.9822 52.8926 85.7735 52.9447 85.5885 53.0491C85.4083 53.1534 85.2636 53.3028 85.1545 53.4973C85.0502 53.6918 84.998 53.9242 84.998 54.1945V54.2585C84.998 54.5289 85.0502 54.7613 85.1545 54.9558C85.2636 55.1502 85.4083 55.2996 85.5885 55.404C85.7735 55.5083 85.9822 55.5605 86.2146 55.5605C86.5608 55.5605 86.824 55.4704 87.0043 55.2901C87.1893 55.1099 87.3031 54.887 87.3458 54.6214L87.9007 54.7423C87.8485 54.97 87.7537 55.1858 87.6161 55.3897C87.4786 55.5937 87.2912 55.7573 87.0541 55.8806C86.8217 56.004 86.5395 56.0656 86.2075 56.0656Z" fill="#808389"/>
<path d="M90.0003 55.966C89.8011 55.966 89.647 55.9115 89.5379 55.8024C89.4336 55.6933 89.3814 55.5439 89.3814 55.3542V52.9779H88.3356V52.487H89.3814V51.2491H89.9434V52.487H91.0817V52.9779H89.9434V55.2688C89.9434 55.4111 90.0122 55.4822 90.1498 55.4822H90.9252V55.966H90.0003Z" fill="#808389"/>
<path d="M93.3937 56.0656C92.9621 56.0656 92.5969 55.966 92.298 55.7668C92.004 55.5676 91.8261 55.2522 91.7645 54.8206L92.298 54.6996C92.336 54.9273 92.4071 55.1075 92.5115 55.2403C92.6158 55.3684 92.7439 55.4609 92.8957 55.5178C93.0522 55.57 93.2182 55.5961 93.3937 55.5961C93.6545 55.5961 93.8608 55.5439 94.0126 55.4395C94.1644 55.3352 94.2403 55.1953 94.2403 55.0198C94.2403 54.8396 94.1668 54.7139 94.0197 54.6427C93.8774 54.5668 93.6806 54.5052 93.4292 54.4577L93.1375 54.4079C92.9146 54.37 92.7107 54.3107 92.5257 54.2301C92.3407 54.1495 92.1937 54.0404 92.0846 53.9028C91.9755 53.7653 91.921 53.5922 91.921 53.3835C91.921 53.0704 92.0419 52.8262 92.2838 52.6507C92.5257 52.4752 92.8459 52.3874 93.2443 52.3874C93.6379 52.3874 93.9557 52.4776 94.1976 52.6578C94.4442 52.8333 94.6031 53.0823 94.6743 53.4048L94.1478 53.54C94.1051 53.2886 94.0031 53.1131 93.8419 53.0135C93.6806 52.9092 93.4814 52.857 93.2443 52.857C93.0071 52.857 92.8198 52.9021 92.6822 52.9922C92.5447 53.0775 92.4759 53.2056 92.4759 53.3763C92.4759 53.5424 92.5399 53.6657 92.668 53.7463C92.8008 53.8222 92.9763 53.8791 93.1945 53.917L93.4862 53.9668C93.7328 54.0095 93.9533 54.0688 94.1478 54.1447C94.347 54.2159 94.5035 54.3202 94.6174 54.4577C94.7359 54.5953 94.7952 54.7755 94.7952 54.9984C94.7952 55.3399 94.6672 55.6032 94.411 55.7881C94.1597 55.9731 93.8205 56.0656 93.3937 56.0656Z" fill="#808389"/>
<path d="M98.9727 56.0656C98.5411 56.0656 98.1759 55.966 97.8771 55.7668C97.583 55.5676 97.4051 55.2522 97.3435 54.8206L97.8771 54.6996C97.915 54.9273 97.9861 55.1075 98.0905 55.2403C98.1948 55.3684 98.3229 55.4609 98.4747 55.5178C98.6312 55.57 98.7972 55.5961 98.9727 55.5961C99.2335 55.5961 99.4399 55.5439 99.5916 55.4395C99.7434 55.3352 99.8193 55.1953 99.8193 55.0198C99.8193 54.8396 99.7458 54.7139 99.5987 54.6427C99.4565 54.5668 99.2596 54.5052 99.0082 54.4577L98.7166 54.4079C98.4936 54.37 98.2897 54.3107 98.1047 54.2301C97.9197 54.1495 97.7727 54.0404 97.6636 53.9028C97.5545 53.7653 97.5 53.5922 97.5 53.3835C97.5 53.0704 97.6209 52.8262 97.8628 52.6507C98.1047 52.4752 98.4249 52.3874 98.8233 52.3874C99.2169 52.3874 99.5347 52.4776 99.7766 52.6578C100.023 52.8333 100.182 53.0823 100.253 53.4048L99.7268 53.54C99.6841 53.2886 99.5821 53.1131 99.4209 53.0135C99.2596 52.9092 99.0604 52.857 98.8233 52.857C98.5861 52.857 98.3988 52.9021 98.2612 52.9922C98.1237 53.0775 98.0549 53.2056 98.0549 53.3763C98.0549 53.5424 98.1189 53.6657 98.247 53.7463C98.3798 53.8222 98.5553 53.8791 98.7735 53.917L99.0652 53.9668C99.3118 54.0095 99.5323 54.0688 99.7268 54.1447C99.926 54.2159 100.083 54.3202 100.196 54.4577C100.315 54.5953 100.374 54.7755 100.374 54.9984C100.374 55.3399 100.246 55.6032 99.99 55.7881C99.7387 55.9731 99.3995 56.0656 98.9727 56.0656Z" fill="#808389"/>
<path d="M101.323 55.966V50.9859H101.885V53.042H101.985C102.032 52.9376 102.103 52.8404 102.198 52.7503C102.298 52.6554 102.423 52.5772 102.575 52.5155C102.732 52.4538 102.928 52.423 103.166 52.423C103.426 52.423 103.659 52.4799 103.863 52.5938C104.071 52.7028 104.237 52.8641 104.361 53.0775C104.484 53.2862 104.546 53.5471 104.546 53.8601V55.966H103.984V53.9028C103.984 53.5566 103.896 53.3052 103.72 53.1487C103.55 52.9922 103.317 52.9139 103.023 52.9139C102.686 52.9139 102.411 53.023 102.198 53.2412C101.989 53.4593 101.885 53.7842 101.885 54.2159V55.966H101.323Z" fill="#808389"/>
<path d="M107.294 56.0656C106.943 56.0656 106.632 55.9921 106.362 55.8451C106.096 55.698 105.888 55.4917 105.736 55.2261C105.589 54.9558 105.515 54.638 105.515 54.2728V54.1803C105.515 53.8198 105.589 53.5044 105.736 53.2341C105.888 52.9637 106.096 52.755 106.362 52.608C106.632 52.461 106.943 52.3874 107.294 52.3874C107.645 52.3874 107.953 52.461 108.219 52.608C108.489 52.755 108.698 52.9637 108.845 53.2341C108.997 53.5044 109.073 53.8198 109.073 54.1803V54.2728C109.073 54.638 108.997 54.9558 108.845 55.2261C108.698 55.4917 108.489 55.698 108.219 55.8451C107.953 55.9921 107.645 56.0656 107.294 56.0656ZM107.294 55.5605C107.664 55.5605 107.958 55.4443 108.176 55.2119C108.399 54.9747 108.51 54.6569 108.51 54.2585V54.1945C108.51 53.7961 108.399 53.4807 108.176 53.2483C107.958 53.0111 107.664 52.8926 107.294 52.8926C106.929 52.8926 106.635 53.0111 106.412 53.2483C106.189 53.4807 106.077 53.7961 106.077 54.1945V54.2585C106.077 54.6569 106.189 54.9747 106.412 55.2119C106.635 55.4443 106.929 55.5605 107.294 55.5605Z" fill="#808389"/>
<path d="M111.414 56.03C111.163 56.03 110.931 55.9755 110.717 55.8664C110.508 55.7573 110.342 55.5961 110.219 55.3826C110.101 55.1644 110.041 54.9012 110.041 54.5929V52.487H110.603V54.5502C110.603 54.8965 110.689 55.1478 110.859 55.3044C111.035 55.4609 111.27 55.5391 111.564 55.5391C111.896 55.5391 112.168 55.4301 112.382 55.2119C112.595 54.9937 112.702 54.6688 112.702 54.2372V52.487H113.264V55.966H112.716V55.3755H112.617C112.541 55.5415 112.41 55.6933 112.225 55.8308C112.04 55.9636 111.77 56.03 111.414 56.03Z" fill="#808389"/>
<path d="M114.44 55.966V50.9859H115.002V55.966H114.44Z" fill="#808389"/>
<path d="M117.657 56.0656C117.358 56.0656 117.083 55.9945 116.831 55.8522C116.58 55.7099 116.381 55.5036 116.234 55.2332C116.087 54.9629 116.013 54.6427 116.013 54.2728V54.1803C116.013 53.8103 116.087 53.4926 116.234 53.2269C116.381 52.9566 116.578 52.7503 116.824 52.608C117.076 52.461 117.353 52.3874 117.657 52.3874C117.899 52.3874 118.103 52.4206 118.269 52.487C118.439 52.5487 118.577 52.6293 118.681 52.7289C118.786 52.8238 118.866 52.9258 118.923 53.0349H119.023V50.9859H119.585V55.966H119.037V55.3897H118.937C118.842 55.5652 118.695 55.7217 118.496 55.8593C118.297 55.9968 118.017 56.0656 117.657 56.0656ZM117.806 55.5676C118.167 55.5676 118.458 55.4538 118.681 55.2261C118.909 54.9937 119.023 54.6712 119.023 54.2585V54.1945C119.023 53.7819 118.909 53.4617 118.681 53.2341C118.458 53.0017 118.167 52.8854 117.806 52.8854C117.45 52.8854 117.156 53.0017 116.924 53.2341C116.696 53.4617 116.582 53.7819 116.582 54.1945V54.2585C116.582 54.6712 116.696 54.9937 116.924 55.2261C117.156 55.4538 117.45 55.5676 117.806 55.5676Z" fill="#808389"/>
<path d="M124.518 56.0656C124.157 56.0656 123.875 55.9968 123.671 55.8593C123.472 55.7217 123.327 55.5652 123.237 55.3897H123.138V55.966H122.59V50.9859H123.152V53.0349H123.251C123.308 52.9258 123.389 52.8238 123.493 52.7289C123.598 52.6293 123.733 52.5487 123.899 52.487C124.07 52.4206 124.276 52.3874 124.518 52.3874C124.821 52.3874 125.096 52.461 125.343 52.608C125.594 52.7503 125.794 52.9566 125.941 53.2269C126.088 53.4926 126.161 53.8103 126.161 54.1803V54.2728C126.161 54.6427 126.085 54.9629 125.934 55.2332C125.787 55.5036 125.587 55.7099 125.336 55.8522C125.089 55.9945 124.817 56.0656 124.518 56.0656ZM124.368 55.5676C124.729 55.5676 125.021 55.4538 125.244 55.2261C125.471 54.9937 125.585 54.6712 125.585 54.2585V54.1945C125.585 53.7819 125.471 53.4617 125.244 53.2341C125.021 53.0017 124.729 52.8854 124.368 52.8854C124.013 52.8854 123.719 53.0017 123.486 53.2341C123.259 53.4617 123.145 53.7819 123.145 54.1945V54.2585C123.145 54.6712 123.259 54.9937 123.486 55.2261C123.719 55.4538 124.013 55.5676 124.368 55.5676Z" fill="#808389"/>
<path d="M128.762 56.0656C128.411 56.0656 128.103 55.9921 127.837 55.8451C127.572 55.6933 127.365 55.4822 127.218 55.2119C127.071 54.9415 126.998 54.6285 126.998 54.2728V54.1874C126.998 53.8269 127.071 53.5115 127.218 53.2412C127.365 52.9708 127.569 52.7621 127.83 52.6151C128.091 52.4633 128.39 52.3874 128.726 52.3874C129.054 52.3874 129.343 52.4586 129.594 52.6009C129.846 52.7384 130.043 52.9376 130.185 53.1985C130.327 53.4594 130.398 53.7653 130.398 54.1163V54.3724H127.56C127.574 54.7471 127.695 55.0411 127.922 55.2546C128.15 55.4633 128.435 55.5676 128.776 55.5676C129.075 55.5676 129.305 55.4988 129.466 55.3613C129.628 55.2237 129.751 55.0601 129.836 54.8704L130.32 55.1052C130.249 55.2522 130.149 55.3992 130.021 55.5463C129.898 55.6933 129.734 55.8166 129.53 55.9162C129.331 56.0158 129.075 56.0656 128.762 56.0656ZM127.567 53.9099H129.829C129.81 53.5874 129.699 53.336 129.495 53.1558C129.296 52.9756 129.039 52.8854 128.726 52.8854C128.409 52.8854 128.148 52.9756 127.944 53.1558C127.74 53.336 127.614 53.5874 127.567 53.9099Z" fill="#808389"/>
<path d="M135.134 56.0656C134.773 56.0656 134.491 55.9968 134.287 55.8593C134.088 55.7217 133.943 55.5652 133.853 55.3897H133.754V55.966H133.206V50.9859H133.768V53.0349H133.868C133.924 52.9258 134.005 52.8238 134.109 52.7289C134.214 52.6293 134.349 52.5487 134.515 52.487C134.686 52.4206 134.892 52.3874 135.134 52.3874C135.437 52.3874 135.713 52.461 135.959 52.608C136.211 52.7503 136.41 52.9566 136.557 53.2269C136.704 53.4926 136.777 53.8103 136.777 54.1803V54.2728C136.777 54.6427 136.701 54.9629 136.55 55.2332C136.403 55.5036 136.203 55.7099 135.952 55.8522C135.705 55.9945 135.433 56.0656 135.134 56.0656ZM134.985 55.5676C135.345 55.5676 135.637 55.4538 135.86 55.2261C136.087 54.9937 136.201 54.6712 136.201 54.2585V54.1945C136.201 53.7819 136.087 53.4617 135.86 53.2341C135.637 53.0017 135.345 52.8854 134.985 52.8854C134.629 52.8854 134.335 53.0017 134.102 53.2341C133.875 53.4617 133.761 53.7819 133.761 54.1945V54.2585C133.761 54.6712 133.875 54.9937 134.102 55.2261C134.335 55.4538 134.629 55.5676 134.985 55.5676Z" fill="#808389"/>
<path d="M138.852 56.0656C138.61 56.0656 138.389 56.0229 138.19 55.9375C137.991 55.8522 137.834 55.7289 137.72 55.5676C137.607 55.4063 137.55 55.2095 137.55 54.9771C137.55 54.74 137.607 54.5455 137.72 54.3937C137.834 54.2372 137.991 54.121 138.19 54.0451C138.389 53.9645 138.612 53.9242 138.859 53.9242H140.033V53.668C140.033 53.4214 139.959 53.2269 139.812 53.0847C139.67 52.9424 139.456 52.8712 139.172 52.8712C138.892 52.8712 138.674 52.94 138.517 53.0775C138.361 53.2103 138.254 53.3906 138.197 53.6182L137.671 53.4475C137.728 53.253 137.818 53.0775 137.941 52.921C138.064 52.7598 138.228 52.6317 138.432 52.5368C138.641 52.4372 138.89 52.3874 139.179 52.3874C139.625 52.3874 139.971 52.5036 140.218 52.736C140.464 52.9637 140.588 53.2862 140.588 53.7036V55.2759C140.588 55.4182 140.654 55.4893 140.787 55.4893H141.107V55.966H140.616C140.459 55.966 140.334 55.9233 140.239 55.8379C140.144 55.7478 140.097 55.6293 140.097 55.4822V55.4467H140.011C139.959 55.5368 139.888 55.6316 139.798 55.7312C139.712 55.8261 139.594 55.9044 139.442 55.966C139.29 56.0324 139.094 56.0656 138.852 56.0656ZM138.916 55.5818C139.248 55.5818 139.516 55.4846 139.72 55.2901C139.928 55.0909 140.033 54.8135 140.033 54.4577V54.3795H138.88C138.657 54.3795 138.472 54.4293 138.325 54.5289C138.183 54.6237 138.112 54.7684 138.112 54.9629C138.112 55.1573 138.185 55.3091 138.332 55.4182C138.484 55.5273 138.679 55.5818 138.916 55.5818Z" fill="#808389"/>
<path d="M143.25 56.0656C142.819 56.0656 142.454 55.966 142.155 55.7668C141.861 55.5676 141.683 55.2522 141.621 54.8206L142.155 54.6996C142.193 54.9273 142.264 55.1075 142.368 55.2403C142.473 55.3684 142.601 55.4609 142.752 55.5178C142.909 55.57 143.075 55.5961 143.25 55.5961C143.511 55.5961 143.718 55.5439 143.869 55.4395C144.021 55.3352 144.097 55.1953 144.097 55.0198C144.097 54.8396 144.024 54.7139 143.876 54.6427C143.734 54.5668 143.537 54.5052 143.286 54.4577L142.994 54.4079C142.771 54.37 142.567 54.3107 142.382 54.2301C142.197 54.1495 142.05 54.0404 141.941 53.9028C141.832 53.7653 141.778 53.5922 141.778 53.3835C141.778 53.0704 141.899 52.8262 142.141 52.6507C142.382 52.4752 142.703 52.3874 143.101 52.3874C143.495 52.3874 143.812 52.4776 144.054 52.6578C144.301 52.8333 144.46 53.0823 144.531 53.4048L144.005 53.54C143.962 53.2886 143.86 53.1131 143.699 53.0135C143.537 52.9092 143.338 52.857 143.101 52.857C142.864 52.857 142.677 52.9021 142.539 52.9922C142.401 53.0775 142.333 53.2056 142.333 53.3763C142.333 53.5424 142.397 53.6657 142.525 53.7463C142.658 53.8222 142.833 53.8791 143.051 53.917L143.343 53.9668C143.59 54.0095 143.81 54.0688 144.005 54.1447C144.204 54.2159 144.36 54.3202 144.474 54.4577C144.593 54.5953 144.652 54.7755 144.652 54.9984C144.652 55.3399 144.524 55.6032 144.268 55.7881C144.016 55.9731 143.677 56.0656 143.25 56.0656Z" fill="#808389"/>
<path d="M147.194 56.0656C146.843 56.0656 146.535 55.9921 146.269 55.8451C146.004 55.6933 145.797 55.4822 145.65 55.2119C145.503 54.9415 145.43 54.6285 145.43 54.2728V54.1874C145.43 53.8269 145.503 53.5115 145.65 53.2412C145.797 52.9708 146.001 52.7621 146.262 52.6151C146.523 52.4633 146.822 52.3874 147.159 52.3874C147.486 52.3874 147.775 52.4586 148.027 52.6009C148.278 52.7384 148.475 52.9376 148.617 53.1985C148.759 53.4594 148.831 53.7653 148.831 54.1163V54.3724H145.992C146.006 54.7471 146.127 55.0411 146.355 55.2546C146.582 55.4633 146.867 55.5676 147.208 55.5676C147.507 55.5676 147.737 55.4988 147.899 55.3613C148.06 55.2237 148.183 55.0601 148.269 54.8704L148.752 55.1052C148.681 55.2522 148.582 55.3992 148.454 55.5463C148.33 55.6933 148.167 55.8166 147.963 55.9162C147.763 56.0158 147.507 56.0656 147.194 56.0656ZM145.999 53.9099H148.261C148.242 53.5874 148.131 53.336 147.927 53.1558C147.728 52.9756 147.472 52.8854 147.159 52.8854C146.841 52.8854 146.58 52.9756 146.376 53.1558C146.172 53.336 146.046 53.5874 145.999 53.9099Z" fill="#808389"/>
<path d="M151.284 56.0656C150.985 56.0656 150.71 55.9945 150.458 55.8522C150.207 55.7099 150.008 55.5036 149.861 55.2332C149.714 54.9629 149.64 54.6427 149.64 54.2728V54.1803C149.64 53.8103 149.714 53.4926 149.861 53.2269C150.008 52.9566 150.205 52.7503 150.451 52.608C150.703 52.461 150.98 52.3874 151.284 52.3874C151.526 52.3874 151.729 52.4206 151.895 52.487C152.066 52.5487 152.204 52.6293 152.308 52.7289C152.412 52.8238 152.493 52.9258 152.55 53.0349H152.65V50.9859H153.212V55.966H152.664V55.3897H152.564C152.469 55.5652 152.322 55.7217 152.123 55.8593C151.924 55.9968 151.644 56.0656 151.284 56.0656ZM151.433 55.5676C151.794 55.5676 152.085 55.4538 152.308 55.2261C152.536 54.9937 152.65 54.6712 152.65 54.2585V54.1945C152.65 53.7819 152.536 53.4617 152.308 53.2341C152.085 53.0017 151.794 52.8854 151.433 52.8854C151.077 52.8854 150.783 53.0017 150.551 53.2341C150.323 53.4617 150.209 53.7819 150.209 54.1945V54.2585C150.209 54.6712 150.323 54.9937 150.551 55.2261C150.783 55.4538 151.077 55.5676 151.433 55.5676Z" fill="#808389"/>
<path d="M156.217 55.966V52.487H156.779V55.966H156.217ZM156.501 51.9463C156.378 51.9463 156.274 51.906 156.188 51.8254C156.108 51.7448 156.067 51.6428 156.067 51.5195C156.067 51.3914 156.108 51.2871 156.188 51.2064C156.274 51.1258 156.378 51.0855 156.501 51.0855C156.625 51.0855 156.727 51.1258 156.807 51.2064C156.888 51.2871 156.928 51.3914 156.928 51.5195C156.928 51.6428 156.888 51.7448 156.807 51.8254C156.727 51.906 156.625 51.9463 156.501 51.9463Z" fill="#808389"/>
<path d="M157.961 55.966V52.487H158.508V53.0775H158.608C158.684 52.9115 158.812 52.7621 158.992 52.6293C159.177 52.4918 159.448 52.423 159.803 52.423C160.064 52.423 160.297 52.4776 160.5 52.5866C160.709 52.6957 160.875 52.857 160.998 53.0704C161.122 53.2839 161.183 53.5471 161.183 53.8601V55.966H160.621V53.9028C160.621 53.5566 160.534 53.3052 160.358 53.1487C160.187 52.9922 159.955 52.9139 159.661 52.9139C159.324 52.9139 159.049 53.023 158.836 53.2412C158.627 53.4593 158.523 53.7842 158.523 54.2159V55.966H157.961Z" fill="#808389"/>
<path d="M165.432 55.966C165.232 55.966 165.078 55.9115 164.969 55.8024C164.865 55.6933 164.813 55.5439 164.813 55.3542V52.9779H163.767V52.487H164.813V51.2491H165.375V52.487H166.513V52.9779H165.375V55.2688C165.375 55.4111 165.443 55.4822 165.581 55.4822H166.356V55.966H165.432Z" fill="#808389"/>
<path d="M167.423 55.966V50.9859H167.985V53.042H168.085C168.132 52.9376 168.204 52.8404 168.298 52.7503C168.398 52.6554 168.524 52.5772 168.676 52.5155C168.832 52.4538 169.029 52.423 169.266 52.423C169.527 52.423 169.759 52.4799 169.963 52.5938C170.172 52.7028 170.338 52.8641 170.461 53.0775C170.585 53.2862 170.646 53.5471 170.646 53.8601V55.966H170.084V53.9028C170.084 53.5566 169.996 53.3052 169.821 53.1487C169.65 52.9922 169.418 52.9139 169.124 52.9139C168.787 52.9139 168.512 53.023 168.298 53.2412C168.09 53.4593 167.985 53.7842 167.985 54.2159V55.966H167.423Z" fill="#808389"/>
<path d="M173.38 56.0656C173.029 56.0656 172.721 55.9921 172.455 55.8451C172.19 55.6933 171.983 55.4822 171.836 55.2119C171.689 54.9415 171.616 54.6285 171.616 54.2728V54.1874C171.616 53.8269 171.689 53.5115 171.836 53.2412C171.983 52.9708 172.187 52.7621 172.448 52.6151C172.709 52.4633 173.008 52.3874 173.345 52.3874C173.672 52.3874 173.961 52.4586 174.213 52.6009C174.464 52.7384 174.661 52.9376 174.803 53.1985C174.945 53.4594 175.016 53.7653 175.016 54.1163V54.3724H172.178C172.192 54.7471 172.313 55.0411 172.541 55.2546C172.768 55.4633 173.053 55.5676 173.394 55.5676C173.693 55.5676 173.923 55.4988 174.085 55.3613C174.246 55.2237 174.369 55.0601 174.454 54.8704L174.938 55.1052C174.867 55.2522 174.768 55.3992 174.639 55.5463C174.516 55.6933 174.352 55.8166 174.149 55.9162C173.949 56.0158 173.693 56.0656 173.38 56.0656ZM172.185 53.9099H174.447C174.428 53.5874 174.317 53.336 174.113 53.1558C173.914 52.9756 173.658 52.8854 173.345 52.8854C173.027 52.8854 172.766 52.9756 172.562 53.1558C172.358 53.336 172.232 53.5874 172.185 53.9099Z" fill="#808389"/>
<path d="M179.603 56.0656C179.233 56.0656 178.91 55.9992 178.635 55.8664C178.36 55.7336 178.147 55.5368 177.995 55.2759C177.843 55.0103 177.767 54.6854 177.767 54.3012V50.9859H178.358V54.3083C178.358 54.7162 178.467 55.0222 178.685 55.2261C178.903 55.4301 179.209 55.532 179.603 55.532C179.996 55.532 180.302 55.4301 180.52 55.2261C180.739 55.0222 180.848 54.7162 180.848 54.3083V50.9859H181.445V54.3012C181.445 54.6854 181.369 55.0103 181.218 55.2759C181.066 55.5368 180.85 55.7336 180.57 55.8664C180.295 55.9992 179.973 56.0656 179.603 56.0656Z" fill="#808389"/>
<path d="M182.541 55.966V50.9859H183.139V53.1558H183.238L185.344 50.9859H186.141L183.715 53.4475L186.226 55.966H185.408L183.238 53.7534H183.139V55.966H182.541Z" fill="#808389"/>
<path d="M188 54.6356V54.2016C188 53.9834 188.041 53.8127 188.121 53.6894C188.202 53.5613 188.344 53.4522 188.548 53.3621L188.747 53.2767C188.994 53.1724 189.186 53.0491 189.324 52.9068C189.461 52.7598 189.53 52.5558 189.53 52.295C189.53 52.1005 189.48 51.9369 189.381 51.8041C189.281 51.6713 189.146 51.5693 188.975 51.4981C188.804 51.427 188.612 51.3914 188.399 51.3914C188.185 51.3914 187.986 51.4294 187.801 51.5052C187.621 51.5764 187.474 51.6879 187.36 51.8396C187.251 51.9867 187.196 52.174 187.196 52.4017V52.6507H186.62V52.4017C186.62 52.0744 186.696 51.7993 186.848 51.5764C187.004 51.3487 187.215 51.178 187.481 51.0642C187.751 50.9456 188.057 50.8863 188.399 50.8863C188.736 50.8863 189.032 50.9479 189.288 51.0713C189.549 51.1898 189.751 51.3558 189.893 51.5693C190.04 51.778 190.113 52.0199 190.113 52.295C190.113 52.5653 190.061 52.7906 189.957 52.9708C189.857 53.1463 189.727 53.2933 189.566 53.4119C189.404 53.5258 189.226 53.6254 189.032 53.7107L188.84 53.7961C188.75 53.834 188.686 53.8838 188.648 53.9455C188.61 54.0072 188.591 54.0949 188.591 54.2087V54.6356H188ZM188.306 56.0656C188.164 56.0656 188.048 56.0206 187.958 55.9304C187.868 55.8403 187.823 55.7241 187.823 55.5818C187.823 55.4395 187.868 55.3233 187.958 55.2332C188.048 55.1431 188.164 55.098 188.306 55.098C188.444 55.098 188.558 55.1431 188.648 55.2332C188.743 55.3233 188.79 55.4395 188.79 55.5818C188.79 55.7241 188.743 55.8403 188.648 55.9304C188.558 56.0206 188.444 56.0656 188.306 56.0656Z" fill="#808389"/>
<defs>
<filter id="filter0_d_904_7236" x="0" y="0.259766" width="236.359" height="90.5127" filterUnits="userSpaceOnUse" color-interpolation-filters="sRGB">
<feFlood flood-opacity="0" result="BackgroundImageFix"/>
<feColorMatrix in="SourceAlpha" type="matrix" values="0 0 0 0 0 0 0 0 0 0 0 0 0 0 0 0 0 0 127 0" result="hardAlpha"/>
<feOffset dy="2"/>
<feGaussianBlur stdDeviation="10"/>
<feComposite in2="hardAlpha" operator="out"/>
<feColorMatrix type="matrix" values="0 0 0 0 0.172549 0 0 0 0 0.188235 0 0 0 0 0.231373 0 0 0 0.1 0"/>
<feBlend mode="normal" in2="BackgroundImageFix" result="effect1_dropShadow_904_7236"/>
<feBlend mode="normal" in="SourceGraphic" in2="effect1_dropShadow_904_7236" result="shape"/>
</filter>
</defs>
</svg>
