<svg width="58" height="54" viewBox="0 0 58 54" fill="none" xmlns="http://www.w3.org/2000/svg">
<path d="M38.4292 53.0594H19.5712C19.22 53.0594 18.9346 52.7749 18.9346 52.4229C18.9346 52.0709 19.2196 51.7863 19.5712 51.7863H24.7092L25.4501 42.1165L3.56478 42.117C2.15103 42.117 1 40.966 1 39.5517V3.56524C1 2.15057 2.15103 1 3.56524 1H54.4348C55.8494 1 57 2.15057 57 3.56524V39.5529C57 40.9675 55.849 42.1181 54.4348 42.1181H32.5494L33.2907 51.7879H38.4279C38.7799 51.7879 39.0645 52.0725 39.0645 52.4245C39.0645 52.7756 38.7799 53.0601 38.4284 53.0601L38.4292 53.0594ZM25.9848 51.7868H32.0151L31.2738 42.117H26.7257L25.9848 51.7868ZM54.4349 40.8444C55.1252 40.8444 55.7253 40 55.7253 38.6188H2.27393C2.27222 40 2.87452 40.8444 3.56427 40.8444H54.4349ZM2.27222 37.3462H55.727V3.56538C55.727 2.8525 55.1473 2.27277 54.4344 2.27277H3.56484C2.85239 2.27277 2.27268 2.8525 2.27268 3.56538L2.27222 37.3462ZM28.9597 34.2007C24.1696 34.2007 19.5531 31.7282 16.963 27.4389C14.3329 23.0825 14.2704 17.7141 16.7677 13.3093C16.6851 13.2112 16.6088 13.1064 16.5404 12.9923C16.2071 12.4401 16.1085 11.7917 16.263 11.1648C16.4184 10.5385 16.8072 10.0103 17.3603 9.67687C17.912 9.34351 18.5619 9.24496 19.1878 9.39944C19.8141 9.55392 20.3423 9.94366 20.6758 10.4959C21.0092 11.0481 21.1077 11.6975 20.9532 12.3234C20.7987 12.9497 20.409 13.4779 19.8568 13.8113C19.2216 14.1957 18.4776 14.2512 17.8251 14.0271C15.6073 18.0146 15.6811 22.8504 18.0537 26.7805C21.1898 31.9759 27.5965 34.2388 33.2878 32.1618C33.6176 32.0419 33.9825 32.2115 34.1037 32.5418C34.224 32.872 34.054 33.2373 33.7237 33.3576C32.1612 33.928 30.551 34.2007 28.9597 34.2007ZM18.6059 10.6018C18.4003 10.6018 18.1979 10.6573 18.0177 10.7665C17.7562 10.9245 17.5716 11.1744 17.4992 11.4705C17.426 11.7666 17.4726 12.0737 17.6302 12.3347C17.7882 12.5962 18.0381 12.7809 18.3342 12.8532C18.6303 12.9256 18.9374 12.8798 19.1989 12.7223C19.4599 12.5642 19.6446 12.3143 19.7174 12.0182C19.7906 11.7222 19.744 11.415 19.5864 11.1535C19.4284 10.8925 19.1785 10.7079 18.8824 10.6351C18.7905 10.6124 18.6973 10.6018 18.6059 10.6018ZM35.5741 32.4325C35.3535 32.4325 35.1387 32.3176 35.0219 32.1125C34.847 31.8075 34.9527 31.4187 35.2572 31.2447L35.5124 31.0947C35.8142 30.9158 36.2049 31.013 36.3855 31.3144C36.5658 31.6162 36.4677 32.0069 36.1658 32.1875L35.8888 32.3491C35.7903 32.405 35.6815 32.4325 35.5741 32.4325ZM39.3956 31.2882C38.5766 31.2882 37.7772 30.8727 37.3235 30.1216C36.6355 28.9813 37.0035 27.4942 38.143 26.8062C38.7782 26.4217 39.5222 26.3663 40.1756 26.5904C42.3929 22.6029 42.3187 17.7671 39.9457 13.837C36.4567 8.05433 29.0556 6.00762 23.0967 9.17559C22.786 9.34116 22.4011 9.22264 22.2356 8.9128C22.0709 8.60207 22.1885 8.21722 22.4984 8.05165C29.0529 4.56437 37.195 6.81721 41.0348 13.1791C43.6649 17.5354 43.7274 22.9034 41.231 27.3087C41.3136 27.4059 41.3899 27.5115 41.4583 27.6247C42.1463 28.7651 41.7783 30.2521 40.6389 30.9406C40.2504 31.1763 39.8204 31.2882 39.3956 31.2882ZM39.3889 27.7317C39.1883 27.7317 38.985 27.785 38.8003 27.8964C38.2615 28.2218 38.0874 28.9254 38.4133 29.4652C38.7386 30.0036 39.4404 30.1785 39.982 29.8522C40.5209 29.5269 40.6949 28.8233 40.3691 28.2835C40.1547 27.9284 39.7774 27.7317 39.3889 27.7317ZM30.2012 28.8153C30.1927 28.8153 30.1861 28.8153 30.1777 28.8148L27.2089 28.7074C26.8715 28.6954 26.6016 28.4215 26.5954 28.0846L26.5701 26.7517C26.2781 26.6416 25.9922 26.5106 25.7161 26.3602L24.6898 27.2133C24.4301 27.429 24.0471 27.4042 23.8167 27.1574L21.7943 24.9827C21.5643 24.735 21.5679 24.3515 21.8018 24.1078L22.7269 23.1463C22.5973 22.86 22.4876 22.5662 22.398 22.2661L21.0707 22.144C20.7342 22.1134 20.4808 21.8253 20.4927 21.4875L20.6002 18.5197C20.613 18.1823 20.8865 17.9124 21.2238 17.9062L22.5568 17.88C22.6673 17.5879 22.7978 17.3021 22.9488 17.026L22.0956 16.0001C21.8794 15.7404 21.9038 15.3574 22.1511 15.127L24.3257 13.1041C24.5726 12.8742 24.9565 12.8769 25.2007 13.1117L26.1621 14.0368C26.4484 13.9071 26.7423 13.7971 27.0415 13.7078L27.1636 12.3797C27.1942 12.0436 27.4854 11.7826 27.8201 11.8017L30.7879 11.9091C31.1253 11.922 31.3943 12.1954 31.4014 12.5328L31.4267 13.8658C31.7192 13.9758 32.0046 14.1068 32.2807 14.2573L33.3066 13.4041C33.5662 13.1884 33.9493 13.2119 34.1797 13.4596L36.2025 15.6343C36.4325 15.882 36.4289 16.2655 36.195 16.5092L35.2699 17.4706C35.3995 17.757 35.5096 18.0508 35.5989 18.3509L36.927 18.473C37.2631 18.5036 37.517 18.7917 37.5041 19.1295L37.3967 22.0973C37.3847 22.4347 37.1108 22.7046 36.7739 22.7108L35.4409 22.7361C35.3304 23.0286 35.1999 23.314 35.0494 23.5901L35.9021 24.616C36.1183 24.8757 36.0939 25.2587 35.8462 25.4882L33.6715 27.5111C33.4247 27.7401 33.0403 27.7375 32.7971 27.5035L31.8356 26.5784C31.5493 26.7081 31.2554 26.8177 30.9554 26.9074L30.8337 28.2346C30.804 28.5654 30.5279 28.8153 30.2012 28.8153ZM27.857 27.4565L29.6223 27.5209L29.7297 26.3482C29.755 26.0725 29.9548 25.8452 30.2247 25.7849C30.7196 25.6743 31.2008 25.4946 31.6531 25.2517C31.8941 25.1199 32.196 25.1612 32.3957 25.3534L33.2458 26.1719L34.5384 24.969L33.7842 24.0617C33.6071 23.849 33.5876 23.5463 33.7363 23.3133C34.0124 22.88 34.2264 22.4139 34.3715 21.9279C34.451 21.6633 34.6924 21.4791 34.9685 21.4742L36.1471 21.452L36.2114 19.6876L35.0378 19.5802C34.7621 19.5549 34.5349 19.3551 34.4754 19.0852C34.3648 18.5903 34.1851 18.1091 33.9409 17.6568C33.81 17.4131 33.8513 17.1135 34.0426 16.9142L34.8602 16.0641L33.6573 14.7711L32.7504 15.5252C32.5373 15.7015 32.235 15.7214 32.002 15.5736C31.5679 15.2975 31.1013 15.0836 30.6153 14.938C30.3507 14.8585 30.1674 14.617 30.1616 14.3405L30.1394 13.1624L28.375 13.098L28.2667 14.2717C28.2414 14.5473 28.0416 14.7746 27.7717 14.8341C27.2772 14.9442 26.797 15.1235 26.3438 15.3672C26.1001 15.499 25.7996 15.4569 25.6011 15.2656L24.7511 14.447L23.458 15.65L24.2122 16.5569C24.3893 16.7695 24.4088 17.0718 24.2606 17.3053C23.9849 17.7394 23.7705 18.2059 23.624 18.692C23.5446 18.9565 23.3031 19.1394 23.027 19.1452L21.8489 19.1683L21.7845 20.9327L22.9573 21.0401C23.2329 21.0654 23.4602 21.2652 23.5206 21.5351C23.6311 22.0309 23.8109 22.5121 24.0537 22.9635C24.1846 23.2072 24.1442 23.5068 23.952 23.7061L23.1344 24.5562L24.3373 25.8493L25.2447 25.0946C25.4564 24.9175 25.7596 24.898 25.9922 25.0467C26.4263 25.3228 26.8928 25.5368 27.3789 25.6824C27.6435 25.7618 27.8268 26.0033 27.8321 26.2798L27.857 27.4565ZM29.0004 23.3687C28.9626 23.3687 28.9258 23.3682 28.8885 23.3669C27.2021 23.3056 25.8802 21.8843 25.9415 20.1984C25.9712 19.382 26.317 18.6252 26.9158 18.0686C27.5142 17.5119 28.291 17.2247 29.11 17.2514C29.9263 17.2807 30.6832 17.6269 31.2398 18.2248C31.7964 18.8232 32.0867 19.6027 32.057 20.4194C31.9971 22.068 30.637 23.3687 29.0004 23.3687ZM28.9977 18.5223C28.5445 18.5223 28.1157 18.691 27.7824 19.0008C27.433 19.3262 27.2306 19.7674 27.2133 20.2441C27.1778 21.2287 27.9497 22.0592 28.9347 22.0947C29.9228 22.128 30.7498 21.3583 30.7852 20.3741C30.8017 19.8969 30.633 19.4419 30.3072 19.0926C29.9818 18.7433 29.5406 18.5409 29.0639 18.5235C29.0417 18.5222 29.0195 18.5223 28.9977 18.5223Z" fill="#6679DA" stroke="#6679DA" stroke-width="0.5"/>
</svg>

