<svg width="22" height="16" viewBox="0 0 22 16" fill="none" xmlns="http://www.w3.org/2000/svg">
<path fill-rule="evenodd" clip-rule="evenodd" d="M4 2H18V11H4V2ZM3 11V1H19V11H21V15H1V11H3ZM19 12H3H2V14H20V12H19Z" fill="#FF865D"/>
<path d="M18 2H18.25V1.75H18V2ZM4 2V1.75H3.75V2H4ZM18 11V11.25H18.25V11H18ZM4 11H3.75V11.25H4V11ZM3 1V0.75H2.75V1H3ZM3 11V11.25H3.25V11H3ZM19 1H19.25V0.75H19V1ZM19 11H18.75V11.25H19V11ZM21 11H21.25V10.75H21V11ZM21 15V15.25H21.25V15H21ZM1 15H0.75V15.25H1V15ZM1 11V10.75H0.75V11H1ZM2 12V11.75H1.75V12H2ZM2 14H1.75V14.25H2V14ZM20 14V14.25H20.25V14H20ZM20 12H20.25V11.75H20V12ZM18 1.75H4V2.25H18V1.75ZM18.25 11V2H17.75V11H18.25ZM18 10.75H4V11.25H18V10.75ZM3.75 2V11H4.25V2H3.75ZM2.75 1V11H3.25V1H2.75ZM19 0.75H3V1.25H19V0.75ZM19.25 11V1H18.75V11H19.25ZM21 10.75H19V11.25H21V10.75ZM21.25 15V11H20.75V15H21.25ZM1 15.25H21V14.75H1V15.25ZM0.75 11V15H1.25V11H0.75ZM3 10.75H1V11.25H3V10.75ZM19 11.75H3V12.25H19V11.75ZM3 11.75H2V12.25H3V11.75ZM1.75 12V14H2.25V12H1.75ZM2 14.25H20V13.75H2V14.25ZM20.25 14V12H19.75V14H20.25ZM20 11.75H19V12.25H20V11.75Z" fill="#FF865D"/>
</svg>
