<svg width="50" height="50" viewBox="0 0 50 50" fill="none" xmlns="http://www.w3.org/2000/svg">
<path d="M21.4994 5.67858C20.0108 5.04883 18.4298 4.72974 16.8006 4.72974C15.1714 4.72974 13.5904 5.04883 12.1018 5.67858C10.6642 6.28703 9.37379 7.15709 8.26545 8.26554C7.15711 9.37358 6.28704 10.6647 5.67932 12.1019C5.04957 13.5905 4.73047 15.1715 4.73047 16.8007C4.73047 18.4299 5.04957 20.0109 5.67932 21.4995C6.28695 22.9371 7.157 24.2282 8.26545 25.3359C9.37379 26.4442 10.6646 27.3147 12.1018 27.922C13.5904 28.5521 15.1722 28.8708 16.8006 28.8708C18.4294 28.8708 20.0108 28.5517 21.4994 27.922C22.937 27.3144 24.2281 26.4443 25.3358 25.3359C26.4441 24.2278 27.3146 22.9367 27.9219 21.4995C28.5521 20.0109 28.8708 18.4299 28.8708 16.8007C28.8708 15.1715 28.5517 13.5905 27.9219 12.1019C27.3143 10.6643 26.4442 9.37316 25.3358 8.26554C24.2277 7.15679 22.9366 6.28672 21.4994 5.67858ZM16.8002 26.7981C11.2876 26.7981 6.80299 22.3135 6.80299 16.8009C6.80299 11.2883 11.2876 6.8037 16.8002 6.8037C22.3128 6.8037 26.7974 11.2883 26.7974 16.8009C26.7974 22.3135 22.3128 26.7981 16.8002 26.7981Z" fill="#78BB96"/>
<path d="M49.1523 43.8374L34.968 29.6531C34.4222 29.107 33.694 28.8064 32.9179 28.8064C32.3183 28.8064 31.7473 28.9868 31.2666 29.3208L29.5924 27.6919C29.6012 27.6823 29.6097 27.6731 29.6185 27.6626L28.1223 26.2073C25.4193 29.4561 21.3474 31.5266 16.8002 31.5266C8.68016 31.5266 2.07372 24.9205 2.07372 16.8002C2.07372 8.68012 8.67985 2.07368 16.8002 2.07368C24.9205 2.07368 31.5267 8.67981 31.5267 16.8002C31.5267 19.111 30.9914 21.2996 30.0385 23.2475L31.5969 24.7638C31.8465 24.3016 32.0736 23.8266 32.2801 23.3391C33.1566 21.2674 33.6007 19.0672 33.6007 16.7993C33.6007 14.5315 33.1566 12.3312 32.2801 10.2596C31.4338 8.25861 30.2229 6.4622 28.6797 4.9198C27.1373 3.37699 25.3409 2.16566 23.3399 1.31935C21.2686 0.444459 19.0683 0 16.8006 0C14.5332 0 12.3328 0.444479 10.2608 1.32059C8.25985 2.16695 6.46343 3.37781 4.92103 4.92103C3.37822 6.46343 2.16689 8.25985 1.32059 10.2608C0.444088 12.3325 0 14.5327 0 16.8006C0 19.0684 0.444078 21.2687 1.32059 23.3403C2.16695 25.3413 3.37781 27.1377 4.92103 28.6801C6.46343 30.2229 8.25985 31.4342 10.2608 32.2805C12.3325 33.157 14.5327 33.6011 16.8006 33.6011C19.0684 33.6011 21.2687 33.1571 23.3403 32.2805C25.1171 31.5286 26.7331 30.4894 28.1528 29.1857L29.7909 30.7791C29.4284 31.2722 29.2327 31.867 29.2327 32.4927C29.2327 33.2687 29.5333 33.9965 30.0795 34.5431L44.2638 48.7274C44.8099 49.2732 45.5382 49.5742 46.3142 49.5742C47.0898 49.5742 47.8172 49.2736 48.3642 48.7274L49.1531 47.9381C50.2824 46.8056 50.2824 44.967 49.1523 43.8369L49.1523 43.8374ZM47.6858 46.4701L46.8965 47.259C46.7422 47.4134 46.5352 47.4986 46.3134 47.4986C46.0911 47.4986 45.8841 47.4134 45.7298 47.259L31.5466 33.0748C31.3922 32.9204 31.3074 32.7135 31.3074 32.4912C31.3074 32.2694 31.3922 32.0624 31.5466 31.9081L32.3355 31.1188C32.4906 30.9645 32.6971 30.8797 32.919 30.8797C33.1408 30.8797 33.3478 30.9645 33.5021 31.1188L47.6864 45.3031C48.0071 45.6246 48.0071 46.1482 47.6856 46.4698L47.6858 46.4701Z" fill="#78BB96"/>
<path d="M18.5473 10.3536C15.143 9.31317 11.5265 11.2361 10.486 14.6405C10.3185 15.1882 10.6271 15.7682 11.1745 15.9358C11.2757 15.9667 11.3778 15.9812 11.4783 15.9812C11.9224 15.9812 12.3327 15.6938 12.4697 15.2473C13.1762 12.9365 15.6306 11.6316 17.9414 12.3377C18.4891 12.5053 19.0691 12.1967 19.2367 11.6493C19.4042 11.102 19.0948 10.5212 18.5474 10.3536L18.5473 10.3536Z" fill="#78BB96"/>
</svg>
