<svg width="32" height="33" viewBox="0 0 32 33" fill="none" xmlns="http://www.w3.org/2000/svg">
<path fill-rule="evenodd" clip-rule="evenodd" d="M31 1H25V32H31V1ZM26 31V2H30V31H26ZM17 5H23V32H17V5ZM18 6V31H22V6H18ZM15 9H9V32H15V9ZM10 31V10H14V31H10ZM7 13H1V32H7V13ZM2 31V14H6V31H2Z" fill="#FF865D"/>
<path d="M25 1V0.75H24.75V1H25ZM31 1H31.25V0.75H31V1ZM25 32H24.75V32.25H25V32ZM31 32V32.25H31.25V32H31ZM26 2V1.75H25.75V2H26ZM26 31H25.75V31.25H26V31ZM30 2H30.25V1.75H30V2ZM30 31V31.25H30.25V31H30ZM23 5H23.25V4.75H23V5ZM17 5V4.75H16.75V5H17ZM23 32V32.25H23.25V32H23ZM17 32H16.75V32.25H17V32ZM18 31H17.75V31.25H18V31ZM18 6V5.75H17.75V6H18ZM22 31V31.25H22.25V31H22ZM22 6H22.25V5.75H22V6ZM9 9V8.75H8.75V9H9ZM15 9H15.25V8.75H15V9ZM9 32H8.75V32.25H9V32ZM15 32V32.25H15.25V32H15ZM10 10V9.75H9.75V10H10ZM10 31H9.75V31.25H10V31ZM14 10H14.25V9.75H14V10ZM14 31V31.25H14.25V31H14ZM1 13V12.75H0.75V13H1ZM7 13H7.25V12.75H7V13ZM1 32H0.75V32.25H1V32ZM7 32V32.25H7.25V32H7ZM2 14V13.75H1.75V14H2ZM2 31H1.75V31.25H2V31ZM6 14H6.25V13.75H6V14ZM6 31V31.25H6.25V31H6ZM25 1.25H31V0.75H25V1.25ZM25.25 32V1H24.75V32H25.25ZM31 31.75H25V32.25H31V31.75ZM30.75 1V32H31.25V1H30.75ZM25.75 2V31H26.25V2H25.75ZM30 1.75H26V2.25H30V1.75ZM30.25 31V2H29.75V31H30.25ZM26 31.25H30V30.75H26V31.25ZM23 4.75H17V5.25H23V4.75ZM23.25 32V5H22.75V32H23.25ZM17 32.25H23V31.75H17V32.25ZM16.75 5V32H17.25V5H16.75ZM18.25 31V6H17.75V31H18.25ZM22 30.75H18V31.25H22V30.75ZM21.75 6V31H22.25V6H21.75ZM18 6.25H22V5.75H18V6.25ZM9 9.25H15V8.75H9V9.25ZM9.25 32V9H8.75V32H9.25ZM15 31.75H9V32.25H15V31.75ZM14.75 9V32H15.25V9H14.75ZM9.75 10V31H10.25V10H9.75ZM14 9.75H10V10.25H14V9.75ZM14.25 31V10H13.75V31H14.25ZM10 31.25H14V30.75H10V31.25ZM1 13.25H7V12.75H1V13.25ZM1.25 32V13H0.75V32H1.25ZM7 31.75H1V32.25H7V31.75ZM6.75 13V32H7.25V13H6.75ZM1.75 14V31H2.25V14H1.75ZM6 13.75H2V14.25H6V13.75ZM6.25 31V14H5.75V31H6.25ZM2 31.25H6V30.75H2V31.25Z" fill="#FF865D"/>
</svg>
