<svg width="125" height="28" viewBox="0 0 125 28" fill="none" xmlns="http://www.w3.org/2000/svg">
<path d="M21.1373 28L12.3137 15.6863L8.2353 19.2941V28H0V0H8.2353V10.6667L19.7647 0H29.4902L17.9216 10.6275L30.549 28H21.1373Z" fill="#2C303B"/>
<path d="M52.943 28L50.8254 22.7843H37.9234L35.845 28H27.492L39.6881 0H49.3352L61.5312 28H52.943ZM44.394 6.5098L40.3548 16.549H48.4332L44.394 6.5098Z" fill="#2C303B"/>
<path d="M83.2448 28L69.0487 10.9804V28H61.2056V0H68.4997L82.6958 17.0196V0H90.5389V28H83.2448Z" fill="#2C303B"/>
<path d="M115.68 28L113.563 22.7843H100.661L98.5824 28H90.2295L102.426 0H112.073L124.269 28H115.68ZM107.131 6.5098L103.092 16.549H111.171L107.131 6.5098Z" fill="#2C303B"/>
</svg>
