<svg width="20" height="16" viewBox="0 0 20 16" fill="none" xmlns="http://www.w3.org/2000/svg">
<path fill-rule="evenodd" clip-rule="evenodd" d="M6.85363 1.35359L3.20718 5.00004H17.5001V6.00004H0.792969L6.14652 0.646484L6.85363 1.35359ZM12.6465 14.1465L16.2929 10.5001H2.00005V9.50008H18.7072L13.3536 14.8536L12.6465 14.1465Z" fill="#FF865D"/>
<path d="M3.20718 5.00004L3.03041 4.82326L2.60363 5.25004H3.20718V5.00004ZM6.85363 1.35359L7.03041 1.53037L7.20718 1.35359L7.03041 1.17681L6.85363 1.35359ZM17.5001 5.00004H17.7501V4.75004H17.5001V5.00004ZM17.5001 6.00004V6.25004H17.7501V6.00004H17.5001ZM0.792969 6.00004L0.616192 5.82326L0.189415 6.25004H0.792969V6.00004ZM6.14652 0.646484L6.3233 0.469708L6.14652 0.292931L5.96975 0.469708L6.14652 0.646484ZM16.2929 10.5001L16.4697 10.6769L16.8965 10.2501H16.2929V10.5001ZM12.6465 14.1465L12.4697 13.9698L12.2929 14.1465L12.4697 14.3233L12.6465 14.1465ZM2.00005 10.5001H1.75005V10.7501H2.00005V10.5001ZM2.00005 9.50008V9.25008H1.75005V9.50008H2.00005ZM18.7072 9.50008L18.8839 9.67686L19.3107 9.25008H18.7072V9.50008ZM13.3536 14.8536L13.1768 15.0304L13.3536 15.2072L13.5304 15.0304L13.3536 14.8536ZM3.38396 5.17681L7.03041 1.53037L6.67685 1.17681L3.03041 4.82326L3.38396 5.17681ZM17.5001 4.75004H3.20718V5.25004H17.5001V4.75004ZM17.7501 6.00004V5.00004H17.2501V6.00004H17.7501ZM0.792969 6.25004H17.5001V5.75004H0.792969V6.25004ZM5.96975 0.469708L0.616192 5.82326L0.969745 6.17681L6.3233 0.823261L5.96975 0.469708ZM7.03041 1.17681L6.3233 0.469708L5.96975 0.823261L6.67685 1.53037L7.03041 1.17681ZM16.1162 10.3233L12.4697 13.9698L12.8233 14.3233L16.4697 10.6769L16.1162 10.3233ZM2.00005 10.7501H16.2929V10.2501H2.00005V10.7501ZM1.75005 9.50008V10.5001H2.25005V9.50008H1.75005ZM18.7072 9.25008H2.00005V9.75008H18.7072V9.25008ZM13.5304 15.0304L18.8839 9.67686L18.5304 9.32331L13.1768 14.6769L13.5304 15.0304ZM12.4697 14.3233L13.1768 15.0304L13.5304 14.6769L12.8233 13.9698L12.4697 14.3233Z" fill="#FF865D"/>
</svg>
