<svg width="64" height="51" viewBox="0 0 64 51" fill="none" xmlns="http://www.w3.org/2000/svg">
<path d="M47.4542 18.4124C45.3114 9.54517 41.117 0 36.9738 0C36.7686 0 36.5639 0.0241692 36.367 0.071481C35.464 0.289517 34.7451 0.977592 34.2174 2.09452C34.1614 2.13875 34.1002 2.17269 34.0539 2.23183C31.7346 5.19695 23.4289 14.9904 13.9538 17.2806L6.7142 19.1488C6.6854 19.1555 6.65763 19.1642 6.62935 19.173C4.41081 19.7829 2.5385 21.178 1.33313 23.126C0.0727001 25.1649 -0.310898 27.5742 0.254743 29.9121C0.820423 32.2493 2.26133 34.2184 4.31373 35.4562C6.35691 36.6888 8.77227 37.055 11.1147 36.4898L12.6157 36.1273H12.6173H12.6178L14.4234 35.6907L20.4139 48.0003C21.194 49.6017 22.8027 50.5351 24.4755 50.5351C25.1368 50.5351 25.8084 50.3901 26.4415 50.0815C28.676 48.9929 29.6093 46.2894 28.5212 44.054L23.6775 34.1011C32.3261 34.0281 41.1577 38.0475 43.1759 39.0266C43.8984 39.565 44.6302 39.8633 45.361 39.8633C45.5662 39.8633 45.7709 39.8391 45.9678 39.7913C47.8803 39.329 48.9793 36.7866 49.1469 32.4375C49.2976 28.5318 48.6969 23.5513 47.4545 18.4117L47.4542 18.4124ZM10.6624 34.6275C8.81578 35.0749 6.91149 34.7859 5.30182 33.815C3.69176 32.8441 2.55932 31.2972 2.11606 29.4619C1.67226 27.626 1.97206 25.7331 2.96252 24.1331C3.93806 22.5549 5.47358 21.4349 7.29152 20.9771L7.92971 20.8223L11.2333 34.4888L10.6624 34.6275ZM25.6019 48.3584C24.3178 48.9838 22.7612 48.4469 22.1369 47.1618L19.9626 42.6949L24.6876 40.5608L26.797 44.8944C27.4228 46.1785 26.886 47.7326 25.6019 48.3583L25.6019 48.3584ZM23.8489 38.836L19.1239 40.9702L16.3304 35.23L18.5493 34.6932C19.5454 34.453 20.5642 34.2941 21.5932 34.2015L23.8489 38.836ZM18.0984 32.8306L13.0969 34.0391L9.79327 20.3714L14.4045 19.2544C22.3723 17.3285 29.4572 10.5044 33.2671 6.20476C33.2332 6.59611 33.2054 7.00032 33.1884 7.42611C33.1098 9.45942 33.2393 11.7885 33.5535 14.2759C33.5582 14.3114 33.5489 14.3453 33.5571 14.3813C33.5602 14.3932 33.569 14.4014 33.5721 14.4132C33.8611 16.6626 34.2977 19.0379 34.8813 21.4523C35.4532 23.8194 36.1731 26.2338 36.9969 28.5033C37.0016 28.548 36.9913 28.5912 37.0021 28.636C37.034 28.7666 37.0957 28.8776 37.1718 28.979C38.1175 31.5137 39.1964 33.8386 40.3478 35.6879C35.193 33.6433 26.1153 30.892 18.0979 32.8307L18.0984 32.8306ZM35.6024 15.1213C37.0465 15.5188 38.7609 17.4899 39.4871 20.4911C40.2076 23.4737 39.5972 25.9946 38.5044 27.022C37.8775 25.2186 37.2789 23.2155 36.7441 21.0002C36.2581 18.9909 35.8791 17.0142 35.6025 15.1213H35.6024ZM47.2317 32.3633C47.0924 35.9542 46.2706 37.746 45.5167 37.9281C45.4669 37.9404 45.4149 37.9455 45.3604 37.9455C45.1907 37.9455 45.002 37.8931 44.7973 37.7923C44.7171 37.6915 44.6168 37.6041 44.4949 37.5408C44.4553 37.5202 44.352 37.4662 44.1972 37.3896C42.8103 36.2459 40.9384 33.3528 39.1997 28.904C41.3595 27.5772 42.3012 23.9733 41.3503 20.0393C40.3943 16.0847 37.8975 13.2958 35.35 13.1298C35.1289 11.0928 35.0384 9.18394 35.1032 7.49832C35.242 3.90734 36.0638 2.11666 36.8172 1.93459C36.8671 1.92225 36.919 1.9171 36.9736 1.9171C38.8218 1.9171 42.9538 7.95134 45.5909 18.8616C46.7932 23.8343 47.3754 28.6287 47.2319 32.3621L47.2317 32.3633Z" fill="#FF865D"/>
<path d="M54.7734 17.8226C54.3502 17.8138 53.9691 17.5228 53.8637 17.0918C53.7377 16.5781 54.0524 16.0592 54.5662 15.9327L60.8282 14.3961C61.3414 14.2691 61.8608 14.5848 61.9873 15.0985C62.1133 15.6123 61.7986 16.1312 61.2848 16.2577L55.0228 17.7943C54.9395 17.8148 54.8557 17.8246 54.7734 17.8226V17.8226Z" fill="#FF865D"/>
<path d="M50.031 7.3486C49.7744 7.33728 49.5229 7.22312 49.3429 7.01227C48.9994 6.6091 49.0487 6.00382 49.4519 5.66077L55.0985 0.85863C55.5011 0.516647 56.1069 0.564474 56.4489 0.96765C56.7924 1.37082 56.7431 1.9761 56.3399 2.31915L50.6934 7.12129C50.5021 7.28534 50.265 7.35888 50.031 7.3486L50.031 7.3486Z" fill="#FF865D"/>
<path d="M63.2043 31.0059C63.0783 31.0275 62.9457 31.0244 62.8119 30.9909L55.8701 29.276C55.3554 29.1489 55.0432 28.6295 55.1697 28.1163C55.2952 27.6026 55.8136 27.2863 56.3294 27.4159L63.2712 29.1309C63.7859 29.2579 64.0981 29.7773 63.9716 30.2905C63.8785 30.6716 63.5684 30.9431 63.2043 31.0059Z" fill="#FF865D"/>
</svg>
